<svg width="9" height="15" viewBox="0 0 9 15" fill="none" xmlns="http://www.w3.org/2000/svg">
<path d="M0.818272 12.3396L5.82472 7.33317L0.818273 2.32414C0.606885 2.0773 0.496425 1.75978 0.508968 1.43504C0.521512 1.1103 0.656135 0.802245 0.885934 0.572446C1.11573 0.342647 1.42378 0.208024 1.74853 0.195481C2.07327 0.182937 2.39079 0.293397 2.63763 0.504786L8.56021 6.43124C8.80053 6.673 8.93542 7.00003 8.93542 7.34092C8.93542 7.6818 8.80053 8.00883 8.56021 8.25059L2.63763 14.1732C2.39587 14.4135 2.06883 14.5484 1.72795 14.5484C1.38706 14.5484 1.06003 14.4135 0.818272 14.1732C0.578915 13.928 0.444921 13.599 0.444921 13.2564C0.444921 12.9138 0.578915 12.5848 0.818272 12.3396Z" fill="#555E77"/>
</svg>
