<svg width="855" height="138" viewBox="0 0 855 138" fill="none" xmlns="http://www.w3.org/2000/svg">
<path d="M16.896 3.136C16.016 3.45867 15.3413 3.95733 14.872 4.632C14.432 5.30667 14.212 6.11333 14.212 7.052H16.896V12.992H11.396V7.052C11.396 6.23067 11.5427 5.468 11.836 4.764C12.1293 4.06 12.5253 3.444 13.024 2.916C13.5227 2.35867 14.0947 1.88933 14.74 1.508C15.4147 1.12667 16.1333 0.818665 16.896 0.583998V3.136ZM8.14 3.136C7.26 3.45867 6.58533 3.95733 6.116 4.632C5.676 5.30667 5.456 6.11333 5.456 7.052H8.14V12.992H2.64V7.052C2.64 6.23067 2.78667 5.468 3.08 4.764C3.37333 4.06 3.76933 3.444 4.268 2.916C4.76667 2.35867 5.33867 1.88933 5.984 1.508C6.65867 1.12667 7.37733 0.818665 8.14 0.583998V3.136ZM21.5748 0.583998H44.1908V5.336H27.0748V13.564H42.9148V18.052H27.0748V27.248H44.4988V32H21.5748V0.583998ZM45.0216 9.252H50.4776L56.2416 26.72H56.3296L61.8736 9.252H67.0656L58.9256 32H53.2936L45.0216 9.252ZM84.382 18.624C84.3234 17.832 84.1474 17.0693 83.854 16.336C83.59 15.6027 83.2087 14.972 82.71 14.444C82.2407 13.8867 81.654 13.4467 80.95 13.124C80.2754 12.772 79.5127 12.596 78.662 12.596C77.782 12.596 76.9754 12.7573 76.242 13.08C75.538 13.3733 74.922 13.7987 74.394 14.356C73.8954 14.884 73.4847 15.5147 73.162 16.248C72.8687 16.9813 72.7074 17.7733 72.678 18.624H84.382ZM72.678 21.924C72.678 22.804 72.7954 23.6547 73.03 24.476C73.294 25.2973 73.6754 26.016 74.174 26.632C74.6727 27.248 75.3034 27.7467 76.066 28.128C76.8287 28.48 77.738 28.656 78.794 28.656C80.2607 28.656 81.434 28.348 82.314 27.732C83.2234 27.0867 83.898 26.1333 84.338 24.872H89.09C88.826 26.104 88.3714 27.204 87.726 28.172C87.0807 29.14 86.3034 29.9613 85.394 30.636C84.4847 31.2813 83.458 31.7653 82.314 32.088C81.1994 32.44 80.026 32.616 78.794 32.616C77.0047 32.616 75.4207 32.3227 74.042 31.736C72.6634 31.1493 71.49 30.328 70.522 29.272C69.5834 28.216 68.8647 26.9547 68.366 25.488C67.8967 24.0213 67.662 22.408 67.662 20.648C67.662 19.0347 67.9114 17.5093 68.41 16.072C68.938 14.6053 69.6714 13.3293 70.61 12.244C71.578 11.1293 72.7367 10.2493 74.086 9.604C75.4354 8.95867 76.9607 8.636 78.662 8.636C80.4514 8.636 82.05 9.01733 83.458 9.78C84.8954 10.5133 86.0834 11.496 87.022 12.728C87.9607 13.96 88.6354 15.3827 89.046 16.996C89.486 18.58 89.6034 20.2227 89.398 21.924H72.678ZM91.8913 9.252H96.5993V13.652H96.6873C96.8339 13.036 97.1126 12.4347 97.5233 11.848C97.9633 11.2613 98.4766 10.7333 99.0633 10.264C99.6793 9.76533 100.354 9.36933 101.087 9.076C101.821 8.78267 102.569 8.636 103.331 8.636C103.918 8.636 104.314 8.65067 104.519 8.68C104.754 8.70933 104.989 8.73867 105.223 8.768V13.608C104.871 13.5493 104.505 13.5053 104.123 13.476C103.771 13.4173 103.419 13.388 103.067 13.388C102.217 13.388 101.41 13.564 100.647 13.916C99.9139 14.2387 99.2686 14.7373 98.7113 15.412C98.1539 16.0573 97.7139 16.864 97.3913 17.832C97.0686 18.8 96.9073 19.9147 96.9073 21.176V32H91.8913V9.252ZM103.532 9.252H109.032L114.972 26.236H115.06L120.824 9.252H126.06L117.216 33.232C116.805 34.2587 116.395 35.2413 115.984 36.18C115.603 37.1187 115.119 37.94 114.532 38.644C113.975 39.3773 113.271 39.9493 112.42 40.36C111.569 40.8 110.484 41.02 109.164 41.02C107.991 41.02 106.832 40.932 105.688 40.756V36.532C106.099 36.5907 106.495 36.6493 106.876 36.708C107.257 36.796 107.653 36.84 108.064 36.84C108.651 36.84 109.135 36.7667 109.516 36.62C109.897 36.4733 110.205 36.2533 110.44 35.96C110.704 35.696 110.924 35.3733 111.1 34.992C111.276 34.6107 111.437 34.1707 111.584 33.672L112.156 31.912L103.532 9.252ZM142.246 24.696C142.393 26.1627 142.95 27.1893 143.918 27.776C144.886 28.3627 146.045 28.656 147.394 28.656C147.864 28.656 148.392 28.6267 148.978 28.568C149.594 28.48 150.166 28.3333 150.694 28.128C151.222 27.9227 151.648 27.6293 151.97 27.248C152.322 26.8373 152.484 26.3093 152.454 25.664C152.425 25.0187 152.19 24.4907 151.75 24.08C151.31 23.6693 150.738 23.3467 150.034 23.112C149.36 22.848 148.582 22.628 147.702 22.452C146.822 22.276 145.928 22.0853 145.018 21.88C144.08 21.6747 143.17 21.4253 142.29 21.132C141.44 20.8387 140.662 20.4427 139.958 19.944C139.284 19.4453 138.741 18.8147 138.33 18.052C137.92 17.26 137.714 16.292 137.714 15.148C137.714 13.916 138.008 12.8893 138.594 12.068C139.21 11.2173 139.973 10.5427 140.882 10.044C141.821 9.516 142.848 9.14933 143.962 8.944C145.106 8.73867 146.192 8.636 147.218 8.636C148.392 8.636 149.506 8.768 150.562 9.032C151.648 9.26667 152.616 9.66267 153.466 10.22C154.346 10.7773 155.065 11.5107 155.622 12.42C156.209 13.3 156.576 14.3707 156.722 15.632H151.486C151.252 14.4293 150.694 13.6227 149.814 13.212C148.964 12.8013 147.981 12.596 146.866 12.596C146.514 12.596 146.089 12.6253 145.59 12.684C145.121 12.7427 144.666 12.86 144.226 13.036C143.816 13.1827 143.464 13.4173 143.17 13.74C142.877 14.0333 142.73 14.4293 142.73 14.928C142.73 15.544 142.936 16.0427 143.346 16.424C143.786 16.8053 144.344 17.128 145.018 17.392C145.722 17.6267 146.514 17.832 147.394 18.008C148.274 18.184 149.184 18.3747 150.122 18.58C151.032 18.7853 151.926 19.0347 152.806 19.328C153.686 19.6213 154.464 20.0173 155.138 20.516C155.842 21.0147 156.4 21.6453 156.81 22.408C157.25 23.1707 157.47 24.1093 157.47 25.224C157.47 26.5733 157.162 27.7173 156.546 28.656C155.93 29.5947 155.124 30.3573 154.126 30.944C153.158 31.5307 152.073 31.956 150.87 32.22C149.668 32.484 148.48 32.616 147.306 32.616C145.869 32.616 144.534 32.4547 143.302 32.132C142.1 31.8093 141.044 31.3253 140.134 30.68C139.254 30.0053 138.55 29.184 138.022 28.216C137.524 27.2187 137.26 26.0453 137.23 24.696H142.246ZM160.091 0.583998H165.107V5.336H160.091V0.583998ZM160.091 9.252H165.107V32H160.091V9.252ZM169.252 9.252H174.004V12.596L174.092 12.684C174.855 11.4227 175.852 10.44 177.084 9.736C178.316 9.00267 179.68 8.636 181.176 8.636C183.67 8.636 185.635 9.28133 187.072 10.572C188.51 11.8627 189.228 13.7987 189.228 16.38V32H184.212V17.7C184.154 15.9107 183.772 14.62 183.068 13.828C182.364 13.0067 181.264 12.596 179.768 12.596C178.918 12.596 178.155 12.7573 177.48 13.08C176.806 13.3733 176.234 13.7987 175.764 14.356C175.295 14.884 174.928 15.5147 174.664 16.248C174.4 16.9813 174.268 17.7587 174.268 18.58V32H169.252V9.252ZM214.23 30.812C214.23 34.244 213.262 36.796 211.326 38.468C209.419 40.1693 206.662 41.02 203.054 41.02C201.91 41.02 200.751 40.9027 199.578 40.668C198.434 40.4333 197.378 40.0373 196.41 39.48C195.471 38.9227 194.679 38.1893 194.034 37.28C193.388 36.3707 193.007 35.256 192.89 33.936H197.906C198.052 34.64 198.302 35.212 198.654 35.652C199.006 36.092 199.416 36.4293 199.886 36.664C200.384 36.928 200.927 37.0893 201.514 37.148C202.1 37.236 202.716 37.28 203.362 37.28C205.386 37.28 206.867 36.7813 207.806 35.784C208.744 34.7867 209.214 33.3493 209.214 31.472V27.996H209.126C208.422 29.2573 207.454 30.24 206.222 30.944C205.019 31.648 203.714 32 202.306 32C200.487 32 198.932 31.692 197.642 31.076C196.38 30.4307 195.324 29.5653 194.474 28.48C193.652 27.3653 193.051 26.0893 192.67 24.652C192.288 23.2147 192.098 21.6747 192.098 20.032C192.098 18.5067 192.332 17.0547 192.802 15.676C193.271 14.2973 193.946 13.0947 194.826 12.068C195.706 11.012 196.776 10.176 198.038 9.56C199.328 8.944 200.78 8.636 202.394 8.636C203.831 8.636 205.151 8.944 206.354 9.56C207.556 10.1467 208.48 11.0853 209.126 12.376H209.214V9.252H214.23V30.812ZM203.098 28.04C204.212 28.04 205.151 27.82 205.914 27.38C206.706 26.9107 207.336 26.3093 207.806 25.576C208.304 24.8133 208.656 23.9627 208.862 23.024C209.096 22.056 209.214 21.088 209.214 20.12C209.214 19.152 209.096 18.2133 208.862 17.304C208.627 16.3947 208.26 15.588 207.762 14.884C207.292 14.18 206.662 13.6227 205.87 13.212C205.107 12.8013 204.183 12.596 203.098 12.596C201.983 12.596 201.044 12.8307 200.282 13.3C199.519 13.7693 198.903 14.3853 198.434 15.148C197.964 15.8813 197.627 16.732 197.422 17.7C197.216 18.6387 197.114 19.5773 197.114 20.516C197.114 21.4547 197.231 22.3787 197.466 23.288C197.7 24.168 198.052 24.96 198.522 25.664C199.02 26.368 199.636 26.94 200.37 27.38C201.132 27.82 202.042 28.04 203.098 28.04ZM218.092 0.583998H223.108V32H218.092V0.583998ZM242.873 18.624C242.814 17.832 242.638 17.0693 242.345 16.336C242.081 15.6027 241.7 14.972 241.201 14.444C240.732 13.8867 240.145 13.4467 239.441 13.124C238.766 12.772 238.004 12.596 237.153 12.596C236.273 12.596 235.466 12.7573 234.733 13.08C234.029 13.3733 233.413 13.7987 232.885 14.356C232.386 14.884 231.976 15.5147 231.653 16.248C231.36 16.9813 231.198 17.7733 231.169 18.624H242.873ZM231.169 21.924C231.169 22.804 231.286 23.6547 231.521 24.476C231.785 25.2973 232.166 26.016 232.665 26.632C233.164 27.248 233.794 27.7467 234.557 28.128C235.32 28.48 236.229 28.656 237.285 28.656C238.752 28.656 239.925 28.348 240.805 27.732C241.714 27.0867 242.389 26.1333 242.829 24.872H247.581C247.317 26.104 246.862 27.204 246.217 28.172C245.572 29.14 244.794 29.9613 243.885 30.636C242.976 31.2813 241.949 31.7653 240.805 32.088C239.69 32.44 238.517 32.616 237.285 32.616C235.496 32.616 233.912 32.3227 232.533 31.736C231.154 31.1493 229.981 30.328 229.013 29.272C228.074 28.216 227.356 26.9547 226.857 25.488C226.388 24.0213 226.153 22.408 226.153 20.648C226.153 19.0347 226.402 17.5093 226.901 16.072C227.429 14.6053 228.162 13.3293 229.101 12.244C230.069 11.1293 231.228 10.2493 232.577 9.604C233.926 8.95867 235.452 8.636 237.153 8.636C238.942 8.636 240.541 9.01733 241.949 9.78C243.386 10.5133 244.574 11.496 245.513 12.728C246.452 13.96 247.126 15.3827 247.537 16.996C247.977 18.58 248.094 20.2227 247.889 21.924H231.169ZM261.44 9.252H266.192V12.332H266.28C266.984 11.012 267.967 10.0733 269.228 9.516C270.49 8.92933 271.854 8.636 273.32 8.636C275.11 8.636 276.664 8.95867 277.984 9.604C279.334 10.22 280.448 11.0853 281.328 12.2C282.208 13.2853 282.868 14.5613 283.308 16.028C283.748 17.4947 283.968 19.064 283.968 20.736C283.968 22.2613 283.763 23.7427 283.352 25.18C282.971 26.6173 282.37 27.8933 281.548 29.008C280.756 30.0933 279.744 30.9733 278.512 31.648C277.28 32.2933 275.828 32.616 274.156 32.616C273.423 32.616 272.69 32.5427 271.956 32.396C271.223 32.2787 270.519 32.0733 269.844 31.78C269.17 31.4867 268.539 31.12 267.952 30.68C267.395 30.2107 266.926 29.668 266.544 29.052H266.456V40.404H261.44V9.252ZM278.952 20.648C278.952 19.6213 278.82 18.624 278.556 17.656C278.292 16.688 277.896 15.8373 277.368 15.104C276.84 14.3413 276.18 13.74 275.388 13.3C274.596 12.8307 273.687 12.596 272.66 12.596C270.548 12.596 268.95 13.3293 267.864 14.796C266.808 16.2627 266.28 18.2133 266.28 20.648C266.28 21.792 266.412 22.8627 266.676 23.86C266.97 24.828 267.395 25.664 267.952 26.368C268.51 27.072 269.17 27.6293 269.932 28.04C270.724 28.4507 271.634 28.656 272.66 28.656C273.804 28.656 274.772 28.4213 275.564 27.952C276.356 27.4827 277.002 26.8813 277.5 26.148C278.028 25.3853 278.395 24.5347 278.6 23.596C278.835 22.628 278.952 21.6453 278.952 20.648ZM302.507 18.624C302.448 17.832 302.272 17.0693 301.979 16.336C301.715 15.6027 301.334 14.972 300.835 14.444C300.366 13.8867 299.779 13.4467 299.075 13.124C298.4 12.772 297.638 12.596 296.787 12.596C295.907 12.596 295.1 12.7573 294.367 13.08C293.663 13.3733 293.047 13.7987 292.519 14.356C292.02 14.884 291.61 15.5147 291.287 16.248C290.994 16.9813 290.832 17.7733 290.803 18.624H302.507ZM290.803 21.924C290.803 22.804 290.92 23.6547 291.155 24.476C291.419 25.2973 291.8 26.016 292.299 26.632C292.798 27.248 293.428 27.7467 294.191 28.128C294.954 28.48 295.863 28.656 296.919 28.656C298.386 28.656 299.559 28.348 300.439 27.732C301.348 27.0867 302.023 26.1333 302.463 24.872H307.215C306.951 26.104 306.496 27.204 305.851 28.172C305.206 29.14 304.428 29.9613 303.519 30.636C302.61 31.2813 301.583 31.7653 300.439 32.088C299.324 32.44 298.151 32.616 296.919 32.616C295.13 32.616 293.546 32.3227 292.167 31.736C290.788 31.1493 289.615 30.328 288.647 29.272C287.708 28.216 286.99 26.9547 286.491 25.488C286.022 24.0213 285.787 22.408 285.787 20.648C285.787 19.0347 286.036 17.5093 286.535 16.072C287.063 14.6053 287.796 13.3293 288.735 12.244C289.703 11.1293 290.862 10.2493 292.211 9.604C293.56 8.95867 295.086 8.636 296.787 8.636C298.576 8.636 300.175 9.01733 301.583 9.78C303.02 10.5133 304.208 11.496 305.147 12.728C306.086 13.96 306.76 15.3827 307.171 16.996C307.611 18.58 307.728 20.2227 307.523 21.924H290.803ZM310.016 9.252H314.724V13.652H314.812C314.959 13.036 315.237 12.4347 315.648 11.848C316.088 11.2613 316.601 10.7333 317.188 10.264C317.804 9.76533 318.479 9.36933 319.212 9.076C319.945 8.78267 320.693 8.636 321.456 8.636C322.043 8.636 322.439 8.65067 322.644 8.68C322.879 8.70933 323.113 8.73867 323.348 8.768V13.608C322.996 13.5493 322.629 13.5053 322.248 13.476C321.896 13.4173 321.544 13.388 321.192 13.388C320.341 13.388 319.535 13.564 318.772 13.916C318.039 14.2387 317.393 14.7373 316.836 15.412C316.279 16.0573 315.839 16.864 315.516 17.832C315.193 18.8 315.032 19.9147 315.032 21.176V32H310.016V9.252ZM327.949 24.696C328.096 26.1627 328.653 27.1893 329.621 27.776C330.589 28.3627 331.748 28.656 333.097 28.656C333.566 28.656 334.094 28.6267 334.681 28.568C335.297 28.48 335.869 28.3333 336.397 28.128C336.925 27.9227 337.35 27.6293 337.673 27.248C338.025 26.8373 338.186 26.3093 338.157 25.664C338.128 25.0187 337.893 24.4907 337.453 24.08C337.013 23.6693 336.441 23.3467 335.737 23.112C335.062 22.848 334.285 22.628 333.405 22.452C332.525 22.276 331.63 22.0853 330.721 21.88C329.782 21.6747 328.873 21.4253 327.993 21.132C327.142 20.8387 326.365 20.4427 325.661 19.944C324.986 19.4453 324.444 18.8147 324.033 18.052C323.622 17.26 323.417 16.292 323.417 15.148C323.417 13.916 323.71 12.8893 324.297 12.068C324.913 11.2173 325.676 10.5427 326.585 10.044C327.524 9.516 328.55 9.14933 329.665 8.944C330.809 8.73867 331.894 8.636 332.921 8.636C334.094 8.636 335.209 8.768 336.265 9.032C337.35 9.26667 338.318 9.66267 339.169 10.22C340.049 10.7773 340.768 11.5107 341.325 12.42C341.912 13.3 342.278 14.3707 342.425 15.632H337.189C336.954 14.4293 336.397 13.6227 335.517 13.212C334.666 12.8013 333.684 12.596 332.569 12.596C332.217 12.596 331.792 12.6253 331.293 12.684C330.824 12.7427 330.369 12.86 329.929 13.036C329.518 13.1827 329.166 13.4173 328.873 13.74C328.58 14.0333 328.433 14.4293 328.433 14.928C328.433 15.544 328.638 16.0427 329.049 16.424C329.489 16.8053 330.046 17.128 330.721 17.392C331.425 17.6267 332.217 17.832 333.097 18.008C333.977 18.184 334.886 18.3747 335.825 18.58C336.734 18.7853 337.629 19.0347 338.509 19.328C339.389 19.6213 340.166 20.0173 340.841 20.516C341.545 21.0147 342.102 21.6453 342.513 22.408C342.953 23.1707 343.173 24.1093 343.173 25.224C343.173 26.5733 342.865 27.7173 342.249 28.656C341.633 29.5947 340.826 30.3573 339.829 30.944C338.861 31.5307 337.776 31.956 336.573 32.22C335.37 32.484 334.182 32.616 333.009 32.616C331.572 32.616 330.237 32.4547 329.005 32.132C327.802 31.8093 326.746 31.3253 325.837 30.68C324.957 30.0053 324.253 29.184 323.725 28.216C323.226 27.2187 322.962 26.0453 322.933 24.696H327.949ZM356.089 32.616C354.271 32.616 352.643 32.3227 351.205 31.736C349.797 31.12 348.595 30.284 347.597 29.228C346.629 28.172 345.881 26.9107 345.353 25.444C344.855 23.9773 344.605 22.364 344.605 20.604C344.605 18.8733 344.855 17.2747 345.353 15.808C345.881 14.3413 346.629 13.08 347.597 12.024C348.595 10.968 349.797 10.1467 351.205 9.56C352.643 8.944 354.271 8.636 356.089 8.636C357.908 8.636 359.521 8.944 360.929 9.56C362.367 10.1467 363.569 10.968 364.537 12.024C365.535 13.08 366.283 14.3413 366.781 15.808C367.309 17.2747 367.573 18.8733 367.573 20.604C367.573 22.364 367.309 23.9773 366.781 25.444C366.283 26.9107 365.535 28.172 364.537 29.228C363.569 30.284 362.367 31.12 360.929 31.736C359.521 32.3227 357.908 32.616 356.089 32.616ZM356.089 28.656C357.204 28.656 358.172 28.4213 358.993 27.952C359.815 27.4827 360.489 26.8667 361.017 26.104C361.545 25.3413 361.927 24.4907 362.161 23.552C362.425 22.584 362.557 21.6013 362.557 20.604C362.557 19.636 362.425 18.668 362.161 17.7C361.927 16.732 361.545 15.8813 361.017 15.148C360.489 14.3853 359.815 13.7693 358.993 13.3C358.172 12.8307 357.204 12.596 356.089 12.596C354.975 12.596 354.007 12.8307 353.185 13.3C352.364 13.7693 351.689 14.3853 351.161 15.148C350.633 15.8813 350.237 16.732 349.973 17.7C349.739 18.668 349.621 19.636 349.621 20.604C349.621 21.6013 349.739 22.584 349.973 23.552C350.237 24.4907 350.633 25.3413 351.161 26.104C351.689 26.8667 352.364 27.4827 353.185 27.952C354.007 28.4213 354.975 28.656 356.089 28.656ZM370.423 9.252H375.175V12.596L375.263 12.684C376.026 11.4227 377.023 10.44 378.255 9.736C379.487 9.00267 380.851 8.636 382.347 8.636C384.841 8.636 386.806 9.28133 388.243 10.572C389.681 11.8627 390.399 13.7987 390.399 16.38V32H385.383V17.7C385.325 15.9107 384.943 14.62 384.239 13.828C383.535 13.0067 382.435 12.596 380.939 12.596C380.089 12.596 379.326 12.7573 378.651 13.08C377.977 13.3733 377.405 13.7987 376.935 14.356C376.466 14.884 376.099 15.5147 375.835 16.248C375.571 16.9813 375.439 17.7587 375.439 18.58V32H370.423V9.252ZM420.651 16.864C420.446 15.456 419.874 14.4 418.935 13.696C418.026 12.9627 416.867 12.596 415.459 12.596C414.814 12.596 414.124 12.7133 413.391 12.948C412.658 13.1533 411.983 13.564 411.367 14.18C410.751 14.7667 410.238 15.6027 409.827 16.688C409.416 17.744 409.211 19.1373 409.211 20.868C409.211 21.8067 409.314 22.7453 409.519 23.684C409.754 24.6227 410.106 25.4587 410.575 26.192C411.074 26.9253 411.704 27.5267 412.467 27.996C413.23 28.436 414.154 28.656 415.239 28.656C416.706 28.656 417.908 28.2013 418.847 27.292C419.815 26.3827 420.416 25.1067 420.651 23.464H425.667C425.198 26.4267 424.068 28.7 422.279 30.284C420.519 31.8387 418.172 32.616 415.239 32.616C413.45 32.616 411.866 32.3227 410.487 31.736C409.138 31.12 407.994 30.2987 407.055 29.272C406.116 28.216 405.398 26.9693 404.899 25.532C404.43 24.0947 404.195 22.54 404.195 20.868C404.195 19.1667 404.43 17.568 404.899 16.072C405.368 14.576 406.072 13.2853 407.011 12.2C407.95 11.0853 409.108 10.22 410.487 9.604C411.895 8.95867 413.538 8.636 415.415 8.636C416.735 8.636 417.982 8.812 419.155 9.164C420.358 9.48667 421.414 9.98533 422.323 10.66C423.262 11.3347 424.024 12.1853 424.611 13.212C425.198 14.2387 425.55 15.456 425.667 16.864H420.651ZM438.852 32.616C437.034 32.616 435.406 32.3227 433.968 31.736C432.56 31.12 431.358 30.284 430.36 29.228C429.392 28.172 428.644 26.9107 428.116 25.444C427.618 23.9773 427.368 22.364 427.368 20.604C427.368 18.8733 427.618 17.2747 428.116 15.808C428.644 14.3413 429.392 13.08 430.36 12.024C431.358 10.968 432.56 10.1467 433.968 9.56C435.406 8.944 437.034 8.636 438.852 8.636C440.671 8.636 442.284 8.944 443.692 9.56C445.13 10.1467 446.332 10.968 447.3 12.024C448.298 13.08 449.046 14.3413 449.544 15.808C450.072 17.2747 450.336 18.8733 450.336 20.604C450.336 22.364 450.072 23.9773 449.544 25.444C449.046 26.9107 448.298 28.172 447.3 29.228C446.332 30.284 445.13 31.12 443.692 31.736C442.284 32.3227 440.671 32.616 438.852 32.616ZM438.852 28.656C439.967 28.656 440.935 28.4213 441.756 27.952C442.578 27.4827 443.252 26.8667 443.78 26.104C444.308 25.3413 444.69 24.4907 444.924 23.552C445.188 22.584 445.32 21.6013 445.32 20.604C445.32 19.636 445.188 18.668 444.924 17.7C444.69 16.732 444.308 15.8813 443.78 15.148C443.252 14.3853 442.578 13.7693 441.756 13.3C440.935 12.8307 439.967 12.596 438.852 12.596C437.738 12.596 436.77 12.8307 435.948 13.3C435.127 13.7693 434.452 14.3853 433.924 15.148C433.396 15.8813 433 16.732 432.736 17.7C432.502 18.668 432.384 19.636 432.384 20.604C432.384 21.6013 432.502 22.584 432.736 23.552C433 24.4907 433.396 25.3413 433.924 26.104C434.452 26.8667 435.127 27.4827 435.948 27.952C436.77 28.4213 437.738 28.656 438.852 28.656ZM453.186 9.252H457.938V12.42H458.07C458.452 11.8627 458.862 11.3493 459.302 10.88C459.742 10.4107 460.226 10.0147 460.754 9.692C461.312 9.36933 461.942 9.12 462.646 8.944C463.35 8.73867 464.157 8.636 465.066 8.636C466.445 8.636 467.721 8.944 468.894 9.56C470.097 10.176 470.948 11.1293 471.446 12.42C472.297 11.2467 473.28 10.3227 474.394 9.648C475.509 8.97333 476.902 8.636 478.574 8.636C480.98 8.636 482.842 9.22267 484.162 10.396C485.512 11.5693 486.186 13.5347 486.186 16.292V32H481.17V18.712C481.17 17.8027 481.141 16.9813 481.082 16.248C481.024 15.4853 480.848 14.84 480.554 14.312C480.29 13.7547 479.88 13.3293 479.322 13.036C478.765 12.7427 478.002 12.596 477.034 12.596C475.333 12.596 474.101 13.124 473.338 14.18C472.576 15.236 472.194 16.732 472.194 18.668V32H467.178V17.392C467.178 15.808 466.885 14.62 466.298 13.828C465.741 13.0067 464.7 12.596 463.174 12.596C462.529 12.596 461.898 12.728 461.282 12.992C460.696 13.256 460.168 13.6373 459.698 14.136C459.258 14.6347 458.892 15.2507 458.598 15.984C458.334 16.7173 458.202 17.5533 458.202 18.492V32H453.186V9.252ZM505.771 18.624C505.713 17.832 505.537 17.0693 505.243 16.336C504.979 15.6027 504.598 14.972 504.099 14.444C503.63 13.8867 503.043 13.4467 502.339 13.124C501.665 12.772 500.902 12.596 500.051 12.596C499.171 12.596 498.365 12.7573 497.631 13.08C496.927 13.3733 496.311 13.7987 495.783 14.356C495.285 14.884 494.874 15.5147 494.551 16.248C494.258 16.9813 494.097 17.7733 494.067 18.624H505.771ZM494.067 21.924C494.067 22.804 494.185 23.6547 494.419 24.476C494.683 25.2973 495.065 26.016 495.563 26.632C496.062 27.248 496.693 27.7467 497.455 28.128C498.218 28.48 499.127 28.656 500.183 28.656C501.65 28.656 502.823 28.348 503.703 27.732C504.613 27.0867 505.287 26.1333 505.727 24.872H510.479C510.215 26.104 509.761 27.204 509.115 28.172C508.47 29.14 507.693 29.9613 506.783 30.636C505.874 31.2813 504.847 31.7653 503.703 32.088C502.589 32.44 501.415 32.616 500.183 32.616C498.394 32.616 496.81 32.3227 495.431 31.736C494.053 31.1493 492.879 30.328 491.911 29.272C490.973 28.216 490.254 26.9547 489.755 25.488C489.286 24.0213 489.051 22.408 489.051 20.648C489.051 19.0347 489.301 17.5093 489.799 16.072C490.327 14.6053 491.061 13.3293 491.999 12.244C492.967 11.1293 494.126 10.2493 495.475 9.604C496.825 8.95867 498.35 8.636 500.051 8.636C501.841 8.636 503.439 9.01733 504.847 9.78C506.285 10.5133 507.473 11.496 508.411 12.728C509.35 13.96 510.025 15.3827 510.435 16.996C510.875 18.58 510.993 20.2227 510.787 21.924H494.067ZM517.065 24.696C517.211 26.1627 517.769 27.1893 518.737 27.776C519.705 28.3627 520.863 28.656 522.213 28.656C522.682 28.656 523.21 28.6267 523.797 28.568C524.413 28.48 524.985 28.3333 525.513 28.128C526.041 27.9227 526.466 27.6293 526.789 27.248C527.141 26.8373 527.302 26.3093 527.273 25.664C527.243 25.0187 527.009 24.4907 526.569 24.08C526.129 23.6693 525.557 23.3467 524.853 23.112C524.178 22.848 523.401 22.628 522.521 22.452C521.641 22.276 520.746 22.0853 519.837 21.88C518.898 21.6747 517.989 21.4253 517.109 21.132C516.258 20.8387 515.481 20.4427 514.777 19.944C514.102 19.4453 513.559 18.8147 513.149 18.052C512.738 17.26 512.533 16.292 512.533 15.148C512.533 13.916 512.826 12.8893 513.413 12.068C514.029 11.2173 514.791 10.5427 515.701 10.044C516.639 9.516 517.666 9.14933 518.781 8.944C519.925 8.73867 521.01 8.636 522.037 8.636C523.21 8.636 524.325 8.768 525.381 9.032C526.466 9.26667 527.434 9.66267 528.285 10.22C529.165 10.7773 529.883 11.5107 530.441 12.42C531.027 13.3 531.394 14.3707 531.541 15.632H526.305C526.07 14.4293 525.513 13.6227 524.633 13.212C523.782 12.8013 522.799 12.596 521.685 12.596C521.333 12.596 520.907 12.6253 520.409 12.684C519.939 12.7427 519.485 12.86 519.045 13.036C518.634 13.1827 518.282 13.4173 517.989 13.74C517.695 14.0333 517.549 14.4293 517.549 14.928C517.549 15.544 517.754 16.0427 518.165 16.424C518.605 16.8053 519.162 17.128 519.837 17.392C520.541 17.6267 521.333 17.832 522.213 18.008C523.093 18.184 524.002 18.3747 524.941 18.58C525.85 18.7853 526.745 19.0347 527.625 19.328C528.505 19.6213 529.282 20.0173 529.957 20.516C530.661 21.0147 531.218 21.6453 531.629 22.408C532.069 23.1707 532.289 24.1093 532.289 25.224C532.289 26.5733 531.981 27.7173 531.365 28.656C530.749 29.5947 529.942 30.3573 528.945 30.944C527.977 31.5307 526.891 31.956 525.689 32.22C524.486 32.484 523.298 32.616 522.125 32.616C520.687 32.616 519.353 32.4547 518.121 32.132C516.918 31.8093 515.862 31.3253 514.953 30.68C514.073 30.0053 513.369 29.184 512.841 28.216C512.342 27.2187 512.078 26.0453 512.049 24.696H517.065ZM564.755 26.94C564.755 27.556 564.828 27.996 564.975 28.26C565.151 28.524 565.474 28.656 565.943 28.656C566.09 28.656 566.266 28.656 566.471 28.656C566.676 28.656 566.911 28.6267 567.175 28.568V32.044C566.999 32.1027 566.764 32.1613 566.471 32.22C566.207 32.308 565.928 32.3813 565.635 32.44C565.342 32.4987 565.048 32.5427 564.755 32.572C564.462 32.6013 564.212 32.616 564.007 32.616C562.98 32.616 562.13 32.4107 561.455 32C560.78 31.5893 560.34 30.8707 560.135 29.844C559.138 30.812 557.906 31.516 556.439 31.956C555.002 32.396 553.608 32.616 552.259 32.616C551.232 32.616 550.25 32.4693 549.311 32.176C548.372 31.912 547.536 31.516 546.803 30.988C546.099 30.4307 545.527 29.7413 545.087 28.92C544.676 28.0693 544.471 27.0867 544.471 25.972C544.471 24.564 544.72 23.42 545.219 22.54C545.747 21.66 546.422 20.9707 547.243 20.472C548.094 19.9733 549.032 19.6213 550.059 19.416C551.115 19.1813 552.171 19.0053 553.227 18.888C554.136 18.712 555.002 18.5947 555.823 18.536C556.644 18.448 557.363 18.316 557.979 18.14C558.624 17.964 559.123 17.7 559.475 17.348C559.856 16.9667 560.047 16.4093 560.047 15.676C560.047 15.0307 559.886 14.5027 559.563 14.092C559.27 13.6813 558.888 13.3733 558.419 13.168C557.979 12.9333 557.48 12.7867 556.923 12.728C556.366 12.64 555.838 12.596 555.339 12.596C553.931 12.596 552.772 12.8893 551.863 13.476C550.954 14.0627 550.44 14.972 550.323 16.204H545.307C545.395 14.7373 545.747 13.52 546.363 12.552C546.979 11.584 547.756 10.8067 548.695 10.22C549.663 9.63333 550.748 9.22267 551.951 8.988C553.154 8.75333 554.386 8.636 555.647 8.636C556.762 8.636 557.862 8.75333 558.947 8.988C560.032 9.22267 561 9.604 561.851 10.132C562.731 10.66 563.435 11.3493 563.963 12.2C564.491 13.0213 564.755 14.0333 564.755 15.236V26.94ZM559.739 20.604C558.976 21.1027 558.038 21.4107 556.923 21.528C555.808 21.616 554.694 21.7627 553.579 21.968C553.051 22.056 552.538 22.188 552.039 22.364C551.54 22.5107 551.1 22.7307 550.719 23.024C550.338 23.288 550.03 23.6547 549.795 24.124C549.59 24.564 549.487 25.1067 549.487 25.752C549.487 26.3093 549.648 26.7787 549.971 27.16C550.294 27.5413 550.675 27.8493 551.115 28.084C551.584 28.2893 552.083 28.436 552.611 28.524C553.168 28.612 553.667 28.656 554.107 28.656C554.664 28.656 555.266 28.5827 555.911 28.436C556.556 28.2893 557.158 28.04 557.715 27.688C558.302 27.336 558.786 26.896 559.167 26.368C559.548 25.8107 559.739 25.136 559.739 24.344V20.604ZM566.764 9.252H572.088L576.532 26.236H576.62L580.888 9.252H585.948L590.04 26.236H590.128L594.748 9.252H599.852L592.724 32H587.576L583.352 15.104H583.264L579.084 32H573.804L566.764 9.252ZM620.81 26.94C620.81 27.556 620.884 27.996 621.03 28.26C621.206 28.524 621.529 28.656 621.998 28.656C622.145 28.656 622.321 28.656 622.526 28.656C622.732 28.656 622.966 28.6267 623.23 28.568V32.044C623.054 32.1027 622.82 32.1613 622.526 32.22C622.262 32.308 621.984 32.3813 621.69 32.44C621.397 32.4987 621.104 32.5427 620.81 32.572C620.517 32.6013 620.268 32.616 620.062 32.616C619.036 32.616 618.185 32.4107 617.51 32C616.836 31.5893 616.396 30.8707 616.19 29.844C615.193 30.812 613.961 31.516 612.494 31.956C611.057 32.396 609.664 32.616 608.314 32.616C607.288 32.616 606.305 32.4693 605.366 32.176C604.428 31.912 603.592 31.516 602.858 30.988C602.154 30.4307 601.582 29.7413 601.142 28.92C600.732 28.0693 600.526 27.0867 600.526 25.972C600.526 24.564 600.776 23.42 601.274 22.54C601.802 21.66 602.477 20.9707 603.298 20.472C604.149 19.9733 605.088 19.6213 606.114 19.416C607.17 19.1813 608.226 19.0053 609.282 18.888C610.192 18.712 611.057 18.5947 611.878 18.536C612.7 18.448 613.418 18.316 614.034 18.14C614.68 17.964 615.178 17.7 615.53 17.348C615.912 16.9667 616.102 16.4093 616.102 15.676C616.102 15.0307 615.941 14.5027 615.618 14.092C615.325 13.6813 614.944 13.3733 614.474 13.168C614.034 12.9333 613.536 12.7867 612.978 12.728C612.421 12.64 611.893 12.596 611.394 12.596C609.986 12.596 608.828 12.8893 607.918 13.476C607.009 14.0627 606.496 14.972 606.378 16.204H601.362C601.45 14.7373 601.802 13.52 602.418 12.552C603.034 11.584 603.812 10.8067 604.75 10.22C605.718 9.63333 606.804 9.22267 608.006 8.988C609.209 8.75333 610.441 8.636 611.702 8.636C612.817 8.636 613.917 8.75333 615.002 8.988C616.088 9.22267 617.056 9.604 617.906 10.132C618.786 10.66 619.49 11.3493 620.018 12.2C620.546 13.0213 620.81 14.0333 620.81 15.236V26.94ZM615.794 20.604C615.032 21.1027 614.093 21.4107 612.978 21.528C611.864 21.616 610.749 21.7627 609.634 21.968C609.106 22.056 608.593 22.188 608.094 22.364C607.596 22.5107 607.156 22.7307 606.774 23.024C606.393 23.288 606.085 23.6547 605.85 24.124C605.645 24.564 605.542 25.1067 605.542 25.752C605.542 26.3093 605.704 26.7787 606.026 27.16C606.349 27.5413 606.73 27.8493 607.17 28.084C607.64 28.2893 608.138 28.436 608.666 28.524C609.224 28.612 609.722 28.656 610.162 28.656C610.72 28.656 611.321 28.5827 611.966 28.436C612.612 28.2893 613.213 28.04 613.77 27.688C614.357 27.336 614.841 26.896 615.222 26.368C615.604 25.8107 615.794 25.136 615.794 24.344V20.604ZM622.38 9.252H627.88L633.82 26.236H633.908L639.672 9.252H644.908L636.064 33.232C635.653 34.2587 635.242 35.2413 634.832 36.18C634.45 37.1187 633.966 37.94 633.38 38.644C632.822 39.3773 632.118 39.9493 631.268 40.36C630.417 40.8 629.332 41.02 628.012 41.02C626.838 41.02 625.68 40.932 624.536 40.756V36.532C624.946 36.5907 625.342 36.6493 625.724 36.708C626.105 36.796 626.501 36.84 626.912 36.84C627.498 36.84 627.982 36.7667 628.364 36.62C628.745 36.4733 629.053 36.2533 629.288 35.96C629.552 35.696 629.772 35.3733 629.948 34.992C630.124 34.6107 630.285 34.1707 630.432 33.672L631.004 31.912L622.38 9.252ZM676.362 26.94C676.362 27.556 676.436 27.996 676.582 28.26C676.758 28.524 677.081 28.656 677.55 28.656C677.697 28.656 677.873 28.656 678.078 28.656C678.284 28.656 678.518 28.6267 678.782 28.568V32.044C678.606 32.1027 678.372 32.1613 678.078 32.22C677.814 32.308 677.535 32.3813 677.242 32.44C676.949 32.4987 676.656 32.5427 676.362 32.572C676.069 32.6013 675.819 32.616 675.614 32.616C674.587 32.616 673.737 32.4107 673.062 32C672.387 31.5893 671.947 30.8707 671.742 29.844C670.745 30.812 669.513 31.516 668.046 31.956C666.609 32.396 665.216 32.616 663.866 32.616C662.839 32.616 661.857 32.4693 660.918 32.176C659.979 31.912 659.143 31.516 658.41 30.988C657.706 30.4307 657.134 29.7413 656.694 28.92C656.283 28.0693 656.078 27.0867 656.078 25.972C656.078 24.564 656.327 23.42 656.826 22.54C657.354 21.66 658.029 20.9707 658.85 20.472C659.701 19.9733 660.639 19.6213 661.666 19.416C662.722 19.1813 663.778 19.0053 664.834 18.888C665.744 18.712 666.609 18.5947 667.43 18.536C668.252 18.448 668.97 18.316 669.586 18.14C670.232 17.964 670.73 17.7 671.082 17.348C671.463 16.9667 671.654 16.4093 671.654 15.676C671.654 15.0307 671.493 14.5027 671.17 14.092C670.877 13.6813 670.495 13.3733 670.026 13.168C669.586 12.9333 669.088 12.7867 668.53 12.728C667.973 12.64 667.445 12.596 666.946 12.596C665.538 12.596 664.379 12.8893 663.47 13.476C662.561 14.0627 662.047 14.972 661.93 16.204H656.914C657.002 14.7373 657.354 13.52 657.97 12.552C658.586 11.584 659.363 10.8067 660.302 10.22C661.27 9.63333 662.355 9.22267 663.558 8.988C664.761 8.75333 665.993 8.636 667.254 8.636C668.369 8.636 669.469 8.75333 670.554 8.988C671.64 9.22267 672.608 9.604 673.458 10.132C674.338 10.66 675.042 11.3493 675.57 12.2C676.098 13.0213 676.362 14.0333 676.362 15.236V26.94ZM671.346 20.604C670.583 21.1027 669.645 21.4107 668.53 21.528C667.416 21.616 666.301 21.7627 665.186 21.968C664.658 22.056 664.145 22.188 663.646 22.364C663.147 22.5107 662.707 22.7307 662.326 23.024C661.945 23.288 661.637 23.6547 661.402 24.124C661.197 24.564 661.094 25.1067 661.094 25.752C661.094 26.3093 661.255 26.7787 661.578 27.16C661.901 27.5413 662.282 27.8493 662.722 28.084C663.192 28.2893 663.69 28.436 664.218 28.524C664.775 28.612 665.274 28.656 665.714 28.656C666.271 28.656 666.873 28.5827 667.518 28.436C668.164 28.2893 668.765 28.04 669.322 27.688C669.909 27.336 670.393 26.896 670.774 26.368C671.155 25.8107 671.346 25.136 671.346 24.344V20.604ZM680.439 9.252H685.191V12.596L685.279 12.684C686.042 11.4227 687.039 10.44 688.271 9.736C689.503 9.00267 690.867 8.636 692.363 8.636C694.857 8.636 696.822 9.28133 698.259 10.572C699.697 11.8627 700.415 13.7987 700.415 16.38V32H695.399V17.7C695.341 15.9107 694.959 14.62 694.255 13.828C693.551 13.0067 692.451 12.596 690.955 12.596C690.105 12.596 689.342 12.7573 688.667 13.08C687.993 13.3733 687.421 13.7987 686.951 14.356C686.482 14.884 686.115 15.5147 685.851 16.248C685.587 16.9813 685.455 17.7587 685.455 18.58V32H680.439V9.252ZM725.813 32H721.061V28.92H720.973C720.298 30.24 719.316 31.1933 718.025 31.78C716.734 32.3373 715.37 32.616 713.933 32.616C712.144 32.616 710.574 32.308 709.225 31.692C707.905 31.0467 706.805 30.1813 705.925 29.096C705.045 28.0107 704.385 26.7347 703.945 25.268C703.505 23.772 703.285 22.1733 703.285 20.472C703.285 18.4187 703.564 16.644 704.121 15.148C704.678 13.652 705.412 12.42 706.321 11.452C707.26 10.484 708.316 9.78 709.489 9.34C710.692 8.87067 711.909 8.636 713.141 8.636C713.845 8.636 714.564 8.70933 715.297 8.856C716.03 8.97333 716.734 9.17867 717.409 9.472C718.084 9.76533 718.7 10.1467 719.257 10.616C719.844 11.056 720.328 11.584 720.709 12.2H720.797V0.583998H725.813V32ZM708.301 20.868C708.301 21.836 708.418 22.7893 708.653 23.728C708.917 24.6667 709.298 25.5027 709.797 26.236C710.325 26.9693 710.985 27.556 711.777 27.996C712.569 28.436 713.508 28.656 714.593 28.656C715.708 28.656 716.661 28.4213 717.453 27.952C718.274 27.4827 718.934 26.8667 719.433 26.104C719.961 25.3413 720.342 24.4907 720.577 23.552C720.841 22.584 720.973 21.6013 720.973 20.604C720.973 18.0813 720.401 16.116 719.257 14.708C718.142 13.3 716.617 12.596 714.681 12.596C713.508 12.596 712.51 12.8453 711.689 13.344C710.897 13.8133 710.237 14.444 709.709 15.236C709.21 15.9987 708.844 16.8787 708.609 17.876C708.404 18.844 708.301 19.8413 708.301 20.868ZM744.674 24.696C744.82 26.1627 745.378 27.1893 746.346 27.776C747.314 28.3627 748.472 28.656 749.822 28.656C750.291 28.656 750.819 28.6267 751.406 28.568C752.022 28.48 752.594 28.3333 753.122 28.128C753.65 27.9227 754.075 27.6293 754.398 27.248C754.75 26.8373 754.911 26.3093 754.882 25.664C754.852 25.0187 754.618 24.4907 754.178 24.08C753.738 23.6693 753.166 23.3467 752.462 23.112C751.787 22.848 751.01 22.628 750.13 22.452C749.25 22.276 748.355 22.0853 747.446 21.88C746.507 21.6747 745.598 21.4253 744.718 21.132C743.867 20.8387 743.09 20.4427 742.386 19.944C741.711 19.4453 741.168 18.8147 740.758 18.052C740.347 17.26 740.142 16.292 740.142 15.148C740.142 13.916 740.435 12.8893 741.022 12.068C741.638 11.2173 742.4 10.5427 743.31 10.044C744.248 9.516 745.275 9.14933 746.39 8.944C747.534 8.73867 748.619 8.636 749.646 8.636C750.819 8.636 751.934 8.768 752.99 9.032C754.075 9.26667 755.043 9.66267 755.894 10.22C756.774 10.7773 757.492 11.5107 758.05 12.42C758.636 13.3 759.003 14.3707 759.15 15.632H753.914C753.679 14.4293 753.122 13.6227 752.242 13.212C751.391 12.8013 750.408 12.596 749.294 12.596C748.942 12.596 748.516 12.6253 748.018 12.684C747.548 12.7427 747.094 12.86 746.654 13.036C746.243 13.1827 745.891 13.4173 745.598 13.74C745.304 14.0333 745.158 14.4293 745.158 14.928C745.158 15.544 745.363 16.0427 745.774 16.424C746.214 16.8053 746.771 17.128 747.446 17.392C748.15 17.6267 748.942 17.832 749.822 18.008C750.702 18.184 751.611 18.3747 752.55 18.58C753.459 18.7853 754.354 19.0347 755.234 19.328C756.114 19.6213 756.891 20.0173 757.566 20.516C758.27 21.0147 758.827 21.6453 759.238 22.408C759.678 23.1707 759.898 24.1093 759.898 25.224C759.898 26.5733 759.59 27.7173 758.974 28.656C758.358 29.5947 757.551 30.3573 756.554 30.944C755.586 31.5307 754.5 31.956 753.298 32.22C752.095 32.484 750.907 32.616 749.734 32.616C748.296 32.616 746.962 32.4547 745.73 32.132C744.527 31.8093 743.471 31.3253 742.562 30.68C741.682 30.0053 740.978 29.184 740.45 28.216C739.951 27.2187 739.687 26.0453 739.658 24.696H744.674ZM781.438 26.94C781.438 27.556 781.511 27.996 781.658 28.26C781.834 28.524 782.157 28.656 782.626 28.656C782.773 28.656 782.949 28.656 783.154 28.656C783.359 28.656 783.594 28.6267 783.858 28.568V32.044C783.682 32.1027 783.447 32.1613 783.154 32.22C782.89 32.308 782.611 32.3813 782.318 32.44C782.025 32.4987 781.731 32.5427 781.438 32.572C781.145 32.6013 780.895 32.616 780.69 32.616C779.663 32.616 778.813 32.4107 778.138 32C777.463 31.5893 777.023 30.8707 776.818 29.844C775.821 30.812 774.589 31.516 773.122 31.956C771.685 32.396 770.291 32.616 768.942 32.616C767.915 32.616 766.933 32.4693 765.994 32.176C765.055 31.912 764.219 31.516 763.486 30.988C762.782 30.4307 762.21 29.7413 761.77 28.92C761.359 28.0693 761.154 27.0867 761.154 25.972C761.154 24.564 761.403 23.42 761.902 22.54C762.43 21.66 763.105 20.9707 763.926 20.472C764.777 19.9733 765.715 19.6213 766.742 19.416C767.798 19.1813 768.854 19.0053 769.91 18.888C770.819 18.712 771.685 18.5947 772.506 18.536C773.327 18.448 774.046 18.316 774.662 18.14C775.307 17.964 775.806 17.7 776.158 17.348C776.539 16.9667 776.73 16.4093 776.73 15.676C776.73 15.0307 776.569 14.5027 776.246 14.092C775.953 13.6813 775.571 13.3733 775.102 13.168C774.662 12.9333 774.163 12.7867 773.606 12.728C773.049 12.64 772.521 12.596 772.022 12.596C770.614 12.596 769.455 12.8893 768.546 13.476C767.637 14.0627 767.123 14.972 767.006 16.204H761.99C762.078 14.7373 762.43 13.52 763.046 12.552C763.662 11.584 764.439 10.8067 765.378 10.22C766.346 9.63333 767.431 9.22267 768.634 8.988C769.837 8.75333 771.069 8.636 772.33 8.636C773.445 8.636 774.545 8.75333 775.63 8.988C776.715 9.22267 777.683 9.604 778.534 10.132C779.414 10.66 780.118 11.3493 780.646 12.2C781.174 13.0213 781.438 14.0333 781.438 15.236V26.94ZM776.422 20.604C775.659 21.1027 774.721 21.4107 773.606 21.528C772.491 21.616 771.377 21.7627 770.262 21.968C769.734 22.056 769.221 22.188 768.722 22.364C768.223 22.5107 767.783 22.7307 767.402 23.024C767.021 23.288 766.713 23.6547 766.478 24.124C766.273 24.564 766.17 25.1067 766.17 25.752C766.17 26.3093 766.331 26.7787 766.654 27.16C766.977 27.5413 767.358 27.8493 767.798 28.084C768.267 28.2893 768.766 28.436 769.294 28.524C769.851 28.612 770.35 28.656 770.79 28.656C771.347 28.656 771.949 28.5827 772.594 28.436C773.239 28.2893 773.841 28.04 774.398 27.688C774.985 27.336 775.469 26.896 775.85 26.368C776.231 25.8107 776.422 25.136 776.422 24.344V20.604ZM783.007 9.252H788.507L794.447 26.236H794.535L800.299 9.252H805.535L796.691 33.232C796.281 34.2587 795.87 35.2413 795.459 36.18C795.078 37.1187 794.594 37.94 794.007 38.644C793.45 39.3773 792.746 39.9493 791.895 40.36C791.045 40.8 789.959 41.02 788.639 41.02C787.466 41.02 786.307 40.932 785.163 40.756V36.532C785.574 36.5907 785.97 36.6493 786.351 36.708C786.733 36.796 787.129 36.84 787.539 36.84C788.126 36.84 788.61 36.7667 788.991 36.62C789.373 36.4733 789.681 36.2533 789.915 35.96C790.179 35.696 790.399 35.3733 790.575 34.992C790.751 34.6107 790.913 34.1707 791.059 33.672L791.631 31.912L783.007 9.252ZM810.796 24.696C810.942 26.1627 811.5 27.1893 812.468 27.776C813.436 28.3627 814.594 28.656 815.944 28.656C816.413 28.656 816.941 28.6267 817.528 28.568C818.144 28.48 818.716 28.3333 819.244 28.128C819.772 27.9227 820.197 27.6293 820.52 27.248C820.872 26.8373 821.033 26.3093 821.004 25.664C820.974 25.0187 820.74 24.4907 820.3 24.08C819.86 23.6693 819.288 23.3467 818.584 23.112C817.909 22.848 817.132 22.628 816.252 22.452C815.372 22.276 814.477 22.0853 813.568 21.88C812.629 21.6747 811.72 21.4253 810.84 21.132C809.989 20.8387 809.212 20.4427 808.508 19.944C807.833 19.4453 807.29 18.8147 806.88 18.052C806.469 17.26 806.264 16.292 806.264 15.148C806.264 13.916 806.557 12.8893 807.144 12.068C807.76 11.2173 808.522 10.5427 809.432 10.044C810.37 9.516 811.397 9.14933 812.512 8.944C813.656 8.73867 814.741 8.636 815.768 8.636C816.941 8.636 818.056 8.768 819.112 9.032C820.197 9.26667 821.165 9.66267 822.016 10.22C822.896 10.7773 823.614 11.5107 824.172 12.42C824.758 13.3 825.125 14.3707 825.272 15.632H820.036C819.801 14.4293 819.244 13.6227 818.364 13.212C817.513 12.8013 816.53 12.596 815.416 12.596C815.064 12.596 814.638 12.6253 814.14 12.684C813.67 12.7427 813.216 12.86 812.776 13.036C812.365 13.1827 812.013 13.4173 811.72 13.74C811.426 14.0333 811.28 14.4293 811.28 14.928C811.28 15.544 811.485 16.0427 811.896 16.424C812.336 16.8053 812.893 17.128 813.568 17.392C814.272 17.6267 815.064 17.832 815.944 18.008C816.824 18.184 817.733 18.3747 818.672 18.58C819.581 18.7853 820.476 19.0347 821.356 19.328C822.236 19.6213 823.013 20.0173 823.688 20.516C824.392 21.0147 824.949 21.6453 825.36 22.408C825.8 23.1707 826.02 24.1093 826.02 25.224C826.02 26.5733 825.712 27.7173 825.096 28.656C824.48 29.5947 823.673 30.3573 822.676 30.944C821.708 31.5307 820.622 31.956 819.42 32.22C818.217 32.484 817.029 32.616 815.856 32.616C814.418 32.616 813.084 32.4547 811.852 32.132C810.649 31.8093 809.593 31.3253 808.684 30.68C807.804 30.0053 807.1 29.184 806.572 28.216C806.073 27.2187 805.809 26.0453 805.78 24.696H810.796ZM838.95 17.656H851.754V22.408H838.95V17.656ZM0.572 57.252H5.896L10.34 74.236H10.428L14.696 57.252H19.756L23.848 74.236H23.936L28.556 57.252H33.66L26.532 80H21.384L17.16 63.104H17.072L12.892 80H7.612L0.572 57.252ZM45.9941 80.616C44.1754 80.616 42.5474 80.3227 41.1101 79.736C39.7021 79.12 38.4994 78.284 37.5021 77.228C36.5341 76.172 35.7861 74.9107 35.2581 73.444C34.7594 71.9773 34.5101 70.364 34.5101 68.604C34.5101 66.8733 34.7594 65.2747 35.2581 63.808C35.7861 62.3413 36.5341 61.08 37.5021 60.024C38.4994 58.968 39.7021 58.1467 41.1101 57.56C42.5474 56.944 44.1754 56.636 45.9941 56.636C47.8128 56.636 49.4261 56.944 50.8341 57.56C52.2714 58.1467 53.4741 58.968 54.4421 60.024C55.4394 61.08 56.1874 62.3413 56.6861 63.808C57.2141 65.2747 57.4781 66.8733 57.4781 68.604C57.4781 70.364 57.2141 71.9773 56.6861 73.444C56.1874 74.9107 55.4394 76.172 54.4421 77.228C53.4741 78.284 52.2714 79.12 50.8341 79.736C49.4261 80.3227 47.8128 80.616 45.9941 80.616ZM45.9941 76.656C47.1088 76.656 48.0768 76.4213 48.8981 75.952C49.7194 75.4827 50.3941 74.8667 50.9221 74.104C51.4501 73.3413 51.8314 72.4907 52.0661 71.552C52.3301 70.584 52.4621 69.6013 52.4621 68.604C52.4621 67.636 52.3301 66.668 52.0661 65.7C51.8314 64.732 51.4501 63.8813 50.9221 63.148C50.3941 62.3853 49.7194 61.7693 48.8981 61.3C48.0768 60.8307 47.1088 60.596 45.9941 60.596C44.8794 60.596 43.9114 60.8307 43.0901 61.3C42.2688 61.7693 41.5941 62.3853 41.0661 63.148C40.5381 63.8813 40.1421 64.732 39.8781 65.7C39.6434 66.668 39.5261 67.636 39.5261 68.604C39.5261 69.6013 39.6434 70.584 39.8781 71.552C40.1421 72.4907 40.5381 73.3413 41.0661 74.104C41.5941 74.8667 42.2688 75.4827 43.0901 75.952C43.9114 76.4213 44.8794 76.656 45.9941 76.656ZM58.2601 57.252H63.5841L68.0281 74.236H68.1161L72.3841 57.252H77.4441L81.5361 74.236H81.6241L86.2441 57.252H91.3481L84.2201 80H79.0721L74.8481 63.104H74.7601L70.5801 80H65.3001L58.2601 57.252ZM101.892 57.252H105.676V50.432H110.692V57.252H115.224V60.992H110.692V73.136C110.692 73.664 110.707 74.1187 110.736 74.5C110.795 74.8813 110.898 75.204 111.044 75.468C111.22 75.732 111.47 75.9373 111.792 76.084C112.115 76.2013 112.555 76.26 113.112 76.26C113.464 76.26 113.816 76.26 114.168 76.26C114.52 76.2307 114.872 76.172 115.224 76.084V79.956C114.667 80.0147 114.124 80.0733 113.596 80.132C113.068 80.1907 112.526 80.22 111.968 80.22C110.648 80.22 109.578 80.1027 108.756 79.868C107.964 79.604 107.334 79.2373 106.864 78.768C106.424 78.2693 106.116 77.6533 105.94 76.92C105.794 76.1867 105.706 75.3507 105.676 74.412V60.992H101.892V57.252ZM117.513 48.584H122.529V60.244H122.617C123.233 59.2173 124.142 58.3667 125.345 57.692C126.577 56.988 127.941 56.636 129.437 56.636C131.93 56.636 133.895 57.2813 135.333 58.572C136.77 59.8627 137.489 61.7987 137.489 64.38V80H132.473V65.7C132.414 63.9107 132.033 62.62 131.329 61.828C130.625 61.0067 129.525 60.596 128.029 60.596C127.178 60.596 126.415 60.7573 125.741 61.08C125.066 61.3733 124.494 61.7987 124.025 62.356C123.555 62.884 123.189 63.5147 122.925 64.248C122.661 64.9813 122.529 65.7587 122.529 66.58V80H117.513V48.584ZM160.51 74.94C160.51 75.556 160.584 75.996 160.73 76.26C160.906 76.524 161.229 76.656 161.698 76.656C161.845 76.656 162.021 76.656 162.226 76.656C162.432 76.656 162.666 76.6267 162.93 76.568V80.044C162.754 80.1027 162.52 80.1613 162.226 80.22C161.962 80.308 161.684 80.3813 161.39 80.44C161.097 80.4987 160.804 80.5427 160.51 80.572C160.217 80.6013 159.968 80.616 159.762 80.616C158.736 80.616 157.885 80.4107 157.21 80C156.536 79.5893 156.096 78.8707 155.89 77.844C154.893 78.812 153.661 79.516 152.194 79.956C150.757 80.396 149.364 80.616 148.014 80.616C146.988 80.616 146.005 80.4693 145.066 80.176C144.128 79.912 143.292 79.516 142.558 78.988C141.854 78.4307 141.282 77.7413 140.842 76.92C140.432 76.0693 140.226 75.0867 140.226 73.972C140.226 72.564 140.476 71.42 140.974 70.54C141.502 69.66 142.177 68.9707 142.998 68.472C143.849 67.9733 144.788 67.6213 145.814 67.416C146.87 67.1813 147.926 67.0053 148.982 66.888C149.892 66.712 150.757 66.5947 151.578 66.536C152.4 66.448 153.118 66.316 153.734 66.14C154.38 65.964 154.878 65.7 155.23 65.348C155.612 64.9667 155.802 64.4093 155.802 63.676C155.802 63.0307 155.641 62.5027 155.318 62.092C155.025 61.6813 154.644 61.3733 154.174 61.168C153.734 60.9333 153.236 60.7867 152.678 60.728C152.121 60.64 151.593 60.596 151.094 60.596C149.686 60.596 148.528 60.8893 147.618 61.476C146.709 62.0627 146.196 62.972 146.078 64.204H141.062C141.15 62.7373 141.502 61.52 142.118 60.552C142.734 59.584 143.512 58.8067 144.45 58.22C145.418 57.6333 146.504 57.2227 147.706 56.988C148.909 56.7533 150.141 56.636 151.402 56.636C152.517 56.636 153.617 56.7533 154.702 56.988C155.788 57.2227 156.756 57.604 157.606 58.132C158.486 58.66 159.19 59.3493 159.718 60.2C160.246 61.0213 160.51 62.0333 160.51 63.236V74.94ZM155.494 68.604C154.732 69.1027 153.793 69.4107 152.678 69.528C151.564 69.616 150.449 69.7627 149.334 69.968C148.806 70.056 148.293 70.188 147.794 70.364C147.296 70.5107 146.856 70.7307 146.474 71.024C146.093 71.288 145.785 71.6547 145.55 72.124C145.345 72.564 145.242 73.1067 145.242 73.752C145.242 74.3093 145.404 74.7787 145.726 75.16C146.049 75.5413 146.43 75.8493 146.87 76.084C147.34 76.2893 147.838 76.436 148.366 76.524C148.924 76.612 149.422 76.656 149.862 76.656C150.42 76.656 151.021 76.5827 151.666 76.436C152.312 76.2893 152.913 76.04 153.47 75.688C154.057 75.336 154.541 74.896 154.922 74.368C155.304 73.8107 155.494 73.136 155.494 72.344V68.604ZM162.299 57.252H166.083V50.432H171.099V57.252H175.631V60.992H171.099V73.136C171.099 73.664 171.114 74.1187 171.143 74.5C171.202 74.8813 171.305 75.204 171.451 75.468C171.627 75.732 171.877 75.9373 172.199 76.084C172.522 76.2013 172.962 76.26 173.519 76.26C173.871 76.26 174.223 76.26 174.575 76.26C174.927 76.2307 175.279 76.172 175.631 76.084V79.956C175.074 80.0147 174.531 80.0733 174.003 80.132C173.475 80.1907 172.933 80.22 172.375 80.22C171.055 80.22 169.985 80.1027 169.163 79.868C168.371 79.604 167.741 79.2373 167.271 78.768C166.831 78.2693 166.523 77.6533 166.347 76.92C166.201 76.1867 166.113 75.3507 166.083 74.412V60.992H162.299V57.252ZM179.152 48.584H183.64V60.992H179.152V48.584ZM192.63 72.696C192.777 74.1627 193.334 75.1893 194.302 75.776C195.27 76.3627 196.429 76.656 197.778 76.656C198.247 76.656 198.775 76.6267 199.362 76.568C199.978 76.48 200.55 76.3333 201.078 76.128C201.606 75.9227 202.031 75.6293 202.354 75.248C202.706 74.8373 202.867 74.3093 202.838 73.664C202.809 73.0187 202.574 72.4907 202.134 72.08C201.694 71.6693 201.122 71.3467 200.418 71.112C199.743 70.848 198.966 70.628 198.086 70.452C197.206 70.276 196.311 70.0853 195.402 69.88C194.463 69.6747 193.554 69.4253 192.674 69.132C191.823 68.8387 191.046 68.4427 190.342 67.944C189.667 67.4453 189.125 66.8147 188.714 66.052C188.303 65.26 188.098 64.292 188.098 63.148C188.098 61.916 188.391 60.8893 188.978 60.068C189.594 59.2173 190.357 58.5427 191.266 58.044C192.205 57.516 193.231 57.1493 194.346 56.944C195.49 56.7387 196.575 56.636 197.602 56.636C198.775 56.636 199.89 56.768 200.946 57.032C202.031 57.2667 202.999 57.6627 203.85 58.22C204.73 58.7773 205.449 59.5107 206.006 60.42C206.593 61.3 206.959 62.3707 207.106 63.632H201.87C201.635 62.4293 201.078 61.6227 200.198 61.212C199.347 60.8013 198.365 60.596 197.25 60.596C196.898 60.596 196.473 60.6253 195.974 60.684C195.505 60.7427 195.05 60.86 194.61 61.036C194.199 61.1827 193.847 61.4173 193.554 61.74C193.261 62.0333 193.114 62.4293 193.114 62.928C193.114 63.544 193.319 64.0427 193.73 64.424C194.17 64.8053 194.727 65.128 195.402 65.392C196.106 65.6267 196.898 65.832 197.778 66.008C198.658 66.184 199.567 66.3747 200.506 66.58C201.415 66.7853 202.31 67.0347 203.19 67.328C204.07 67.6213 204.847 68.0173 205.522 68.516C206.226 69.0147 206.783 69.6453 207.194 70.408C207.634 71.1707 207.854 72.1093 207.854 73.224C207.854 74.5733 207.546 75.7173 206.93 76.656C206.314 77.5947 205.507 78.3573 204.51 78.944C203.542 79.5307 202.457 79.956 201.254 80.22C200.051 80.484 198.863 80.616 197.69 80.616C196.253 80.616 194.918 80.4547 193.686 80.132C192.483 79.8093 191.427 79.3253 190.518 78.68C189.638 78.0053 188.934 77.184 188.406 76.216C187.907 75.2187 187.643 74.0453 187.614 72.696H192.63ZM240.32 74.94C240.32 75.556 240.394 75.996 240.54 76.26C240.716 76.524 241.039 76.656 241.508 76.656C241.655 76.656 241.831 76.656 242.036 76.656C242.242 76.656 242.476 76.6267 242.74 76.568V80.044C242.564 80.1027 242.33 80.1613 242.036 80.22C241.772 80.308 241.494 80.3813 241.2 80.44C240.907 80.4987 240.614 80.5427 240.32 80.572C240.027 80.6013 239.778 80.616 239.572 80.616C238.546 80.616 237.695 80.4107 237.02 80C236.346 79.5893 235.906 78.8707 235.7 77.844C234.703 78.812 233.471 79.516 232.004 79.956C230.567 80.396 229.174 80.616 227.824 80.616C226.798 80.616 225.815 80.4693 224.876 80.176C223.938 79.912 223.102 79.516 222.368 78.988C221.664 78.4307 221.092 77.7413 220.652 76.92C220.242 76.0693 220.036 75.0867 220.036 73.972C220.036 72.564 220.286 71.42 220.784 70.54C221.312 69.66 221.987 68.9707 222.808 68.472C223.659 67.9733 224.598 67.6213 225.624 67.416C226.68 67.1813 227.736 67.0053 228.792 66.888C229.702 66.712 230.567 66.5947 231.388 66.536C232.21 66.448 232.928 66.316 233.544 66.14C234.19 65.964 234.688 65.7 235.04 65.348C235.422 64.9667 235.612 64.4093 235.612 63.676C235.612 63.0307 235.451 62.5027 235.128 62.092C234.835 61.6813 234.454 61.3733 233.984 61.168C233.544 60.9333 233.046 60.7867 232.488 60.728C231.931 60.64 231.403 60.596 230.904 60.596C229.496 60.596 228.338 60.8893 227.428 61.476C226.519 62.0627 226.006 62.972 225.888 64.204H220.872C220.96 62.7373 221.312 61.52 221.928 60.552C222.544 59.584 223.322 58.8067 224.26 58.22C225.228 57.6333 226.314 57.2227 227.516 56.988C228.719 56.7533 229.951 56.636 231.212 56.636C232.327 56.636 233.427 56.7533 234.512 56.988C235.598 57.2227 236.566 57.604 237.416 58.132C238.296 58.66 239 59.3493 239.528 60.2C240.056 61.0213 240.32 62.0333 240.32 63.236V74.94ZM235.304 68.604C234.542 69.1027 233.603 69.4107 232.488 69.528C231.374 69.616 230.259 69.7627 229.144 69.968C228.616 70.056 228.103 70.188 227.604 70.364C227.106 70.5107 226.666 70.7307 226.284 71.024C225.903 71.288 225.595 71.6547 225.36 72.124C225.155 72.564 225.052 73.1067 225.052 73.752C225.052 74.3093 225.214 74.7787 225.536 75.16C225.859 75.5413 226.24 75.8493 226.68 76.084C227.15 76.2893 227.648 76.436 228.176 76.524C228.734 76.612 229.232 76.656 229.672 76.656C230.23 76.656 230.831 76.5827 231.476 76.436C232.122 76.2893 232.723 76.04 233.28 75.688C233.867 75.336 234.351 74.896 234.732 74.368C235.114 73.8107 235.304 73.136 235.304 72.344V68.604ZM255.324 57.252H260.032V61.652H260.12C260.266 61.036 260.545 60.4347 260.956 59.848C261.396 59.2613 261.909 58.7333 262.496 58.264C263.112 57.7653 263.786 57.3693 264.52 57.076C265.253 56.7827 266.001 56.636 266.764 56.636C267.35 56.636 267.746 56.6507 267.952 56.68C268.186 56.7093 268.421 56.7387 268.656 56.768V61.608C268.304 61.5493 267.937 61.5053 267.556 61.476C267.204 61.4173 266.852 61.388 266.5 61.388C265.649 61.388 264.842 61.564 264.08 61.916C263.346 62.2387 262.701 62.7373 262.144 63.412C261.586 64.0573 261.146 64.864 260.824 65.832C260.501 66.8 260.34 67.9147 260.34 69.176V80H255.324V57.252ZM284.319 66.624C284.26 65.832 284.084 65.0693 283.791 64.336C283.527 63.6027 283.146 62.972 282.647 62.444C282.178 61.8867 281.591 61.4467 280.887 61.124C280.212 60.772 279.45 60.596 278.599 60.596C277.719 60.596 276.912 60.7573 276.179 61.08C275.475 61.3733 274.859 61.7987 274.331 62.356C273.832 62.884 273.422 63.5147 273.099 64.248C272.806 64.9813 272.644 65.7733 272.615 66.624H284.319ZM272.615 69.924C272.615 70.804 272.732 71.6547 272.967 72.476C273.231 73.2973 273.612 74.016 274.111 74.632C274.61 75.248 275.24 75.7467 276.003 76.128C276.766 76.48 277.675 76.656 278.731 76.656C280.198 76.656 281.371 76.348 282.251 75.732C283.16 75.0867 283.835 74.1333 284.275 72.872H289.027C288.763 74.104 288.308 75.204 287.663 76.172C287.018 77.14 286.24 77.9613 285.331 78.636C284.422 79.2813 283.395 79.7653 282.251 80.088C281.136 80.44 279.963 80.616 278.731 80.616C276.942 80.616 275.358 80.3227 273.979 79.736C272.6 79.1493 271.427 78.328 270.459 77.272C269.52 76.216 268.802 74.9547 268.303 73.488C267.834 72.0213 267.599 70.408 267.599 68.648C267.599 67.0347 267.848 65.5093 268.347 64.072C268.875 62.6053 269.608 61.3293 270.547 60.244C271.515 59.1293 272.674 58.2493 274.023 57.604C275.372 56.9587 276.898 56.636 278.599 56.636C280.388 56.636 281.987 57.0173 283.395 57.78C284.832 58.5133 286.02 59.496 286.959 60.728C287.898 61.96 288.572 63.3827 288.983 64.996C289.423 66.58 289.54 68.2227 289.335 69.924H272.615ZM310.88 74.94C310.88 75.556 310.954 75.996 311.1 76.26C311.276 76.524 311.599 76.656 312.068 76.656C312.215 76.656 312.391 76.656 312.596 76.656C312.802 76.656 313.036 76.6267 313.3 76.568V80.044C313.124 80.1027 312.89 80.1613 312.596 80.22C312.332 80.308 312.054 80.3813 311.76 80.44C311.467 80.4987 311.174 80.5427 310.88 80.572C310.587 80.6013 310.338 80.616 310.132 80.616C309.106 80.616 308.255 80.4107 307.58 80C306.906 79.5893 306.466 78.8707 306.26 77.844C305.263 78.812 304.031 79.516 302.564 79.956C301.127 80.396 299.734 80.616 298.384 80.616C297.358 80.616 296.375 80.4693 295.436 80.176C294.498 79.912 293.662 79.516 292.928 78.988C292.224 78.4307 291.652 77.7413 291.212 76.92C290.802 76.0693 290.596 75.0867 290.596 73.972C290.596 72.564 290.846 71.42 291.344 70.54C291.872 69.66 292.547 68.9707 293.368 68.472C294.219 67.9733 295.158 67.6213 296.184 67.416C297.24 67.1813 298.296 67.0053 299.352 66.888C300.262 66.712 301.127 66.5947 301.948 66.536C302.77 66.448 303.488 66.316 304.104 66.14C304.75 65.964 305.248 65.7 305.6 65.348C305.982 64.9667 306.172 64.4093 306.172 63.676C306.172 63.0307 306.011 62.5027 305.688 62.092C305.395 61.6813 305.014 61.3733 304.544 61.168C304.104 60.9333 303.606 60.7867 303.048 60.728C302.491 60.64 301.963 60.596 301.464 60.596C300.056 60.596 298.898 60.8893 297.988 61.476C297.079 62.0627 296.566 62.972 296.448 64.204H291.432C291.52 62.7373 291.872 61.52 292.488 60.552C293.104 59.584 293.882 58.8067 294.82 58.22C295.788 57.6333 296.874 57.2227 298.076 56.988C299.279 56.7533 300.511 56.636 301.772 56.636C302.887 56.636 303.987 56.7533 305.072 56.988C306.158 57.2227 307.126 57.604 307.976 58.132C308.856 58.66 309.56 59.3493 310.088 60.2C310.616 61.0213 310.88 62.0333 310.88 63.236V74.94ZM305.864 68.604C305.102 69.1027 304.163 69.4107 303.048 69.528C301.934 69.616 300.819 69.7627 299.704 69.968C299.176 70.056 298.663 70.188 298.164 70.364C297.666 70.5107 297.226 70.7307 296.844 71.024C296.463 71.288 296.155 71.6547 295.92 72.124C295.715 72.564 295.612 73.1067 295.612 73.752C295.612 74.3093 295.774 74.7787 296.096 75.16C296.419 75.5413 296.8 75.8493 297.24 76.084C297.71 76.2893 298.208 76.436 298.736 76.524C299.294 76.612 299.792 76.656 300.232 76.656C300.79 76.656 301.391 76.5827 302.036 76.436C302.682 76.2893 303.283 76.04 303.84 75.688C304.427 75.336 304.911 74.896 305.292 74.368C305.674 73.8107 305.864 73.136 305.864 72.344V68.604ZM315.09 48.584H320.106V80H315.09V48.584ZM324.383 48.584H329.399V80H324.383V48.584ZM331.036 57.252H336.536L342.476 74.236H342.564L348.328 57.252H353.564L344.72 81.232C344.309 82.2587 343.899 83.2413 343.488 84.18C343.107 85.1187 342.623 85.94 342.036 86.644C341.479 87.3773 340.775 87.9493 339.924 88.36C339.073 88.8 337.988 89.02 336.668 89.02C335.495 89.02 334.336 88.932 333.192 88.756V84.532C333.603 84.5907 333.999 84.6493 334.38 84.708C334.761 84.796 335.157 84.84 335.568 84.84C336.155 84.84 336.639 84.7667 337.02 84.62C337.401 84.4733 337.709 84.2533 337.944 83.96C338.208 83.696 338.428 83.3733 338.604 82.992C338.78 82.6107 338.941 82.1707 339.088 81.672L339.66 79.912L331.036 57.252ZM369.751 72.696C369.897 74.1627 370.455 75.1893 371.423 75.776C372.391 76.3627 373.549 76.656 374.899 76.656C375.368 76.656 375.896 76.6267 376.483 76.568C377.099 76.48 377.671 76.3333 378.199 76.128C378.727 75.9227 379.152 75.6293 379.475 75.248C379.827 74.8373 379.988 74.3093 379.959 73.664C379.929 73.0187 379.695 72.4907 379.255 72.08C378.815 71.6693 378.243 71.3467 377.539 71.112C376.864 70.848 376.087 70.628 375.207 70.452C374.327 70.276 373.432 70.0853 372.523 69.88C371.584 69.6747 370.675 69.4253 369.795 69.132C368.944 68.8387 368.167 68.4427 367.463 67.944C366.788 67.4453 366.245 66.8147 365.835 66.052C365.424 65.26 365.219 64.292 365.219 63.148C365.219 61.916 365.512 60.8893 366.099 60.068C366.715 59.2173 367.477 58.5427 368.387 58.044C369.325 57.516 370.352 57.1493 371.467 56.944C372.611 56.7387 373.696 56.636 374.723 56.636C375.896 56.636 377.011 56.768 378.067 57.032C379.152 57.2667 380.12 57.6627 380.971 58.22C381.851 58.7773 382.569 59.5107 383.127 60.42C383.713 61.3 384.08 62.3707 384.227 63.632H378.991C378.756 62.4293 378.199 61.6227 377.319 61.212C376.468 60.8013 375.485 60.596 374.371 60.596C374.019 60.596 373.593 60.6253 373.095 60.684C372.625 60.7427 372.171 60.86 371.731 61.036C371.32 61.1827 370.968 61.4173 370.675 61.74C370.381 62.0333 370.235 62.4293 370.235 62.928C370.235 63.544 370.44 64.0427 370.851 64.424C371.291 64.8053 371.848 65.128 372.523 65.392C373.227 65.6267 374.019 65.832 374.899 66.008C375.779 66.184 376.688 66.3747 377.627 66.58C378.536 66.7853 379.431 67.0347 380.311 67.328C381.191 67.6213 381.968 68.0173 382.643 68.516C383.347 69.0147 383.904 69.6453 384.315 70.408C384.755 71.1707 384.975 72.1093 384.975 73.224C384.975 74.5733 384.667 75.7173 384.051 76.656C383.435 77.5947 382.628 78.3573 381.631 78.944C380.663 79.5307 379.577 79.956 378.375 80.22C377.172 80.484 375.984 80.616 374.811 80.616C373.373 80.616 372.039 80.4547 370.807 80.132C369.604 79.8093 368.548 79.3253 367.639 78.68C366.759 78.0053 366.055 77.184 365.527 76.216C365.028 75.2187 364.764 74.0453 364.735 72.696H369.751ZM387.595 48.584H392.611V80H387.595V48.584ZM396.888 48.584H401.904V53.336H396.888V48.584ZM396.888 57.252H401.904V80H396.888V57.252ZM421.406 64.864C421.2 63.456 420.628 62.4 419.69 61.696C418.78 60.9627 417.622 60.596 416.214 60.596C415.568 60.596 414.879 60.7133 414.146 60.948C413.412 61.1533 412.738 61.564 412.122 62.18C411.506 62.7667 410.992 63.6027 410.582 64.688C410.171 65.744 409.966 67.1373 409.966 68.868C409.966 69.8067 410.068 70.7453 410.274 71.684C410.508 72.6227 410.86 73.4587 411.33 74.192C411.828 74.9253 412.459 75.5267 413.222 75.996C413.984 76.436 414.908 76.656 415.994 76.656C417.46 76.656 418.663 76.2013 419.602 75.292C420.57 74.3827 421.171 73.1067 421.406 71.464H426.422C425.952 74.4267 424.823 76.7 423.034 78.284C421.274 79.8387 418.927 80.616 415.994 80.616C414.204 80.616 412.62 80.3227 411.242 79.736C409.892 79.12 408.748 78.2987 407.81 77.272C406.871 76.216 406.152 74.9693 405.654 73.532C405.184 72.0947 404.95 70.54 404.95 68.868C404.95 67.1667 405.184 65.568 405.654 64.072C406.123 62.576 406.827 61.2853 407.766 60.2C408.704 59.0853 409.863 58.22 411.242 57.604C412.65 56.9587 414.292 56.636 416.17 56.636C417.49 56.636 418.736 56.812 419.91 57.164C421.112 57.4867 422.168 57.9853 423.078 58.66C424.016 59.3347 424.779 60.1853 425.366 61.212C425.952 62.2387 426.304 63.456 426.422 64.864H421.406ZM429.311 48.584H434.327V66.448L443.391 57.252H449.551L440.839 65.612L450.387 80H444.271L437.319 68.956L434.327 71.86V80H429.311V48.584ZM478.038 66.624C477.979 65.832 477.803 65.0693 477.51 64.336C477.246 63.6027 476.864 62.972 476.366 62.444C475.896 61.8867 475.31 61.4467 474.606 61.124C473.931 60.772 473.168 60.596 472.318 60.596C471.438 60.596 470.631 60.7573 469.898 61.08C469.194 61.3733 468.578 61.7987 468.05 62.356C467.551 62.884 467.14 63.5147 466.818 64.248C466.524 64.9813 466.363 65.7733 466.334 66.624H478.038ZM466.334 69.924C466.334 70.804 466.451 71.6547 466.686 72.476C466.95 73.2973 467.331 74.016 467.83 74.632C468.328 75.248 468.959 75.7467 469.722 76.128C470.484 76.48 471.394 76.656 472.45 76.656C473.916 76.656 475.09 76.348 475.97 75.732C476.879 75.0867 477.554 74.1333 477.994 72.872H482.746C482.482 74.104 482.027 75.204 481.382 76.172C480.736 77.14 479.959 77.9613 479.05 78.636C478.14 79.2813 477.114 79.7653 475.97 80.088C474.855 80.44 473.682 80.616 472.45 80.616C470.66 80.616 469.076 80.3227 467.698 79.736C466.319 79.1493 465.146 78.328 464.178 77.272C463.239 76.216 462.52 74.9547 462.022 73.488C461.552 72.0213 461.318 70.408 461.318 68.648C461.318 67.0347 461.567 65.5093 462.066 64.072C462.594 62.6053 463.327 61.3293 464.266 60.244C465.234 59.1293 466.392 58.2493 467.742 57.604C469.091 56.9587 470.616 56.636 472.318 56.636C474.107 56.636 475.706 57.0173 477.114 57.78C478.551 58.5133 479.739 59.496 480.678 60.728C481.616 61.96 482.291 63.3827 482.702 64.996C483.142 66.58 483.259 68.2227 483.054 69.924H466.334ZM491.663 68.032L483.787 57.252H489.859L494.611 64.248L499.583 57.252H505.391L497.647 67.768L506.359 80H500.331L494.567 71.596L488.979 80H483.083L491.663 68.032ZM507.992 57.252H512.744V60.332H512.832C513.536 59.012 514.518 58.0733 515.78 57.516C517.041 56.9293 518.405 56.636 519.872 56.636C521.661 56.636 523.216 56.9587 524.536 57.604C525.885 58.22 527 59.0853 527.88 60.2C528.76 61.2853 529.42 62.5613 529.86 64.028C530.3 65.4947 530.52 67.064 530.52 68.736C530.52 70.2613 530.314 71.7427 529.904 73.18C529.522 74.6173 528.921 75.8933 528.1 77.008C527.308 78.0933 526.296 78.9733 525.064 79.648C523.832 80.2933 522.38 80.616 520.708 80.616C519.974 80.616 519.241 80.5427 518.508 80.396C517.774 80.2787 517.07 80.0733 516.396 79.78C515.721 79.4867 515.09 79.12 514.504 78.68C513.946 78.2107 513.477 77.668 513.096 77.052H513.008V88.404H507.992V57.252ZM525.504 68.648C525.504 67.6213 525.372 66.624 525.108 65.656C524.844 64.688 524.448 63.8373 523.92 63.104C523.392 62.3413 522.732 61.74 521.94 61.3C521.148 60.8307 520.238 60.596 519.212 60.596C517.1 60.596 515.501 61.3293 514.416 62.796C513.36 64.2627 512.832 66.2133 512.832 68.648C512.832 69.792 512.964 70.8627 513.228 71.86C513.521 72.828 513.946 73.664 514.504 74.368C515.061 75.072 515.721 75.6293 516.484 76.04C517.276 76.4507 518.185 76.656 519.212 76.656C520.356 76.656 521.324 76.4213 522.116 75.952C522.908 75.4827 523.553 74.8813 524.052 74.148C524.58 73.3853 524.946 72.5347 525.152 71.596C525.386 70.628 525.504 69.6453 525.504 68.648ZM549.058 66.624C548.999 65.832 548.823 65.0693 548.53 64.336C548.266 63.6027 547.885 62.972 547.386 62.444C546.917 61.8867 546.33 61.4467 545.626 61.124C544.951 60.772 544.189 60.596 543.338 60.596C542.458 60.596 541.651 60.7573 540.918 61.08C540.214 61.3733 539.598 61.7987 539.07 62.356C538.571 62.884 538.161 63.5147 537.838 64.248C537.545 64.9813 537.383 65.7733 537.354 66.624H549.058ZM537.354 69.924C537.354 70.804 537.471 71.6547 537.706 72.476C537.97 73.2973 538.351 74.016 538.85 74.632C539.349 75.248 539.979 75.7467 540.742 76.128C541.505 76.48 542.414 76.656 543.47 76.656C544.937 76.656 546.11 76.348 546.99 75.732C547.899 75.0867 548.574 74.1333 549.014 72.872H553.766C553.502 74.104 553.047 75.204 552.402 76.172C551.757 77.14 550.979 77.9613 550.07 78.636C549.161 79.2813 548.134 79.7653 546.99 80.088C545.875 80.44 544.702 80.616 543.47 80.616C541.681 80.616 540.097 80.3227 538.718 79.736C537.339 79.1493 536.166 78.328 535.198 77.272C534.259 76.216 533.541 74.9547 533.042 73.488C532.573 72.0213 532.338 70.408 532.338 68.648C532.338 67.0347 532.587 65.5093 533.086 64.072C533.614 62.6053 534.347 61.3293 535.286 60.244C536.254 59.1293 537.413 58.2493 538.762 57.604C540.111 56.9587 541.637 56.636 543.338 56.636C545.127 56.636 546.726 57.0173 548.134 57.78C549.571 58.5133 550.759 59.496 551.698 60.728C552.637 61.96 553.311 63.3827 553.722 64.996C554.162 66.58 554.279 68.2227 554.074 69.924H537.354ZM556.567 57.252H561.275V61.652H561.363C561.51 61.036 561.789 60.4347 562.199 59.848C562.639 59.2613 563.153 58.7333 563.739 58.264C564.355 57.7653 565.03 57.3693 565.763 57.076C566.497 56.7827 567.245 56.636 568.007 56.636C568.594 56.636 568.99 56.6507 569.195 56.68C569.43 56.7093 569.665 56.7387 569.899 56.768V61.608C569.547 61.5493 569.181 61.5053 568.799 61.476C568.447 61.4173 568.095 61.388 567.743 61.388C566.893 61.388 566.086 61.564 565.323 61.916C564.59 62.2387 563.945 62.7373 563.387 63.412C562.83 64.0573 562.39 64.864 562.067 65.832C561.745 66.8 561.583 67.9147 561.583 69.176V80H556.567V57.252ZM570.848 48.584H575.864V53.336H570.848V48.584ZM570.848 57.252H575.864V80H570.848V57.252ZM595.629 66.624C595.571 65.832 595.395 65.0693 595.101 64.336C594.837 63.6027 594.456 62.972 593.957 62.444C593.488 61.8867 592.901 61.4467 592.197 61.124C591.523 60.772 590.76 60.596 589.909 60.596C589.029 60.596 588.223 60.7573 587.489 61.08C586.785 61.3733 586.169 61.7987 585.641 62.356C585.143 62.884 584.732 63.5147 584.409 64.248C584.116 64.9813 583.955 65.7733 583.925 66.624H595.629ZM583.925 69.924C583.925 70.804 584.043 71.6547 584.277 72.476C584.541 73.2973 584.923 74.016 585.421 74.632C585.92 75.248 586.551 75.7467 587.313 76.128C588.076 76.48 588.985 76.656 590.041 76.656C591.508 76.656 592.681 76.348 593.561 75.732C594.471 75.0867 595.145 74.1333 595.585 72.872H600.337C600.073 74.104 599.619 75.204 598.973 76.172C598.328 77.14 597.551 77.9613 596.641 78.636C595.732 79.2813 594.705 79.7653 593.561 80.088C592.447 80.44 591.273 80.616 590.041 80.616C588.252 80.616 586.668 80.3227 585.289 79.736C583.911 79.1493 582.737 78.328 581.769 77.272C580.831 76.216 580.112 74.9547 579.613 73.488C579.144 72.0213 578.909 70.408 578.909 68.648C578.909 67.0347 579.159 65.5093 579.657 64.072C580.185 62.6053 580.919 61.3293 581.857 60.244C582.825 59.1293 583.984 58.2493 585.333 57.604C586.683 56.9587 588.208 56.636 589.909 56.636C591.699 56.636 593.297 57.0173 594.705 57.78C596.143 58.5133 597.331 59.496 598.269 60.728C599.208 61.96 599.883 63.3827 600.293 64.996C600.733 66.58 600.851 68.2227 600.645 69.924H583.925ZM603.139 57.252H607.891V60.596L607.979 60.684C608.741 59.4227 609.739 58.44 610.971 57.736C612.203 57.0027 613.567 56.636 615.063 56.636C617.556 56.636 619.521 57.2813 620.959 58.572C622.396 59.8627 623.115 61.7987 623.115 64.38V80H618.099V65.7C618.04 63.9107 617.659 62.62 616.955 61.828C616.251 61.0067 615.151 60.596 613.655 60.596C612.804 60.596 612.041 60.7573 611.367 61.08C610.692 61.3733 610.12 61.7987 609.651 62.356C609.181 62.884 608.815 63.5147 608.551 64.248C608.287 64.9813 608.155 65.7587 608.155 66.58V80H603.139V57.252ZM642.44 64.864C642.235 63.456 641.663 62.4 640.724 61.696C639.815 60.9627 638.656 60.596 637.248 60.596C636.603 60.596 635.914 60.7133 635.18 60.948C634.447 61.1533 633.772 61.564 633.156 62.18C632.54 62.7667 632.027 63.6027 631.616 64.688C631.206 65.744 631 67.1373 631 68.868C631 69.8067 631.103 70.7453 631.308 71.684C631.543 72.6227 631.895 73.4587 632.364 74.192C632.863 74.9253 633.494 75.5267 634.256 75.996C635.019 76.436 635.943 76.656 637.028 76.656C638.495 76.656 639.698 76.2013 640.636 75.292C641.604 74.3827 642.206 73.1067 642.44 71.464H647.456C646.987 74.4267 645.858 76.7 644.068 78.284C642.308 79.8387 639.962 80.616 637.028 80.616C635.239 80.616 633.655 80.3227 632.276 79.736C630.927 79.12 629.783 78.2987 628.844 77.272C627.906 76.216 627.187 74.9693 626.688 73.532C626.219 72.0947 625.984 70.54 625.984 68.868C625.984 67.1667 626.219 65.568 626.688 64.072C627.158 62.576 627.862 61.2853 628.8 60.2C629.739 59.0853 630.898 58.22 632.276 57.604C633.684 56.9587 635.327 56.636 637.204 56.636C638.524 56.636 639.771 56.812 640.944 57.164C642.147 57.4867 643.203 57.9853 644.112 58.66C645.051 59.3347 645.814 60.1853 646.4 61.212C646.987 62.2387 647.339 63.456 647.456 64.864H642.44ZM665.833 66.624C665.775 65.832 665.599 65.0693 665.305 64.336C665.041 63.6027 664.66 62.972 664.161 62.444C663.692 61.8867 663.105 61.4467 662.401 61.124C661.727 60.772 660.964 60.596 660.113 60.596C659.233 60.596 658.427 60.7573 657.693 61.08C656.989 61.3733 656.373 61.7987 655.845 62.356C655.347 62.884 654.936 63.5147 654.613 64.248C654.32 64.9813 654.159 65.7733 654.129 66.624H665.833ZM654.129 69.924C654.129 70.804 654.247 71.6547 654.481 72.476C654.745 73.2973 655.127 74.016 655.625 74.632C656.124 75.248 656.755 75.7467 657.517 76.128C658.28 76.48 659.189 76.656 660.245 76.656C661.712 76.656 662.885 76.348 663.765 75.732C664.675 75.0867 665.349 74.1333 665.789 72.872H670.541C670.277 74.104 669.823 75.204 669.177 76.172C668.532 77.14 667.755 77.9613 666.845 78.636C665.936 79.2813 664.909 79.7653 663.765 80.088C662.651 80.44 661.477 80.616 660.245 80.616C658.456 80.616 656.872 80.3227 655.493 79.736C654.115 79.1493 652.941 78.328 651.973 77.272C651.035 76.216 650.316 74.9547 649.817 73.488C649.348 72.0213 649.113 70.408 649.113 68.648C649.113 67.0347 649.363 65.5093 649.861 64.072C650.389 62.6053 651.123 61.3293 652.061 60.244C653.029 59.1293 654.188 58.2493 655.537 57.604C656.887 56.9587 658.412 56.636 660.113 56.636C661.903 56.636 663.501 57.0173 664.909 57.78C666.347 58.5133 667.535 59.496 668.473 60.728C669.412 61.96 670.087 63.3827 670.497 64.996C670.937 66.58 671.055 68.2227 670.849 69.924H654.129ZM673.739 74.06H679.855V80C679.825 81.8187 679.268 83.344 678.183 84.576C677.097 85.808 675.675 86.6 673.915 86.952V84.268C674.883 84.0333 675.601 83.4907 676.071 82.64C676.569 81.8187 676.804 80.9387 676.775 80H673.739V74.06ZM692.907 57.252H696.691V50.432H701.707V57.252H706.239V60.992H701.707V73.136C701.707 73.664 701.722 74.1187 701.751 74.5C701.81 74.8813 701.912 75.204 702.059 75.468C702.235 75.732 702.484 75.9373 702.807 76.084C703.13 76.2013 703.57 76.26 704.127 76.26C704.479 76.26 704.831 76.26 705.183 76.26C705.535 76.2307 705.887 76.172 706.239 76.084V79.956C705.682 80.0147 705.139 80.0733 704.611 80.132C704.083 80.1907 703.54 80.22 702.983 80.22C701.663 80.22 700.592 80.1027 699.771 79.868C698.979 79.604 698.348 79.2373 697.879 78.768C697.439 78.2693 697.131 77.6533 696.955 76.92C696.808 76.1867 696.72 75.3507 696.691 74.412V60.992H692.907V57.252ZM708.527 48.584H713.543V60.244H713.631C714.247 59.2173 715.157 58.3667 716.359 57.692C717.591 56.988 718.955 56.636 720.451 56.636C722.945 56.636 724.91 57.2813 726.347 58.572C727.785 59.8627 728.503 61.7987 728.503 64.38V80H723.487V65.7C723.429 63.9107 723.047 62.62 722.343 61.828C721.639 61.0067 720.539 60.596 719.043 60.596C718.193 60.596 717.43 60.7573 716.755 61.08C716.081 61.3733 715.509 61.7987 715.039 62.356C714.57 62.884 714.203 63.5147 713.939 64.248C713.675 64.9813 713.543 65.7587 713.543 66.58V80H708.527V48.584ZM751.525 74.94C751.525 75.556 751.598 75.996 751.745 76.26C751.921 76.524 752.243 76.656 752.713 76.656C752.859 76.656 753.035 76.656 753.241 76.656C753.446 76.656 753.681 76.6267 753.945 76.568V80.044C753.769 80.1027 753.534 80.1613 753.241 80.22C752.977 80.308 752.698 80.3813 752.405 80.44C752.111 80.4987 751.818 80.5427 751.525 80.572C751.231 80.6013 750.982 80.616 750.777 80.616C749.75 80.616 748.899 80.4107 748.225 80C747.55 79.5893 747.11 78.8707 746.905 77.844C745.907 78.812 744.675 79.516 743.209 79.956C741.771 80.396 740.378 80.616 739.029 80.616C738.002 80.616 737.019 80.4693 736.081 80.176C735.142 79.912 734.306 79.516 733.573 78.988C732.869 78.4307 732.297 77.7413 731.857 76.92C731.446 76.0693 731.241 75.0867 731.241 73.972C731.241 72.564 731.49 71.42 731.989 70.54C732.517 69.66 733.191 68.9707 734.013 68.472C734.863 67.9733 735.802 67.6213 736.829 67.416C737.885 67.1813 738.941 67.0053 739.997 66.888C740.906 66.712 741.771 66.5947 742.593 66.536C743.414 66.448 744.133 66.316 744.749 66.14C745.394 65.964 745.893 65.7 746.245 65.348C746.626 64.9667 746.817 64.4093 746.817 63.676C746.817 63.0307 746.655 62.5027 746.333 62.092C746.039 61.6813 745.658 61.3733 745.189 61.168C744.749 60.9333 744.25 60.7867 743.693 60.728C743.135 60.64 742.607 60.596 742.109 60.596C740.701 60.596 739.542 60.8893 738.633 61.476C737.723 62.0627 737.21 62.972 737.093 64.204H732.077C732.165 62.7373 732.517 61.52 733.133 60.552C733.749 59.584 734.526 58.8067 735.465 58.22C736.433 57.6333 737.518 57.2227 738.721 56.988C739.923 56.7533 741.155 56.636 742.417 56.636C743.531 56.636 744.631 56.7533 745.717 56.988C746.802 57.2227 747.77 57.604 748.621 58.132C749.501 58.66 750.205 59.3493 750.733 60.2C751.261 61.0213 751.525 62.0333 751.525 63.236V74.94ZM746.509 68.604C745.746 69.1027 744.807 69.4107 743.693 69.528C742.578 69.616 741.463 69.7627 740.349 69.968C739.821 70.056 739.307 70.188 738.809 70.364C738.31 70.5107 737.87 70.7307 737.489 71.024C737.107 71.288 736.799 71.6547 736.565 72.124C736.359 72.564 736.257 73.1067 736.257 73.752C736.257 74.3093 736.418 74.7787 736.741 75.16C737.063 75.5413 737.445 75.8493 737.885 76.084C738.354 76.2893 738.853 76.436 739.381 76.524C739.938 76.612 740.437 76.656 740.877 76.656C741.434 76.656 742.035 76.5827 742.681 76.436C743.326 76.2893 743.927 76.04 744.485 75.688C745.071 75.336 745.555 74.896 745.937 74.368C746.318 73.8107 746.509 73.136 746.509 72.344V68.604ZM753.314 57.252H757.098V50.432H762.114V57.252H766.646V60.992H762.114V73.136C762.114 73.664 762.129 74.1187 762.158 74.5C762.217 74.8813 762.319 75.204 762.466 75.468C762.642 75.732 762.891 75.9373 763.214 76.084C763.537 76.2013 763.977 76.26 764.534 76.26C764.886 76.26 765.238 76.26 765.59 76.26C765.942 76.2307 766.294 76.172 766.646 76.084V79.956C766.089 80.0147 765.546 80.0733 765.018 80.132C764.49 80.1907 763.947 80.22 763.39 80.22C762.07 80.22 760.999 80.1027 760.178 79.868C759.386 79.604 758.755 79.2373 758.286 78.768C757.846 78.2693 757.538 77.6533 757.362 76.92C757.215 76.1867 757.127 75.3507 757.098 74.412V60.992H753.314V57.252ZM777.792 57.252H783.116L787.56 74.236H787.648L791.916 57.252H796.976L801.068 74.236H801.156L805.776 57.252H810.88L803.752 80H798.604L794.38 63.104H794.292L790.112 80H784.832L777.792 57.252ZM831.839 74.94C831.839 75.556 831.912 75.996 832.059 76.26C832.235 76.524 832.557 76.656 833.027 76.656C833.173 76.656 833.349 76.656 833.555 76.656C833.76 76.656 833.995 76.6267 834.259 76.568V80.044C834.083 80.1027 833.848 80.1613 833.555 80.22C833.291 80.308 833.012 80.3813 832.719 80.44C832.425 80.4987 832.132 80.5427 831.839 80.572C831.545 80.6013 831.296 80.616 831.091 80.616C830.064 80.616 829.213 80.4107 828.539 80C827.864 79.5893 827.424 78.8707 827.219 77.844C826.221 78.812 824.989 79.516 823.523 79.956C822.085 80.396 820.692 80.616 819.343 80.616C818.316 80.616 817.333 80.4693 816.395 80.176C815.456 79.912 814.62 79.516 813.887 78.988C813.183 78.4307 812.611 77.7413 812.171 76.92C811.76 76.0693 811.555 75.0867 811.555 73.972C811.555 72.564 811.804 71.42 812.303 70.54C812.831 69.66 813.505 68.9707 814.327 68.472C815.177 67.9733 816.116 67.6213 817.143 67.416C818.199 67.1813 819.255 67.0053 820.311 66.888C821.22 66.712 822.085 66.5947 822.907 66.536C823.728 66.448 824.447 66.316 825.063 66.14C825.708 65.964 826.207 65.7 826.559 65.348C826.94 64.9667 827.131 64.4093 827.131 63.676C827.131 63.0307 826.969 62.5027 826.647 62.092C826.353 61.6813 825.972 61.3733 825.503 61.168C825.063 60.9333 824.564 60.7867 824.007 60.728C823.449 60.64 822.921 60.596 822.423 60.596C821.015 60.596 819.856 60.8893 818.947 61.476C818.037 62.0627 817.524 62.972 817.407 64.204H812.391C812.479 62.7373 812.831 61.52 813.447 60.552C814.063 59.584 814.84 58.8067 815.779 58.22C816.747 57.6333 817.832 57.2227 819.035 56.988C820.237 56.7533 821.469 56.636 822.731 56.636C823.845 56.636 824.945 56.7533 826.031 56.988C827.116 57.2227 828.084 57.604 828.935 58.132C829.815 58.66 830.519 59.3493 831.047 60.2C831.575 61.0213 831.839 62.0333 831.839 63.236V74.94ZM826.823 68.604C826.06 69.1027 825.121 69.4107 824.007 69.528C822.892 69.616 821.777 69.7627 820.663 69.968C820.135 70.056 819.621 70.188 819.123 70.364C818.624 70.5107 818.184 70.7307 817.803 71.024C817.421 71.288 817.113 71.6547 816.879 72.124C816.673 72.564 816.571 73.1067 816.571 73.752C816.571 74.3093 816.732 74.7787 817.055 75.16C817.377 75.5413 817.759 75.8493 818.199 76.084C818.668 76.2893 819.167 76.436 819.695 76.524C820.252 76.612 820.751 76.656 821.191 76.656C821.748 76.656 822.349 76.5827 822.995 76.436C823.64 76.2893 824.241 76.04 824.799 75.688C825.385 75.336 825.869 74.896 826.251 74.368C826.632 73.8107 826.823 73.136 826.823 72.344V68.604ZM839.7 72.696C839.846 74.1627 840.404 75.1893 841.372 75.776C842.34 76.3627 843.498 76.656 844.848 76.656C845.317 76.656 845.845 76.6267 846.432 76.568C847.048 76.48 847.62 76.3333 848.148 76.128C848.676 75.9227 849.101 75.6293 849.424 75.248C849.776 74.8373 849.937 74.3093 849.908 73.664C849.878 73.0187 849.644 72.4907 849.204 72.08C848.764 71.6693 848.192 71.3467 847.488 71.112C846.813 70.848 846.036 70.628 845.156 70.452C844.276 70.276 843.381 70.0853 842.472 69.88C841.533 69.6747 840.624 69.4253 839.744 69.132C838.893 68.8387 838.116 68.4427 837.412 67.944C836.737 67.4453 836.194 66.8147 835.784 66.052C835.373 65.26 835.168 64.292 835.168 63.148C835.168 61.916 835.461 60.8893 836.048 60.068C836.664 59.2173 837.426 58.5427 838.336 58.044C839.274 57.516 840.301 57.1493 841.416 56.944C842.56 56.7387 843.645 56.636 844.672 56.636C845.845 56.636 846.96 56.768 848.016 57.032C849.101 57.2667 850.069 57.6627 850.92 58.22C851.8 58.7773 852.518 59.5107 853.076 60.42C853.662 61.3 854.029 62.3707 854.176 63.632H848.94C848.705 62.4293 848.148 61.6227 847.268 61.212C846.417 60.8013 845.434 60.596 844.32 60.596C843.968 60.596 843.542 60.6253 843.044 60.684C842.574 60.7427 842.12 60.86 841.68 61.036C841.269 61.1827 840.917 61.4173 840.624 61.74C840.33 62.0333 840.184 62.4293 840.184 62.928C840.184 63.544 840.389 64.0427 840.8 64.424C841.24 64.8053 841.797 65.128 842.472 65.392C843.176 65.6267 843.968 65.832 844.848 66.008C845.728 66.184 846.637 66.3747 847.576 66.58C848.485 66.7853 849.38 67.0347 850.26 67.328C851.14 67.6213 851.917 68.0173 852.592 68.516C853.296 69.0147 853.853 69.6453 854.264 70.408C854.704 71.1707 854.924 72.1093 854.924 73.224C854.924 74.5733 854.616 75.7173 854 76.656C853.384 77.5947 852.577 78.3573 851.58 78.944C850.612 79.5307 849.526 79.956 848.324 80.22C847.121 80.484 845.933 80.616 844.76 80.616C843.322 80.616 841.988 80.4547 840.756 80.132C839.553 79.8093 838.497 79.3253 837.588 78.68C836.708 78.0053 836.004 77.184 835.476 76.216C834.977 75.2187 834.713 74.0453 834.684 72.696H839.7ZM6.424 120.696C6.57067 122.163 7.128 123.189 8.096 123.776C9.064 124.363 10.2227 124.656 11.572 124.656C12.0413 124.656 12.5693 124.627 13.156 124.568C13.772 124.48 14.344 124.333 14.872 124.128C15.4 123.923 15.8253 123.629 16.148 123.248C16.5 122.837 16.6613 122.309 16.632 121.664C16.6027 121.019 16.368 120.491 15.928 120.08C15.488 119.669 14.916 119.347 14.212 119.112C13.5373 118.848 12.76 118.628 11.88 118.452C11 118.276 10.1053 118.085 9.196 117.88C8.25733 117.675 7.348 117.425 6.468 117.132C5.61733 116.839 4.84 116.443 4.136 115.944C3.46133 115.445 2.91867 114.815 2.508 114.052C2.09733 113.26 1.892 112.292 1.892 111.148C1.892 109.916 2.18533 108.889 2.772 108.068C3.388 107.217 4.15067 106.543 5.06 106.044C5.99867 105.516 7.02533 105.149 8.14 104.944C9.284 104.739 10.3693 104.636 11.396 104.636C12.5693 104.636 13.684 104.768 14.74 105.032C15.8253 105.267 16.7933 105.663 17.644 106.22C18.524 106.777 19.2427 107.511 19.8 108.42C20.3867 109.3 20.7533 110.371 20.9 111.632H15.664C15.4293 110.429 14.872 109.623 13.992 109.212C13.1413 108.801 12.1587 108.596 11.044 108.596C10.692 108.596 10.2667 108.625 9.768 108.684C9.29867 108.743 8.844 108.86 8.404 109.036C7.99333 109.183 7.64133 109.417 7.348 109.74C7.05467 110.033 6.908 110.429 6.908 110.928C6.908 111.544 7.11333 112.043 7.524 112.424C7.964 112.805 8.52133 113.128 9.196 113.392C9.9 113.627 10.692 113.832 11.572 114.008C12.452 114.184 13.3613 114.375 14.3 114.58C15.2093 114.785 16.104 115.035 16.984 115.328C17.864 115.621 18.6413 116.017 19.316 116.516C20.02 117.015 20.5773 117.645 20.988 118.408C21.428 119.171 21.648 120.109 21.648 121.224C21.648 122.573 21.34 123.717 20.724 124.656C20.108 125.595 19.3013 126.357 18.304 126.944C17.336 127.531 16.2507 127.956 15.048 128.22C13.8453 128.484 12.6573 128.616 11.484 128.616C10.0467 128.616 8.712 128.455 7.48 128.132C6.27733 127.809 5.22133 127.325 4.312 126.68C3.432 126.005 2.728 125.184 2.2 124.216C1.70133 123.219 1.43733 122.045 1.408 120.696H6.424ZM34.5644 128.616C32.7457 128.616 31.1177 128.323 29.6804 127.736C28.2724 127.12 27.0697 126.284 26.0724 125.228C25.1044 124.172 24.3564 122.911 23.8284 121.444C23.3297 119.977 23.0804 118.364 23.0804 116.604C23.0804 114.873 23.3297 113.275 23.8284 111.808C24.3564 110.341 25.1044 109.08 26.0724 108.024C27.0697 106.968 28.2724 106.147 29.6804 105.56C31.1177 104.944 32.7457 104.636 34.5644 104.636C36.3831 104.636 37.9964 104.944 39.4044 105.56C40.8417 106.147 42.0444 106.968 43.0124 108.024C44.0097 109.08 44.7577 110.341 45.2564 111.808C45.7844 113.275 46.0484 114.873 46.0484 116.604C46.0484 118.364 45.7844 119.977 45.2564 121.444C44.7577 122.911 44.0097 124.172 43.0124 125.228C42.0444 126.284 40.8417 127.12 39.4044 127.736C37.9964 128.323 36.3831 128.616 34.5644 128.616ZM34.5644 124.656C35.6791 124.656 36.6471 124.421 37.4684 123.952C38.2897 123.483 38.9644 122.867 39.4924 122.104C40.0204 121.341 40.4017 120.491 40.6364 119.552C40.9004 118.584 41.0324 117.601 41.0324 116.604C41.0324 115.636 40.9004 114.668 40.6364 113.7C40.4017 112.732 40.0204 111.881 39.4924 111.148C38.9644 110.385 38.2897 109.769 37.4684 109.3C36.6471 108.831 35.6791 108.596 34.5644 108.596C33.4497 108.596 32.4817 108.831 31.6604 109.3C30.8391 109.769 30.1644 110.385 29.6364 111.148C29.1084 111.881 28.7124 112.732 28.4484 113.7C28.2137 114.668 28.0964 115.636 28.0964 116.604C28.0964 117.601 28.2137 118.584 28.4484 119.552C28.7124 120.491 29.1084 121.341 29.6364 122.104C30.1644 122.867 30.8391 123.483 31.6604 123.952C32.4817 124.421 33.4497 124.656 34.5644 124.656ZM75.4445 114.624C75.3859 113.832 75.2099 113.069 74.9165 112.336C74.6525 111.603 74.2712 110.972 73.7725 110.444C73.3032 109.887 72.7165 109.447 72.0125 109.124C71.3379 108.772 70.5752 108.596 69.7245 108.596C68.8445 108.596 68.0379 108.757 67.3045 109.08C66.6005 109.373 65.9845 109.799 65.4565 110.356C64.9579 110.884 64.5472 111.515 64.2245 112.248C63.9312 112.981 63.7699 113.773 63.7405 114.624H75.4445ZM63.7405 117.924C63.7405 118.804 63.8579 119.655 64.0925 120.476C64.3565 121.297 64.7379 122.016 65.2365 122.632C65.7352 123.248 66.3659 123.747 67.1285 124.128C67.8912 124.48 68.8005 124.656 69.8565 124.656C71.3232 124.656 72.4965 124.348 73.3765 123.732C74.2859 123.087 74.9605 122.133 75.4005 120.872H80.1525C79.8885 122.104 79.4339 123.204 78.7885 124.172C78.1432 125.14 77.3659 125.961 76.4565 126.636C75.5472 127.281 74.5205 127.765 73.3765 128.088C72.2619 128.44 71.0885 128.616 69.8565 128.616C68.0672 128.616 66.4832 128.323 65.1045 127.736C63.7259 127.149 62.5525 126.328 61.5845 125.272C60.6459 124.216 59.9272 122.955 59.4285 121.488C58.9592 120.021 58.7245 118.408 58.7245 116.648C58.7245 115.035 58.9739 113.509 59.4725 112.072C60.0005 110.605 60.7339 109.329 61.6725 108.244C62.6405 107.129 63.7992 106.249 65.1485 105.604C66.4979 104.959 68.0232 104.636 69.7245 104.636C71.5139 104.636 73.1125 105.017 74.5205 105.78C75.9579 106.513 77.1459 107.496 78.0845 108.728C79.0232 109.96 79.6979 111.383 80.1085 112.996C80.5485 114.58 80.6659 116.223 80.4605 117.924H63.7405ZM102.006 122.94C102.006 123.556 102.079 123.996 102.226 124.26C102.402 124.524 102.724 124.656 103.194 124.656C103.34 124.656 103.516 124.656 103.722 124.656C103.927 124.656 104.162 124.627 104.426 124.568V128.044C104.25 128.103 104.015 128.161 103.722 128.22C103.458 128.308 103.179 128.381 102.886 128.44C102.592 128.499 102.299 128.543 102.006 128.572C101.712 128.601 101.463 128.616 101.258 128.616C100.231 128.616 99.3804 128.411 98.7058 128C98.0311 127.589 97.5911 126.871 97.3858 125.844C96.3884 126.812 95.1564 127.516 93.6898 127.956C92.2524 128.396 90.8591 128.616 89.5098 128.616C88.4831 128.616 87.5004 128.469 86.5618 128.176C85.6231 127.912 84.7871 127.516 84.0538 126.988C83.3498 126.431 82.7778 125.741 82.3378 124.92C81.9271 124.069 81.7218 123.087 81.7218 121.972C81.7218 120.564 81.9711 119.42 82.4698 118.54C82.9978 117.66 83.6724 116.971 84.4938 116.472C85.3444 115.973 86.2831 115.621 87.3098 115.416C88.3658 115.181 89.4218 115.005 90.4778 114.888C91.3871 114.712 92.2524 114.595 93.0738 114.536C93.8951 114.448 94.6138 114.316 95.2298 114.14C95.8751 113.964 96.3738 113.7 96.7258 113.348C97.1071 112.967 97.2978 112.409 97.2978 111.676C97.2978 111.031 97.1364 110.503 96.8138 110.092C96.5204 109.681 96.1391 109.373 95.6698 109.168C95.2298 108.933 94.7311 108.787 94.1738 108.728C93.6164 108.64 93.0884 108.596 92.5898 108.596C91.1818 108.596 90.0231 108.889 89.1138 109.476C88.2044 110.063 87.6911 110.972 87.5738 112.204H82.5578C82.6458 110.737 82.9978 109.52 83.6138 108.552C84.2298 107.584 85.0071 106.807 85.9458 106.22C86.9138 105.633 87.9991 105.223 89.2018 104.988C90.4044 104.753 91.6364 104.636 92.8978 104.636C94.0124 104.636 95.1124 104.753 96.1978 104.988C97.2831 105.223 98.2511 105.604 99.1018 106.132C99.9818 106.66 100.686 107.349 101.214 108.2C101.742 109.021 102.006 110.033 102.006 111.236V122.94ZM96.9898 116.604C96.2271 117.103 95.2884 117.411 94.1738 117.528C93.0591 117.616 91.9444 117.763 90.8298 117.968C90.3018 118.056 89.7884 118.188 89.2898 118.364C88.7911 118.511 88.3511 118.731 87.9698 119.024C87.5884 119.288 87.2804 119.655 87.0458 120.124C86.8404 120.564 86.7378 121.107 86.7378 121.752C86.7378 122.309 86.8991 122.779 87.2218 123.16C87.5444 123.541 87.9258 123.849 88.3658 124.084C88.8351 124.289 89.3338 124.436 89.8618 124.524C90.4191 124.612 90.9178 124.656 91.3578 124.656C91.9151 124.656 92.5164 124.583 93.1618 124.436C93.8071 124.289 94.4084 124.04 94.9658 123.688C95.5524 123.336 96.0364 122.896 96.4178 122.368C96.7991 121.811 96.9898 121.136 96.9898 120.344V116.604ZM109.867 120.696C110.014 122.163 110.571 123.189 111.539 123.776C112.507 124.363 113.666 124.656 115.015 124.656C115.484 124.656 116.012 124.627 116.599 124.568C117.215 124.48 117.787 124.333 118.315 124.128C118.843 123.923 119.268 123.629 119.591 123.248C119.943 122.837 120.104 122.309 120.075 121.664C120.046 121.019 119.811 120.491 119.371 120.08C118.931 119.669 118.359 119.347 117.655 119.112C116.98 118.848 116.203 118.628 115.323 118.452C114.443 118.276 113.548 118.085 112.639 117.88C111.7 117.675 110.791 117.425 109.911 117.132C109.06 116.839 108.283 116.443 107.579 115.944C106.904 115.445 106.362 114.815 105.951 114.052C105.54 113.26 105.335 112.292 105.335 111.148C105.335 109.916 105.628 108.889 106.215 108.068C106.831 107.217 107.594 106.543 108.503 106.044C109.442 105.516 110.468 105.149 111.583 104.944C112.727 104.739 113.812 104.636 114.839 104.636C116.012 104.636 117.127 104.768 118.183 105.032C119.268 105.267 120.236 105.663 121.087 106.22C121.967 106.777 122.686 107.511 123.243 108.42C123.83 109.3 124.196 110.371 124.343 111.632H119.107C118.872 110.429 118.315 109.623 117.435 109.212C116.584 108.801 115.602 108.596 114.487 108.596C114.135 108.596 113.71 108.625 113.211 108.684C112.742 108.743 112.287 108.86 111.847 109.036C111.436 109.183 111.084 109.417 110.791 109.74C110.498 110.033 110.351 110.429 110.351 110.928C110.351 111.544 110.556 112.043 110.967 112.424C111.407 112.805 111.964 113.128 112.639 113.392C113.343 113.627 114.135 113.832 115.015 114.008C115.895 114.184 116.804 114.375 117.743 114.58C118.652 114.785 119.547 115.035 120.427 115.328C121.307 115.621 122.084 116.017 122.759 116.516C123.463 117.015 124.02 117.645 124.431 118.408C124.871 119.171 125.091 120.109 125.091 121.224C125.091 122.573 124.783 123.717 124.167 124.656C123.551 125.595 122.744 126.357 121.747 126.944C120.779 127.531 119.694 127.956 118.491 128.22C117.288 128.484 116.1 128.616 114.927 128.616C113.49 128.616 112.155 128.455 110.923 128.132C109.72 127.809 108.664 127.325 107.755 126.68C106.875 126.005 106.171 125.184 105.643 124.216C105.144 123.219 104.88 122.045 104.851 120.696H109.867ZM125.071 105.252H130.571L136.511 122.236H136.599L142.363 105.252H147.599L138.755 129.232C138.345 130.259 137.934 131.241 137.523 132.18C137.142 133.119 136.658 133.94 136.071 134.644C135.514 135.377 134.81 135.949 133.959 136.36C133.109 136.8 132.023 137.02 130.703 137.02C129.53 137.02 128.371 136.932 127.227 136.756V132.532C127.638 132.591 128.034 132.649 128.415 132.708C128.797 132.796 129.193 132.84 129.603 132.84C130.19 132.84 130.674 132.767 131.055 132.62C131.437 132.473 131.745 132.253 131.979 131.96C132.243 131.696 132.463 131.373 132.639 130.992C132.815 130.611 132.977 130.171 133.123 129.672L133.695 127.912L125.071 105.252ZM157.714 105.252H161.498V98.432H166.514V105.252H171.046V108.992H166.514V121.136C166.514 121.664 166.529 122.119 166.558 122.5C166.617 122.881 166.719 123.204 166.866 123.468C167.042 123.732 167.291 123.937 167.614 124.084C167.937 124.201 168.377 124.26 168.934 124.26C169.286 124.26 169.638 124.26 169.99 124.26C170.342 124.231 170.694 124.172 171.046 124.084V127.956C170.489 128.015 169.946 128.073 169.418 128.132C168.89 128.191 168.347 128.22 167.79 128.22C166.47 128.22 165.399 128.103 164.578 127.868C163.786 127.604 163.155 127.237 162.686 126.768C162.246 126.269 161.938 125.653 161.762 124.92C161.615 124.187 161.527 123.351 161.498 122.412V108.992H157.714V105.252ZM183.762 128.616C181.944 128.616 180.316 128.323 178.878 127.736C177.47 127.12 176.268 126.284 175.27 125.228C174.302 124.172 173.554 122.911 173.026 121.444C172.528 119.977 172.278 118.364 172.278 116.604C172.278 114.873 172.528 113.275 173.026 111.808C173.554 110.341 174.302 109.08 175.27 108.024C176.268 106.968 177.47 106.147 178.878 105.56C180.316 104.944 181.944 104.636 183.762 104.636C185.581 104.636 187.194 104.944 188.602 105.56C190.04 106.147 191.242 106.968 192.21 108.024C193.208 109.08 193.956 110.341 194.454 111.808C194.982 113.275 195.246 114.873 195.246 116.604C195.246 118.364 194.982 119.977 194.454 121.444C193.956 122.911 193.208 124.172 192.21 125.228C191.242 126.284 190.04 127.12 188.602 127.736C187.194 128.323 185.581 128.616 183.762 128.616ZM183.762 124.656C184.877 124.656 185.845 124.421 186.666 123.952C187.488 123.483 188.162 122.867 188.69 122.104C189.218 121.341 189.6 120.491 189.834 119.552C190.098 118.584 190.23 117.601 190.23 116.604C190.23 115.636 190.098 114.668 189.834 113.7C189.6 112.732 189.218 111.881 188.69 111.148C188.162 110.385 187.488 109.769 186.666 109.3C185.845 108.831 184.877 108.596 183.762 108.596C182.648 108.596 181.68 108.831 180.858 109.3C180.037 109.769 179.362 110.385 178.834 111.148C178.306 111.881 177.91 112.732 177.646 113.7C177.412 114.668 177.294 115.636 177.294 116.604C177.294 117.601 177.412 118.584 177.646 119.552C177.91 120.491 178.306 121.341 178.834 122.104C179.362 122.867 180.037 123.483 180.858 123.952C181.68 124.421 182.648 124.656 183.762 124.656ZM228.998 128H224.07V124.832H223.982C223.366 125.976 222.442 126.9 221.21 127.604C220.008 128.279 218.776 128.616 217.514 128.616C214.522 128.616 212.352 127.883 211.002 126.416C209.682 124.92 209.022 122.676 209.022 119.684V105.252H214.038V119.2C214.038 121.195 214.42 122.603 215.182 123.424C215.945 124.245 217.016 124.656 218.394 124.656C219.45 124.656 220.33 124.495 221.034 124.172C221.738 123.849 222.31 123.424 222.75 122.896C223.19 122.339 223.498 121.679 223.674 120.916C223.88 120.153 223.982 119.332 223.982 118.452V105.252H228.998V128ZM236.752 120.696C236.899 122.163 237.456 123.189 238.424 123.776C239.392 124.363 240.551 124.656 241.9 124.656C242.369 124.656 242.897 124.627 243.484 124.568C244.1 124.48 244.672 124.333 245.2 124.128C245.728 123.923 246.153 123.629 246.476 123.248C246.828 122.837 246.989 122.309 246.96 121.664C246.931 121.019 246.696 120.491 246.256 120.08C245.816 119.669 245.244 119.347 244.54 119.112C243.865 118.848 243.088 118.628 242.208 118.452C241.328 118.276 240.433 118.085 239.524 117.88C238.585 117.675 237.676 117.425 236.796 117.132C235.945 116.839 235.168 116.443 234.464 115.944C233.789 115.445 233.247 114.815 232.836 114.052C232.425 113.26 232.22 112.292 232.22 111.148C232.22 109.916 232.513 108.889 233.1 108.068C233.716 107.217 234.479 106.543 235.388 106.044C236.327 105.516 237.353 105.149 238.468 104.944C239.612 104.739 240.697 104.636 241.724 104.636C242.897 104.636 244.012 104.768 245.068 105.032C246.153 105.267 247.121 105.663 247.972 106.22C248.852 106.777 249.571 107.511 250.128 108.42C250.715 109.3 251.081 110.371 251.228 111.632H245.992C245.757 110.429 245.2 109.623 244.32 109.212C243.469 108.801 242.487 108.596 241.372 108.596C241.02 108.596 240.595 108.625 240.096 108.684C239.627 108.743 239.172 108.86 238.732 109.036C238.321 109.183 237.969 109.417 237.676 109.74C237.383 110.033 237.236 110.429 237.236 110.928C237.236 111.544 237.441 112.043 237.852 112.424C238.292 112.805 238.849 113.128 239.524 113.392C240.228 113.627 241.02 113.832 241.9 114.008C242.78 114.184 243.689 114.375 244.628 114.58C245.537 114.785 246.432 115.035 247.312 115.328C248.192 115.621 248.969 116.017 249.644 116.516C250.348 117.015 250.905 117.645 251.316 118.408C251.756 119.171 251.976 120.109 251.976 121.224C251.976 122.573 251.668 123.717 251.052 124.656C250.436 125.595 249.629 126.357 248.632 126.944C247.664 127.531 246.579 127.956 245.376 128.22C244.173 128.484 242.985 128.616 241.812 128.616C240.375 128.616 239.04 128.455 237.808 128.132C236.605 127.809 235.549 127.325 234.64 126.68C233.76 126.005 233.056 125.184 232.528 124.216C232.029 123.219 231.765 122.045 231.736 120.696H236.752ZM270.084 114.624C270.026 113.832 269.85 113.069 269.556 112.336C269.292 111.603 268.911 110.972 268.412 110.444C267.943 109.887 267.356 109.447 266.652 109.124C265.978 108.772 265.215 108.596 264.364 108.596C263.484 108.596 262.678 108.757 261.944 109.08C261.24 109.373 260.624 109.799 260.096 110.356C259.598 110.884 259.187 111.515 258.864 112.248C258.571 112.981 258.41 113.773 258.38 114.624H270.084ZM258.38 117.924C258.38 118.804 258.498 119.655 258.732 120.476C258.996 121.297 259.378 122.016 259.876 122.632C260.375 123.248 261.006 123.747 261.768 124.128C262.531 124.48 263.44 124.656 264.496 124.656C265.963 124.656 267.136 124.348 268.016 123.732C268.926 123.087 269.6 122.133 270.04 120.872H274.792C274.528 122.104 274.074 123.204 273.428 124.172C272.783 125.14 272.006 125.961 271.096 126.636C270.187 127.281 269.16 127.765 268.016 128.088C266.902 128.44 265.728 128.616 264.496 128.616C262.707 128.616 261.123 128.323 259.744 127.736C258.366 127.149 257.192 126.328 256.224 125.272C255.286 124.216 254.567 122.955 254.068 121.488C253.599 120.021 253.364 118.408 253.364 116.648C253.364 115.035 253.614 113.509 254.112 112.072C254.64 110.605 255.374 109.329 256.312 108.244C257.28 107.129 258.439 106.249 259.788 105.604C261.138 104.959 262.663 104.636 264.364 104.636C266.154 104.636 267.752 105.017 269.16 105.78C270.598 106.513 271.786 107.496 272.724 108.728C273.663 109.96 274.338 111.383 274.748 112.996C275.188 114.58 275.306 116.223 275.1 117.924H258.38ZM277.99 122.06H284.106V128H277.99V122.06ZM297.276 106.44C298.185 106.117 298.86 105.619 299.3 104.944C299.74 104.269 299.96 103.463 299.96 102.524H297.276V96.584H302.776V102.524C302.776 103.375 302.629 104.152 302.336 104.856C302.042 105.531 301.646 106.147 301.148 106.704C300.649 107.232 300.062 107.701 299.388 108.112C298.742 108.493 298.038 108.787 297.276 108.992V106.44ZM288.52 106.44C289.429 106.117 290.104 105.619 290.544 104.944C290.984 104.269 291.204 103.463 291.204 102.524H288.52V96.584H294.02V102.524C294.02 103.375 293.873 104.152 293.58 104.856C293.286 105.531 292.89 106.147 292.392 106.704C291.893 107.232 291.306 107.701 290.632 108.112C289.986 108.493 289.282 108.787 288.52 108.992V106.44Z" fill="#23242A"/>
</svg>
