<svg width="265" height="131" viewBox="0 0 265 131" fill="none" xmlns="http://www.w3.org/2000/svg">
<path d="M6.25195 0.441406L8.91602 2.0957C7.61263 4.00065 6.93945 5.98438 6.89648 8.04688V11.3125H2.32031V8.34766C2.33464 6.97266 2.70703 5.54036 3.4375 4.05078C4.18229 2.54688 5.12044 1.34375 6.25195 0.441406ZM13.4707 0.441406L16.1348 2.0957C14.8314 4.00065 14.1582 5.98438 14.1152 8.04688V11.3125H9.53906V8.34766C9.55339 6.97266 9.92578 5.54036 10.6562 4.05078C11.401 2.54688 12.3392 1.34375 13.4707 0.441406ZM37.0726 20.0352H24.2249V29.6602H39.2425V34H18.7894V2.71875H39.0921V7.10156H24.2249V15.7383H37.0726V20.0352ZM49.4811 27.3828L54.401 10.7539H59.7936L51.737 34H47.2038L39.0827 10.7539H44.4967L49.4811 27.3828ZM71.6865 34.4297C68.3779 34.4297 65.6923 33.3913 63.6298 31.3145C61.5817 29.2233 60.5576 26.4447 60.5576 22.9785V22.334C60.5576 20.0137 61.0016 17.944 61.8896 16.125C62.792 14.2917 64.0524 12.8665 65.6709 11.8496C67.2893 10.8327 69.094 10.3242 71.0849 10.3242C74.2503 10.3242 76.6923 11.334 78.4111 13.3535C80.1442 15.373 81.0107 18.2305 81.0107 21.9258V24.0312H65.8213C65.9788 25.9505 66.6162 27.4688 67.7334 28.5859C68.8649 29.7031 70.2828 30.2617 71.9873 30.2617C74.3792 30.2617 76.3271 29.2949 77.831 27.3613L80.6455 30.0469C79.7145 31.4362 78.4684 32.5176 76.9072 33.291C75.3603 34.0501 73.6201 34.4297 71.6865 34.4297ZM71.0634 14.5137C69.6311 14.5137 68.471 15.015 67.583 16.0176C66.7093 17.0202 66.1507 18.4167 65.9072 20.207H75.8545V19.8203C75.7399 18.0729 75.2744 16.7552 74.458 15.8672C73.6416 14.9648 72.5101 14.5137 71.0634 14.5137ZM95.9329 15.5234C95.2454 15.4089 94.5364 15.3516 93.8059 15.3516C91.414 15.3516 89.8027 16.2682 88.972 18.1016V34H83.7513V10.7539H88.7356L88.8645 13.3535C90.1249 11.334 91.8723 10.3242 94.1067 10.3242C94.8515 10.3242 95.4674 10.4245 95.9544 10.625L95.9329 15.5234ZM106.429 26.5234L111.156 10.7539H116.72L107.482 37.5234C106.064 41.4336 103.658 43.3887 100.263 43.3887C99.5042 43.3887 98.6663 43.2598 97.7496 43.002V38.9629L98.7379 39.0273C100.056 39.0273 101.044 38.7839 101.703 38.2969C102.376 37.8242 102.906 37.0221 103.293 35.8906L104.045 33.8926L95.8805 10.7539H101.509L106.429 26.5234ZM141.086 27.6836C141.086 26.7526 140.699 26.0436 139.926 25.5566C139.167 25.0697 137.899 24.64 136.123 24.2676C134.347 23.8952 132.865 23.4225 131.676 22.8496C129.069 21.5892 127.766 19.763 127.766 17.3711C127.766 15.3659 128.611 13.6901 130.301 12.3438C131.991 10.9974 134.14 10.3242 136.746 10.3242C139.525 10.3242 141.767 11.0117 143.471 12.3867C145.19 13.7617 146.049 15.5449 146.049 17.7363H140.828C140.828 16.7337 140.456 15.903 139.711 15.2441C138.966 14.571 137.978 14.2344 136.746 14.2344C135.6 14.2344 134.662 14.4993 133.932 15.0293C133.216 15.5592 132.858 16.2682 132.858 17.1562C132.858 17.9583 133.194 18.5814 133.867 19.0254C134.541 19.4694 135.901 19.9206 137.949 20.3789C139.998 20.8229 141.602 21.36 142.762 21.9902C143.936 22.6061 144.803 23.3509 145.362 24.2246C145.934 25.0983 146.221 26.1582 146.221 27.4043C146.221 29.4954 145.354 31.1927 143.621 32.4961C141.888 33.7852 139.618 34.4297 136.811 34.4297C134.906 34.4297 133.209 34.0859 131.719 33.3984C130.229 32.7109 129.069 31.7656 128.239 30.5625C127.408 29.3594 126.992 28.0632 126.992 26.6738H132.063C132.134 27.9056 132.6 28.8581 133.459 29.5312C134.319 30.1901 135.457 30.5195 136.875 30.5195C138.25 30.5195 139.296 30.2617 140.012 29.7461C140.728 29.2161 141.086 28.5286 141.086 27.6836ZM155.02 34H149.799V10.7539H155.02V34ZM149.477 4.7168C149.477 3.91471 149.728 3.2487 150.229 2.71875C150.745 2.1888 151.475 1.92383 152.42 1.92383C153.366 1.92383 154.096 2.1888 154.612 2.71875C155.128 3.2487 155.385 3.91471 155.385 4.7168C155.385 5.50456 155.128 6.16341 154.612 6.69336C154.096 7.20898 153.366 7.4668 152.42 7.4668C151.475 7.4668 150.745 7.20898 150.229 6.69336C149.728 6.16341 149.477 5.50456 149.477 4.7168ZM164.249 10.7539L164.399 13.4395C166.118 11.3626 168.374 10.3242 171.167 10.3242C176.008 10.3242 178.472 13.0957 178.557 18.6387V34H173.337V18.9395C173.337 17.4642 173.015 16.3757 172.37 15.6738C171.74 14.9577 170.701 14.5996 169.255 14.5996C167.149 14.5996 165.581 15.5521 164.55 17.457V34H159.329V10.7539H164.249ZM181.663 22.2051C181.663 18.5957 182.508 15.7168 184.198 13.5684C185.903 11.4056 188.159 10.3242 190.966 10.3242C193.616 10.3242 195.7 11.248 197.218 13.0957L197.454 10.7539H202.159V33.291C202.159 36.3418 201.207 38.748 199.302 40.5098C197.411 42.2715 194.855 43.1523 191.632 43.1523C189.928 43.1523 188.259 42.7943 186.626 42.0781C185.008 41.3763 183.776 40.4525 182.931 39.3066L185.402 36.1699C187.006 38.0749 188.982 39.0273 191.331 39.0273C193.064 39.0273 194.432 38.5547 195.435 37.6094C196.437 36.6784 196.939 35.3034 196.939 33.4844V31.916C195.435 33.5918 193.43 34.4297 190.923 34.4297C188.202 34.4297 185.974 33.3483 184.241 31.1855C182.523 29.0228 181.663 26.0293 181.663 22.2051ZM186.863 22.6562C186.863 24.9909 187.335 26.8314 188.28 28.1777C189.24 29.5098 190.565 30.1758 192.255 30.1758C194.361 30.1758 195.922 29.2734 196.939 27.4688V17.2422C195.95 15.4805 194.404 14.5996 192.298 14.5996C190.579 14.5996 189.24 15.2799 188.28 16.6406C187.335 18.0013 186.863 20.0065 186.863 22.6562ZM211.775 34H206.554V1H211.775V34ZM226.396 34.4297C223.088 34.4297 220.402 33.3913 218.34 31.3145C216.292 29.2233 215.267 26.4447 215.267 22.9785V22.334C215.267 20.0137 215.711 17.944 216.599 16.125C217.502 14.2917 218.762 12.8665 220.381 11.8496C221.999 10.8327 223.804 10.3242 225.795 10.3242C228.96 10.3242 231.402 11.334 233.121 13.3535C234.854 15.373 235.721 18.2305 235.721 21.9258V24.0312H220.531C220.689 25.9505 221.326 27.4688 222.443 28.5859C223.575 29.7031 224.993 30.2617 226.697 30.2617C229.089 30.2617 231.037 29.2949 232.541 27.3613L235.355 30.0469C234.424 31.4362 233.178 32.5176 231.617 33.291C230.07 34.0501 228.33 34.4297 226.396 34.4297ZM225.773 14.5137C224.341 14.5137 223.181 15.015 222.293 16.0176C221.419 17.0202 220.861 18.4167 220.617 20.207H230.564V19.8203C230.45 18.0729 229.984 16.7552 229.168 15.8672C228.351 14.9648 227.22 14.5137 225.773 14.5137ZM268.465 22.6133C268.465 26.2083 267.649 29.0801 266.016 31.2285C264.383 33.3626 262.192 34.4297 259.442 34.4297C256.892 34.4297 254.851 33.5918 253.319 31.916V42.9375H248.098V10.7539H252.911L253.125 13.1172C254.658 11.2552 256.742 10.3242 259.377 10.3242C262.213 10.3242 264.433 11.3841 266.038 13.5039C267.656 15.6094 268.465 18.5384 268.465 22.291V22.6133ZM263.266 22.1621C263.266 19.8418 262.801 18.0013 261.87 16.6406C260.953 15.2799 259.635 14.5996 257.916 14.5996C255.782 14.5996 254.25 15.4805 253.319 17.2422V27.5547C254.264 29.3594 255.811 30.2617 257.959 30.2617C259.621 30.2617 260.917 29.5957 261.848 28.2637C262.793 26.9173 263.266 24.8835 263.266 22.1621ZM281.819 34.4297C278.511 34.4297 275.825 33.3913 273.763 31.3145C271.714 29.2233 270.69 26.4447 270.69 22.9785V22.334C270.69 20.0137 271.134 17.944 272.022 16.125C272.925 14.2917 274.185 12.8665 275.804 11.8496C277.422 10.8327 279.227 10.3242 281.218 10.3242C284.383 10.3242 286.825 11.334 288.544 13.3535C290.277 15.373 291.143 18.2305 291.143 21.9258V24.0312H275.954C276.111 25.9505 276.749 27.4688 277.866 28.5859C278.998 29.7031 280.416 30.2617 282.12 30.2617C284.512 30.2617 286.46 29.2949 287.964 27.3613L290.778 30.0469C289.847 31.4362 288.601 32.5176 287.04 33.291C285.493 34.0501 283.753 34.4297 281.819 34.4297ZM281.196 14.5137C279.764 14.5137 278.604 15.015 277.716 16.0176C276.842 17.0202 276.283 18.4167 276.04 20.207H285.987V19.8203C285.873 18.0729 285.407 16.7552 284.591 15.8672C283.774 14.9648 282.643 14.5137 281.196 14.5137ZM306.066 15.5234C305.378 15.4089 304.669 15.3516 303.939 15.3516C301.547 15.3516 299.935 16.2682 299.105 18.1016V34H293.884V10.7539H298.868L298.997 13.3535C300.258 11.334 302.005 10.3242 304.239 10.3242C304.984 10.3242 305.6 10.4245 306.087 10.625L306.066 15.5234ZM321.074 27.6836C321.074 26.7526 320.687 26.0436 319.914 25.5566C319.154 25.0697 317.887 24.64 316.111 24.2676C314.335 23.8952 312.852 23.4225 311.664 22.8496C309.057 21.5892 307.753 19.763 307.753 17.3711C307.753 15.3659 308.598 13.6901 310.289 12.3438C311.979 10.9974 314.127 10.3242 316.734 10.3242C319.512 10.3242 321.754 11.0117 323.458 12.3867C325.177 13.7617 326.037 15.5449 326.037 17.7363H320.816C320.816 16.7337 320.443 15.903 319.699 15.2441C318.954 14.571 317.966 14.2344 316.734 14.2344C315.588 14.2344 314.65 14.4993 313.919 15.0293C313.203 15.5592 312.845 16.2682 312.845 17.1562C312.845 17.9583 313.182 18.5814 313.855 19.0254C314.528 19.4694 315.889 19.9206 317.937 20.3789C319.985 20.8229 321.589 21.36 322.749 21.9902C323.924 22.6061 324.79 23.3509 325.349 24.2246C325.922 25.0983 326.208 26.1582 326.208 27.4043C326.208 29.4954 325.342 31.1927 323.609 32.4961C321.876 33.7852 319.606 34.4297 316.798 34.4297C314.893 34.4297 313.196 34.0859 311.706 33.3984C310.217 32.7109 309.057 31.7656 308.226 30.5625C307.395 29.3594 306.98 28.0632 306.98 26.6738H312.05C312.122 27.9056 312.587 28.8581 313.447 29.5312C314.306 30.1901 315.445 30.5195 316.863 30.5195C318.238 30.5195 319.283 30.2617 319.999 29.7461C320.716 29.2161 321.074 28.5286 321.074 27.6836ZM328.476 22.1621C328.476 19.8848 328.927 17.8366 329.83 16.0176C330.732 14.1842 332 12.7806 333.633 11.8066C335.265 10.8184 337.142 10.3242 339.261 10.3242C342.398 10.3242 344.941 11.334 346.888 13.3535C348.851 15.373 349.911 18.0514 350.068 21.3887L350.09 22.6133C350.09 24.9049 349.646 26.9531 348.758 28.7578C347.884 30.5625 346.623 31.959 344.976 32.9473C343.344 33.9355 341.453 34.4297 339.304 34.4297C336.024 34.4297 333.396 33.3411 331.42 31.1641C329.457 28.9727 328.476 26.0579 328.476 22.4199V22.1621ZM333.697 22.6133C333.697 25.0052 334.191 26.8815 335.179 28.2422C336.168 29.5885 337.543 30.2617 339.304 30.2617C341.066 30.2617 342.434 29.5742 343.408 28.1992C344.396 26.8242 344.89 24.8118 344.89 22.1621C344.89 19.8132 344.382 17.9512 343.365 16.5762C342.362 15.2012 340.995 14.5137 339.261 14.5137C337.557 14.5137 336.204 15.194 335.201 16.5547C334.198 17.901 333.697 19.9206 333.697 22.6133ZM358.029 10.7539L358.18 13.4395C359.899 11.3626 362.154 10.3242 364.947 10.3242C369.789 10.3242 372.252 13.0957 372.338 18.6387V34H367.117V18.9395C367.117 17.4642 366.795 16.3757 366.15 15.6738C365.52 14.9577 364.482 14.5996 363.035 14.5996C360.93 14.5996 359.361 15.5521 358.33 17.457V34H353.109V10.7539H358.029ZM395.544 30.2617C396.847 30.2617 397.928 29.8822 398.788 29.123C399.647 28.3639 400.106 27.4258 400.163 26.3086H405.083C405.025 27.7552 404.574 29.1087 403.729 30.3691C402.884 31.6152 401.738 32.6035 400.292 33.334C398.845 34.0645 397.284 34.4297 395.608 34.4297C392.357 34.4297 389.779 33.377 387.874 31.2715C385.969 29.166 385.016 26.2585 385.016 22.5488V22.0117C385.016 18.474 385.962 15.6452 387.852 13.5254C389.743 11.3913 392.321 10.3242 395.587 10.3242C398.351 10.3242 400.6 11.1335 402.333 12.752C404.08 14.3561 404.997 16.4688 405.083 19.0898H400.163C400.106 17.7578 399.647 16.6621 398.788 15.8027C397.943 14.9434 396.861 14.5137 395.544 14.5137C393.854 14.5137 392.55 15.1296 391.634 16.3613C390.717 17.5788 390.251 19.4336 390.237 21.9258V22.7637C390.237 25.2845 390.688 27.168 391.591 28.4141C392.507 29.6458 393.825 30.2617 395.544 30.2617ZM406.728 22.1621C406.728 19.8848 407.179 17.8366 408.081 16.0176C408.983 14.1842 410.251 12.7806 411.884 11.8066C413.517 10.8184 415.393 10.3242 417.513 10.3242C420.649 10.3242 423.192 11.334 425.14 13.3535C427.102 15.373 428.162 18.0514 428.319 21.3887L428.341 22.6133C428.341 24.9049 427.897 26.9531 427.009 28.7578C426.135 30.5625 424.875 31.959 423.228 32.9473C421.595 33.9355 419.704 34.4297 417.556 34.4297C414.276 34.4297 411.647 33.3411 409.671 31.1641C407.709 28.9727 406.728 26.0579 406.728 22.4199V22.1621ZM411.948 22.6133C411.948 25.0052 412.442 26.8815 413.431 28.2422C414.419 29.5885 415.794 30.2617 417.556 30.2617C419.317 30.2617 420.685 29.5742 421.659 28.1992C422.647 26.8242 423.142 24.8118 423.142 22.1621C423.142 19.8132 422.633 17.9512 421.616 16.5762C420.614 15.2012 419.246 14.5137 417.513 14.5137C415.808 14.5137 414.455 15.194 413.452 16.5547C412.45 17.901 411.948 19.9206 411.948 22.6133ZM436.345 10.7539L436.495 13.1816C438.128 11.2767 440.363 10.3242 443.199 10.3242C446.307 10.3242 448.434 11.513 449.579 13.8906C451.27 11.513 453.647 10.3242 456.712 10.3242C459.276 10.3242 461.181 11.0332 462.427 12.4512C463.688 13.8691 464.332 15.9603 464.361 18.7246V34H459.14V18.875C459.14 17.3997 458.818 16.3184 458.173 15.6309C457.529 14.9434 456.462 14.5996 454.972 14.5996C453.783 14.5996 452.809 14.9219 452.05 15.5664C451.305 16.1966 450.783 17.0273 450.482 18.0586L450.503 34H445.283V18.7031C445.211 15.9674 443.814 14.5996 441.093 14.5996C439.002 14.5996 437.52 15.4518 436.646 17.1562V34H431.425V10.7539H436.345ZM478.638 34.4297C475.33 34.4297 472.644 33.3913 470.582 31.3145C468.534 29.2233 467.509 26.4447 467.509 22.9785V22.334C467.509 20.0137 467.953 17.944 468.841 16.125C469.744 14.2917 471.004 12.8665 472.623 11.8496C474.241 10.8327 476.046 10.3242 478.037 10.3242C481.202 10.3242 483.644 11.334 485.363 13.3535C487.096 15.373 487.963 18.2305 487.963 21.9258V24.0312H472.773C472.931 25.9505 473.568 27.4688 474.685 28.5859C475.817 29.7031 477.235 30.2617 478.939 30.2617C481.331 30.2617 483.279 29.2949 484.783 27.3613L487.597 30.0469C486.666 31.4362 485.42 32.5176 483.859 33.291C482.312 34.0501 480.572 34.4297 478.638 34.4297ZM478.015 14.5137C476.583 14.5137 475.423 15.015 474.535 16.0176C473.661 17.0202 473.103 18.4167 472.859 20.207H482.806V19.8203C482.692 18.0729 482.226 16.7552 481.41 15.8672C480.593 14.9648 479.462 14.5137 478.015 14.5137ZM503.744 27.6836C503.744 26.7526 503.357 26.0436 502.584 25.5566C501.825 25.0697 500.557 24.64 498.781 24.2676C497.005 23.8952 495.523 23.4225 494.334 22.8496C491.727 21.5892 490.424 19.763 490.424 17.3711C490.424 15.3659 491.269 13.6901 492.959 12.3438C494.649 10.9974 496.798 10.3242 499.404 10.3242C502.183 10.3242 504.424 11.0117 506.129 12.3867C507.848 13.7617 508.707 15.5449 508.707 17.7363H503.486C503.486 16.7337 503.114 15.903 502.369 15.2441C501.624 14.571 500.636 14.2344 499.404 14.2344C498.258 14.2344 497.32 14.4993 496.59 15.0293C495.874 15.5592 495.516 16.2682 495.516 17.1562C495.516 17.9583 495.852 18.5814 496.525 19.0254C497.199 19.4694 498.559 19.9206 500.607 20.3789C502.656 20.8229 504.26 21.36 505.42 21.9902C506.594 22.6061 507.461 23.3509 508.02 24.2246C508.592 25.0983 508.879 26.1582 508.879 27.4043C508.879 29.4954 508.012 31.1927 506.279 32.4961C504.546 33.7852 502.276 34.4297 499.469 34.4297C497.564 34.4297 495.867 34.0859 494.377 33.3984C492.887 32.7109 491.727 31.7656 490.896 30.5625C490.066 29.3594 489.65 28.0632 489.65 26.6738H494.721C494.792 27.9056 495.258 28.8581 496.117 29.5312C496.977 30.1901 498.115 30.5195 499.533 30.5195C500.908 30.5195 501.954 30.2617 502.67 29.7461C503.386 29.2161 503.744 28.5286 503.744 27.6836ZM535.651 34C535.422 33.556 535.221 32.8327 535.049 31.8301C533.388 33.5632 531.354 34.4297 528.948 34.4297C526.613 34.4297 524.708 33.7637 523.233 32.4316C521.758 31.0996 521.02 29.4525 521.02 27.4902C521.02 25.0124 521.937 23.1146 523.77 21.7969C525.618 20.4648 528.253 19.7988 531.676 19.7988H534.878V18.2734C534.878 17.0703 534.541 16.1107 533.868 15.3945C533.195 14.6641 532.171 14.2988 530.796 14.2988C529.607 14.2988 528.633 14.5996 527.874 15.2012C527.115 15.7884 526.735 16.5404 526.735 17.457H521.514C521.514 16.1823 521.937 14.9935 522.782 13.8906C523.627 12.7734 524.773 11.8997 526.219 11.2695C527.68 10.6393 529.306 10.3242 531.096 10.3242C533.818 10.3242 535.988 11.0117 537.606 12.3867C539.225 13.7474 540.055 15.6667 540.098 18.1445V28.6289C540.098 30.7201 540.392 32.3887 540.979 33.6348V34H535.651ZM529.915 30.2402C530.946 30.2402 531.913 29.9896 532.815 29.4883C533.732 28.987 534.419 28.3138 534.878 27.4688V23.0859H532.063C530.13 23.0859 528.676 23.4225 527.702 24.0957C526.728 24.7689 526.241 25.7214 526.241 26.9531C526.241 27.9557 526.57 28.7578 527.229 29.3594C527.902 29.9466 528.797 30.2402 529.915 30.2402ZM564.667 26.8027L568.362 10.7539H573.454L567.116 34H562.819L557.835 18.0371L552.936 34H548.64L542.28 10.7539H547.372L551.132 26.6309L555.901 10.7539H559.833L564.667 26.8027ZM589.515 34C589.286 33.556 589.085 32.8327 588.913 31.8301C587.252 33.5632 585.218 34.4297 582.812 34.4297C580.477 34.4297 578.572 33.7637 577.097 32.4316C575.622 31.0996 574.884 29.4525 574.884 27.4902C574.884 25.0124 575.801 23.1146 577.634 21.7969C579.482 20.4648 582.117 19.7988 585.54 19.7988H588.741V18.2734C588.741 17.0703 588.405 16.1107 587.732 15.3945C587.059 14.6641 586.034 14.2988 584.659 14.2988C583.471 14.2988 582.497 14.5996 581.738 15.2012C580.978 15.7884 580.599 16.5404 580.599 17.457H575.378C575.378 16.1823 575.801 14.9935 576.646 13.8906C577.491 12.7734 578.637 11.8997 580.083 11.2695C581.544 10.6393 583.17 10.3242 584.96 10.3242C587.682 10.3242 589.851 11.0117 591.47 12.3867C593.088 13.7474 593.919 15.6667 593.962 18.1445V28.6289C593.962 30.7201 594.256 32.3887 594.843 33.6348V34H589.515ZM583.779 30.2402C584.81 30.2402 585.777 29.9896 586.679 29.4883C587.596 28.987 588.283 28.3138 588.741 27.4688V23.0859H585.927C583.993 23.0859 582.54 23.4225 581.566 24.0957C580.592 24.7689 580.105 25.7214 580.105 26.9531C580.105 27.9557 580.434 28.7578 581.093 29.3594C581.766 29.9466 582.661 30.2402 583.779 30.2402ZM605.898 26.5234L610.625 10.7539H616.189L606.951 37.5234C605.533 41.4336 603.127 43.3887 599.732 43.3887C598.973 43.3887 598.135 43.2598 597.218 43.002V38.9629L598.207 39.0273C599.524 39.0273 600.513 38.7839 601.172 38.2969C601.845 37.8242 602.375 37.0221 602.761 35.8906L603.513 33.8926L595.349 10.7539H600.978L605.898 26.5234ZM641.414 34C641.185 33.556 640.985 32.8327 640.813 31.8301C639.151 33.5632 637.117 34.4297 634.711 34.4297C632.377 34.4297 630.472 33.7637 628.996 32.4316C627.521 31.0996 626.783 29.4525 626.783 27.4902C626.783 25.0124 627.7 23.1146 629.533 21.7969C631.381 20.4648 634.017 19.7988 637.44 19.7988H640.641V18.2734C640.641 17.0703 640.304 16.1107 639.631 15.3945C638.958 14.6641 637.934 14.2988 636.559 14.2988C635.37 14.2988 634.396 14.5996 633.637 15.2012C632.878 15.7884 632.498 16.5404 632.498 17.457H627.278C627.278 16.1823 627.7 14.9935 628.545 13.8906C629.39 12.7734 630.536 11.8997 631.983 11.2695C633.444 10.6393 635.069 10.3242 636.86 10.3242C639.581 10.3242 641.751 11.0117 643.369 12.3867C644.988 13.7474 645.819 15.6667 645.862 18.1445V28.6289C645.862 30.7201 646.155 32.3887 646.742 33.6348V34H641.414ZM635.678 30.2402C636.709 30.2402 637.676 29.9896 638.578 29.4883C639.495 28.987 640.183 28.3138 640.641 27.4688V23.0859H637.826C635.893 23.0859 634.439 23.4225 633.465 24.0957C632.491 24.7689 632.004 25.7214 632.004 26.9531C632.004 27.9557 632.334 28.7578 632.992 29.3594C633.666 29.9466 634.561 30.2402 635.678 30.2402ZM654.854 10.7539L655.004 13.4395C656.723 11.3626 658.979 10.3242 661.772 10.3242C666.613 10.3242 669.077 13.0957 669.163 18.6387V34H663.942V18.9395C663.942 17.4642 663.62 16.3757 662.975 15.6738C662.345 14.9577 661.307 14.5996 659.86 14.5996C657.754 14.5996 656.186 15.5521 655.155 17.457V34H649.934V10.7539H654.854ZM672.204 22.2051C672.204 18.6243 673.035 15.7526 674.696 13.5898C676.358 11.4128 678.585 10.3242 681.378 10.3242C683.841 10.3242 685.832 11.1836 687.35 12.9023V1H692.571V34H687.845L687.587 31.5938C686.026 33.4844 683.942 34.4297 681.335 34.4297C678.613 34.4297 676.408 33.334 674.718 31.1426C673.042 28.9512 672.204 25.972 672.204 22.2051ZM677.425 22.6562C677.425 25.0195 677.876 26.8672 678.778 28.1992C679.695 29.5169 680.991 30.1758 682.667 30.1758C684.801 30.1758 686.362 29.2233 687.35 27.3184V17.3926C686.391 15.5306 684.844 14.5996 682.71 14.5996C681.02 14.5996 679.716 15.2728 678.8 16.6191C677.883 17.9512 677.425 19.9635 677.425 22.6562ZM719.365 27.6836C719.365 26.7526 718.978 26.0436 718.205 25.5566C717.445 25.0697 716.178 24.64 714.402 24.2676C712.626 23.8952 711.143 23.4225 709.955 22.8496C707.348 21.5892 706.044 19.763 706.044 17.3711C706.044 15.3659 706.889 13.6901 708.58 12.3438C710.27 10.9974 712.418 10.3242 715.025 10.3242C717.804 10.3242 720.045 11.0117 721.75 12.3867C723.468 13.7617 724.328 15.5449 724.328 17.7363H719.107C719.107 16.7337 718.735 15.903 717.99 15.2441C717.245 14.571 716.257 14.2344 715.025 14.2344C713.879 14.2344 712.941 14.4993 712.21 15.0293C711.494 15.5592 711.136 16.2682 711.136 17.1562C711.136 17.9583 711.473 18.5814 712.146 19.0254C712.819 19.4694 714.18 19.9206 716.228 20.3789C718.276 20.8229 719.88 21.36 721.041 21.9902C722.215 22.6061 723.082 23.3509 723.64 24.2246C724.213 25.0983 724.5 26.1582 724.5 27.4043C724.5 29.4954 723.633 31.1927 721.9 32.4961C720.167 33.7852 717.897 34.4297 715.089 34.4297C713.184 34.4297 711.487 34.0859 709.998 33.3984C708.508 32.7109 707.348 31.7656 706.517 30.5625C705.686 29.3594 705.271 28.0632 705.271 26.6738H710.341C710.413 27.9056 710.878 28.8581 711.738 29.5312C712.597 30.1901 713.736 30.5195 715.154 30.5195C716.529 30.5195 717.574 30.2617 718.291 29.7461C719.007 29.2161 719.365 28.5286 719.365 27.6836ZM741.635 34C741.405 33.556 741.205 32.8327 741.033 31.8301C739.372 33.5632 737.338 34.4297 734.931 34.4297C732.597 34.4297 730.692 33.7637 729.217 32.4316C727.741 31.0996 727.004 29.4525 727.004 27.4902C727.004 25.0124 727.92 23.1146 729.754 21.7969C731.601 20.4648 734.237 19.7988 737.66 19.7988H740.861V18.2734C740.861 17.0703 740.525 16.1107 739.851 15.3945C739.178 14.6641 738.154 14.2988 736.779 14.2988C735.59 14.2988 734.616 14.5996 733.857 15.2012C733.098 15.7884 732.719 16.5404 732.719 17.457H727.498C727.498 16.1823 727.92 14.9935 728.765 13.8906C729.61 12.7734 730.756 11.8997 732.203 11.2695C733.664 10.6393 735.29 10.3242 737.08 10.3242C739.801 10.3242 741.971 11.0117 743.59 12.3867C745.208 13.7474 746.039 15.6667 746.082 18.1445V28.6289C746.082 30.7201 746.375 32.3887 746.963 33.6348V34H741.635ZM735.898 30.2402C736.93 30.2402 737.896 29.9896 738.799 29.4883C739.715 28.987 740.403 28.3138 740.861 27.4688V23.0859H738.047C736.113 23.0859 734.659 23.4225 733.685 24.0957C732.711 24.7689 732.224 25.7214 732.224 26.9531C732.224 27.9557 732.554 28.7578 733.213 29.3594C733.886 29.9466 734.781 30.2402 735.898 30.2402ZM758.018 26.5234L762.744 10.7539H768.309L759.07 37.5234C757.653 41.4336 755.246 43.3887 751.852 43.3887C751.093 43.3887 750.255 43.2598 749.338 43.002V38.9629L750.326 39.0273C751.644 39.0273 752.632 38.7839 753.291 38.2969C753.964 37.8242 754.494 37.0221 754.881 35.8906L755.633 33.8926L747.469 10.7539H753.098L758.018 26.5234ZM783.038 27.6836C783.038 26.7526 782.651 26.0436 781.877 25.5566C781.118 25.0697 779.851 24.64 778.075 24.2676C776.299 23.8952 774.816 23.4225 773.627 22.8496C771.021 21.5892 769.717 19.763 769.717 17.3711C769.717 15.3659 770.562 13.6901 772.252 12.3438C773.943 10.9974 776.091 10.3242 778.698 10.3242C781.476 10.3242 783.718 11.0117 785.422 12.3867C787.141 13.7617 788 15.5449 788 17.7363H782.78C782.78 16.7337 782.407 15.903 781.663 15.2441C780.918 14.571 779.93 14.2344 778.698 14.2344C777.552 14.2344 776.614 14.4993 775.883 15.0293C775.167 15.5592 774.809 16.2682 774.809 17.1562C774.809 17.9583 775.146 18.5814 775.819 19.0254C776.492 19.4694 777.853 19.9206 779.901 20.3789C781.949 20.8229 783.553 21.36 784.713 21.9902C785.888 22.6061 786.754 23.3509 787.313 24.2246C787.886 25.0983 788.172 26.1582 788.172 27.4043C788.172 29.4954 787.306 31.1927 785.573 32.4961C783.84 33.7852 781.569 34.4297 778.762 34.4297C776.857 34.4297 775.16 34.0859 773.67 33.3984C772.181 32.7109 771.021 31.7656 770.19 30.5625C769.359 29.3594 768.944 28.0632 768.944 26.6738H774.014C774.086 27.9056 774.551 28.8581 775.411 29.5312C776.27 30.1901 777.409 30.5195 778.827 30.5195C780.202 30.5195 781.247 30.2617 781.963 29.7461C782.68 29.2161 783.038 28.5286 783.038 27.6836ZM811.185 22.8066H799.905V18.5957H811.185V22.8066ZM844.23 26.8027L847.926 10.7539H853.017L846.679 34H842.383L837.398 18.0371L832.5 34H828.203L821.844 10.7539H826.935L830.695 26.6309L835.465 10.7539H839.396L844.23 26.8027ZM854.211 22.1621C854.211 19.8848 854.662 17.8366 855.565 16.0176C856.467 14.1842 857.734 12.7806 859.367 11.8066C861 10.8184 862.876 10.3242 864.996 10.3242C868.133 10.3242 870.675 11.334 872.623 13.3535C874.585 15.373 875.645 18.0514 875.803 21.3887L875.824 22.6133C875.824 24.9049 875.38 26.9531 874.492 28.7578C873.619 30.5625 872.358 31.959 870.711 32.9473C869.078 33.9355 867.188 34.4297 865.039 34.4297C861.759 34.4297 859.131 33.3411 857.154 31.1641C855.192 28.9727 854.211 26.0579 854.211 22.4199V22.1621ZM859.432 22.6133C859.432 25.0052 859.926 26.8815 860.914 28.2422C861.902 29.5885 863.277 30.2617 865.039 30.2617C866.801 30.2617 868.169 29.5742 869.143 28.1992C870.131 26.8242 870.625 24.8118 870.625 22.1621C870.625 19.8132 870.117 17.9512 869.1 16.5762C868.097 15.2012 866.729 14.5137 864.996 14.5137C863.292 14.5137 861.938 15.194 860.936 16.5547C859.933 17.901 859.432 19.9206 859.432 22.6133ZM899.34 26.8027L903.036 10.7539H908.127L901.789 34H897.493L892.508 18.0371L887.61 34H883.313L876.953 10.7539H882.045L885.805 26.6309L890.575 10.7539H894.506L899.34 26.8027ZM9.2168 53.1035V58.7539H13.3203V62.6211H9.2168V75.5977C9.2168 76.4857 9.38867 77.1302 9.73242 77.5312C10.0905 77.918 10.7207 78.1113 11.623 78.1113C12.2246 78.1113 12.8333 78.0397 13.4492 77.8965V81.9355C12.2604 82.265 11.1146 82.4297 10.0117 82.4297C6.0013 82.4297 3.99609 80.2168 3.99609 75.791V62.6211H0.171875V58.7539H3.99609V53.1035H9.2168ZM21.1527 61.2891C22.8571 59.3125 25.0127 58.3242 27.6195 58.3242C32.5752 58.3242 35.0889 61.153 35.1605 66.8105V82H29.9398V67.0039C29.9398 65.3997 29.5889 64.2682 28.887 63.6094C28.1995 62.9362 27.1826 62.5996 25.8363 62.5996C23.7451 62.5996 22.1839 63.5306 21.1527 65.3926V82H15.932V49H21.1527V61.2891ZM53.026 82C52.7968 81.556 52.5963 80.8327 52.4245 79.8301C50.763 81.5632 48.7291 82.4297 46.3229 82.4297C43.9883 82.4297 42.0833 81.7637 40.608 80.4316C39.1328 79.0996 38.3952 77.4525 38.3952 75.4902C38.3952 73.0124 39.3118 71.1146 41.1452 69.7969C42.9928 68.4648 45.6282 67.7988 49.0514 67.7988H52.2526V66.2734C52.2526 65.0703 51.916 64.1107 51.2428 63.3945C50.5696 62.6641 49.5455 62.2988 48.1705 62.2988C46.9817 62.2988 46.0078 62.5996 45.2487 63.2012C44.4896 63.7884 44.11 64.5404 44.11 65.457H38.8893C38.8893 64.1823 39.3118 62.9935 40.1569 61.8906C41.0019 60.7734 42.1478 59.8997 43.5944 59.2695C45.0553 58.6393 46.681 58.3242 48.4713 58.3242C51.1927 58.3242 53.3626 59.0117 54.9811 60.3867C56.5996 61.7474 57.4303 63.6667 57.4733 66.1445V76.6289C57.4733 78.7201 57.7669 80.3887 58.3541 81.6348V82H53.026ZM47.2897 78.2402C48.3209 78.2402 49.2877 77.9896 50.1901 77.4883C51.1067 76.987 51.7942 76.3138 52.2526 75.4688V71.0859H49.4381C47.5045 71.0859 46.0508 71.4225 45.0768 72.0957C44.1028 72.7689 43.6159 73.7214 43.6159 74.9531C43.6159 75.9557 43.9453 76.7578 44.6041 77.3594C45.2773 77.9466 46.1725 78.2402 47.2897 78.2402ZM68.163 53.1035V58.7539H72.2666V62.6211H68.163V75.5977C68.163 76.4857 68.3349 77.1302 68.6787 77.5312C69.0367 77.918 69.667 78.1113 70.5693 78.1113C71.1709 78.1113 71.7796 78.0397 72.3955 77.8965V81.9355C71.2067 82.265 70.0608 82.4297 68.958 82.4297C64.9476 82.4297 62.9423 80.2168 62.9423 75.791V62.6211H59.1181V58.7539H62.9423V53.1035H68.163ZM78.0149 51.6855L77.4563 60.0859H74.0403V49H78.0149V51.6855ZM92.1207 75.6836C92.1207 74.7526 91.734 74.0436 90.9605 73.5566C90.2014 73.0697 88.9339 72.64 87.1578 72.2676C85.3818 71.8952 83.8994 71.4225 82.7105 70.8496C80.1038 69.5892 78.8004 67.763 78.8004 65.3711C78.8004 63.3659 79.6454 61.6901 81.3355 60.3438C83.0257 58.9974 85.1741 58.3242 87.7809 58.3242C90.5595 58.3242 92.801 59.0117 94.5055 60.3867C96.2242 61.7617 97.0836 63.5449 97.0836 65.7363H91.8629C91.8629 64.7337 91.4905 63.903 90.7457 63.2441C90.0009 62.571 89.0126 62.2344 87.7809 62.2344C86.635 62.2344 85.6969 62.4993 84.9664 63.0293C84.2503 63.5592 83.8922 64.2682 83.8922 65.1562C83.8922 65.9583 84.2288 66.5814 84.902 67.0254C85.5751 67.4694 86.9358 67.9206 88.984 68.3789C91.0322 68.8229 92.6363 69.36 93.7965 69.9902C94.971 70.6061 95.8375 71.3509 96.3961 72.2246C96.969 73.0983 97.2555 74.1582 97.2555 75.4043C97.2555 77.4954 96.3889 79.1927 94.6559 80.4961C92.9228 81.7852 90.6526 82.4297 87.8453 82.4297C85.9404 82.4297 84.2431 82.0859 82.7535 81.3984C81.2639 80.7109 80.1038 79.7656 79.273 78.5625C78.4423 77.3594 78.027 76.0632 78.027 74.6738H83.0973C83.1689 75.9056 83.6344 76.8581 84.4938 77.5312C85.3531 78.1901 86.4918 78.5195 87.9098 78.5195C89.2848 78.5195 90.3303 78.2617 91.0465 77.7461C91.7626 77.2161 92.1207 76.5286 92.1207 75.6836ZM124.028 82C123.798 81.556 123.598 80.8327 123.426 79.8301C121.765 81.5632 119.731 82.4297 117.324 82.4297C114.99 82.4297 113.085 81.7637 111.61 80.4316C110.134 79.0996 109.397 77.4525 109.397 75.4902C109.397 73.0124 110.313 71.1146 112.147 69.7969C113.994 68.4648 116.63 67.7988 120.053 67.7988H123.254V66.2734C123.254 65.0703 122.918 64.1107 122.244 63.3945C121.571 62.6641 120.547 62.2988 119.172 62.2988C117.983 62.2988 117.009 62.5996 116.25 63.2012C115.491 63.7884 115.112 64.5404 115.112 65.457H109.891C109.891 64.1823 110.313 62.9935 111.158 61.8906C112.003 60.7734 113.149 59.8997 114.596 59.2695C116.057 58.6393 117.683 58.3242 119.473 58.3242C122.194 58.3242 124.364 59.0117 125.983 60.3867C127.601 61.7474 128.432 63.6667 128.475 66.1445V76.6289C128.475 78.7201 128.768 80.3887 129.356 81.6348V82H124.028ZM118.291 78.2402C119.323 78.2402 120.289 77.9896 121.192 77.4883C122.108 76.987 122.796 76.3138 123.254 75.4688V71.0859H120.44C118.506 71.0859 117.052 71.4225 116.078 72.0957C115.104 72.7689 114.617 73.7214 114.617 74.9531C114.617 75.9557 114.947 76.7578 115.606 77.3594C116.279 77.9466 117.174 78.2402 118.291 78.2402ZM154.431 63.5234C153.743 63.4089 153.034 63.3516 152.304 63.3516C149.912 63.3516 148.3 64.2682 147.47 66.1016V82H142.249V58.7539H147.233L147.362 61.3535C148.623 59.334 150.37 58.3242 152.604 58.3242C153.349 58.3242 153.965 58.4245 154.452 58.625L154.431 63.5234ZM166.216 82.4297C162.907 82.4297 160.222 81.3913 158.159 79.3145C156.111 77.2233 155.087 74.4447 155.087 70.9785V70.334C155.087 68.0137 155.531 65.944 156.419 64.125C157.321 62.2917 158.582 60.8665 160.2 59.8496C161.819 58.8327 163.624 58.3242 165.614 58.3242C168.78 58.3242 171.222 59.334 172.941 61.3535C174.674 63.373 175.54 66.2305 175.54 69.9258V72.0312H160.351C160.508 73.9505 161.146 75.4688 162.263 76.5859C163.394 77.7031 164.812 78.2617 166.517 78.2617C168.909 78.2617 170.857 77.2949 172.361 75.3613L175.175 78.0469C174.244 79.4362 172.998 80.5176 171.437 81.291C169.89 82.0501 168.15 82.4297 166.216 82.4297ZM165.593 62.5137C164.161 62.5137 163.001 63.015 162.113 64.0176C161.239 65.0202 160.68 66.4167 160.437 68.207H170.384V67.8203C170.269 66.0729 169.804 64.7552 168.988 63.8672C168.171 62.9648 167.04 62.5137 165.593 62.5137ZM192.181 82C191.952 81.556 191.751 80.8327 191.58 79.8301C189.918 81.5632 187.884 82.4297 185.478 82.4297C183.143 82.4297 181.238 81.7637 179.763 80.4316C178.288 79.0996 177.55 77.4525 177.55 75.4902C177.55 73.0124 178.467 71.1146 180.3 69.7969C182.148 68.4648 184.783 67.7988 188.207 67.7988H191.408V66.2734C191.408 65.0703 191.071 64.1107 190.398 63.3945C189.725 62.6641 188.701 62.2988 187.326 62.2988C186.137 62.2988 185.163 62.5996 184.404 63.2012C183.645 63.7884 183.265 64.5404 183.265 65.457H178.044C178.044 64.1823 178.467 62.9935 179.312 61.8906C180.157 60.7734 181.303 59.8997 182.75 59.2695C184.21 58.6393 185.836 58.3242 187.626 58.3242C190.348 58.3242 192.518 59.0117 194.136 60.3867C195.755 61.7474 196.585 63.6667 196.628 66.1445V76.6289C196.628 78.7201 196.922 80.3887 197.509 81.6348V82H192.181ZM186.445 78.2402C187.476 78.2402 188.443 77.9896 189.345 77.4883C190.262 76.987 190.949 76.3138 191.408 75.4688V71.0859H188.593C186.66 71.0859 185.206 71.4225 184.232 72.0957C183.258 72.7689 182.771 73.7214 182.771 74.9531C182.771 75.9557 183.1 76.7578 183.759 77.3594C184.432 77.9466 185.328 78.2402 186.445 78.2402ZM206.33 82H201.109V49H206.33V82ZM216.268 82H211.047V49H216.268V82ZM228.784 74.5234L233.51 58.7539H239.075L229.836 85.5234C228.418 89.4336 226.012 91.3887 222.618 91.3887C221.859 91.3887 221.021 91.2598 220.104 91.002V86.9629L221.092 87.0273C222.41 87.0273 223.398 86.7839 224.057 86.2969C224.73 85.8242 225.26 85.0221 225.647 83.8906L226.399 81.8926L218.235 58.7539H223.864L228.784 74.5234ZM263.441 75.6836C263.441 74.7526 263.054 74.0436 262.28 73.5566C261.521 73.0697 260.254 72.64 258.478 72.2676C256.702 71.8952 255.219 71.4225 254.03 70.8496C251.424 69.5892 250.12 67.763 250.12 65.3711C250.12 63.3659 250.965 61.6901 252.655 60.3438C254.345 58.9974 256.494 58.3242 259.101 58.3242C261.879 58.3242 264.121 59.0117 265.825 60.3867C267.544 61.7617 268.403 63.5449 268.403 65.7363H263.183C263.183 64.7337 262.81 63.903 262.066 63.2441C261.321 62.571 260.332 62.2344 259.101 62.2344C257.955 62.2344 257.017 62.4993 256.286 63.0293C255.57 63.5592 255.212 64.2682 255.212 65.1562C255.212 65.9583 255.549 66.5814 256.222 67.0254C256.895 67.4694 258.256 67.9206 260.304 68.3789C262.352 68.8229 263.956 69.36 265.116 69.9902C266.291 70.6061 267.157 71.3509 267.716 72.2246C268.289 73.0983 268.575 74.1582 268.575 75.4043C268.575 77.4954 267.709 79.1927 265.976 80.4961C264.243 81.7852 261.972 82.4297 259.165 82.4297C257.26 82.4297 255.563 82.0859 254.073 81.3984C252.584 80.7109 251.424 79.7656 250.593 78.5625C249.762 77.3594 249.347 76.0632 249.347 74.6738H254.417C254.489 75.9056 254.954 76.8581 255.814 77.5312C256.673 78.1901 257.812 78.5195 259.23 78.5195C260.605 78.5195 261.65 78.2617 262.366 77.7461C263.082 77.2161 263.441 76.5286 263.441 75.6836ZM277.374 82H272.154V49H277.374V82ZM287.312 82H282.092V58.7539H287.312V82ZM281.769 52.7168C281.769 51.9147 282.02 51.2487 282.521 50.7188C283.037 50.1888 283.767 49.9238 284.713 49.9238C285.658 49.9238 286.388 50.1888 286.904 50.7188C287.42 51.2487 287.677 51.9147 287.677 52.7168C287.677 53.5046 287.42 54.1634 286.904 54.6934C286.388 55.209 285.658 55.4668 284.713 55.4668C283.767 55.4668 283.037 55.209 282.521 54.6934C282.02 54.1634 281.769 53.5046 281.769 52.7168ZM301.246 78.2617C302.55 78.2617 303.631 77.8822 304.49 77.123C305.35 76.3639 305.808 75.4258 305.865 74.3086H310.785C310.728 75.7552 310.277 77.1087 309.432 78.3691C308.587 79.6152 307.441 80.6035 305.994 81.334C304.548 82.0645 302.986 82.4297 301.311 82.4297C298.059 82.4297 295.481 81.377 293.576 79.2715C291.671 77.166 290.719 74.2585 290.719 70.5488V70.0117C290.719 66.474 291.664 63.6452 293.555 61.5254C295.445 59.3913 298.024 58.3242 301.289 58.3242C304.053 58.3242 306.302 59.1335 308.035 60.752C309.783 62.3561 310.699 64.4688 310.785 67.0898H305.865C305.808 65.7578 305.35 64.6621 304.49 63.8027C303.645 62.9434 302.564 62.5137 301.246 62.5137C299.556 62.5137 298.253 63.1296 297.336 64.3613C296.419 65.5788 295.954 67.4336 295.94 69.9258V70.7637C295.94 73.2845 296.391 75.168 297.293 76.4141C298.21 77.6458 299.527 78.2617 301.246 78.2617ZM320.959 72.0312L318.639 74.416V82H313.418V49H318.639V68.0352L320.272 65.9941L326.696 58.7539H332.969L324.332 68.4434L333.893 82H327.856L320.959 72.0312ZM354.95 82.4297C351.642 82.4297 348.956 81.3913 346.894 79.3145C344.845 77.2233 343.821 74.4447 343.821 70.9785V70.334C343.821 68.0137 344.265 65.944 345.153 64.125C346.056 62.2917 347.316 60.8665 348.935 59.8496C350.553 58.8327 352.358 58.3242 354.349 58.3242C357.514 58.3242 359.956 59.334 361.675 61.3535C363.408 63.373 364.274 66.2305 364.274 69.9258V72.0312H349.085C349.243 73.9505 349.88 75.4688 350.997 76.5859C352.129 77.7031 353.547 78.2617 355.251 78.2617C357.643 78.2617 359.591 77.2949 361.095 75.3613L363.909 78.0469C362.978 79.4362 361.732 80.5176 360.171 81.291C358.624 82.0501 356.884 82.4297 354.95 82.4297ZM354.327 62.5137C352.895 62.5137 351.735 63.015 350.847 64.0176C349.973 65.0202 349.414 66.4167 349.171 68.207H359.118V67.8203C359.004 66.0729 358.538 64.7552 357.722 63.8672C356.905 62.9648 355.774 62.5137 354.327 62.5137ZM375.372 66.4023L379.798 58.7539H385.599L378.488 70.2051L385.835 82H380.077L375.437 74.0508L370.818 82H365.017L372.365 70.2051L365.275 58.7539H371.033L375.372 66.4023ZM408.191 70.6133C408.191 74.2083 407.375 77.0801 405.742 79.2285C404.109 81.3626 401.918 82.4297 399.168 82.4297C396.618 82.4297 394.577 81.5918 393.045 79.916V90.9375H387.824V58.7539H392.636L392.851 61.1172C394.384 59.2552 396.468 58.3242 399.103 58.3242C401.939 58.3242 404.159 59.3841 405.763 61.5039C407.382 63.6094 408.191 66.5384 408.191 70.291V70.6133ZM402.992 70.1621C402.992 67.8418 402.526 66.0013 401.595 64.6406C400.679 63.2799 399.361 62.5996 397.642 62.5996C395.508 62.5996 393.976 63.4805 393.045 65.2422V75.5547C393.99 77.3594 395.537 78.2617 397.685 78.2617C399.347 78.2617 400.643 77.5957 401.574 76.2637C402.519 74.9173 402.992 72.8835 402.992 70.1621ZM421.545 82.4297C418.236 82.4297 415.551 81.3913 413.488 79.3145C411.44 77.2233 410.416 74.4447 410.416 70.9785V70.334C410.416 68.0137 410.86 65.944 411.748 64.125C412.65 62.2917 413.911 60.8665 415.529 59.8496C417.148 58.8327 418.952 58.3242 420.943 58.3242C424.109 58.3242 426.551 59.334 428.27 61.3535C430.003 63.373 430.869 66.2305 430.869 69.9258V72.0312H415.68C415.837 73.9505 416.475 75.4688 417.592 76.5859C418.723 77.7031 420.141 78.2617 421.846 78.2617C424.238 78.2617 426.186 77.2949 427.689 75.3613L430.504 78.0469C429.573 79.4362 428.327 80.5176 426.766 81.291C425.219 82.0501 423.479 82.4297 421.545 82.4297ZM420.922 62.5137C419.49 62.5137 418.329 63.015 417.441 64.0176C416.568 65.0202 416.009 66.4167 415.766 68.207H425.713V67.8203C425.598 66.0729 425.133 64.7552 424.316 63.8672C423.5 62.9648 422.368 62.5137 420.922 62.5137ZM445.791 63.5234C445.104 63.4089 444.395 63.3516 443.664 63.3516C441.272 63.3516 439.661 64.2682 438.83 66.1016V82H433.61V58.7539H438.594L438.723 61.3535C439.983 59.334 441.731 58.3242 443.965 58.3242C444.71 58.3242 445.326 58.4245 445.813 58.625L445.791 63.5234ZM453.323 82H448.102V58.7539H453.323V82ZM447.78 52.7168C447.78 51.9147 448.031 51.2487 448.532 50.7188C449.047 50.1888 449.778 49.9238 450.723 49.9238C451.669 49.9238 452.399 50.1888 452.915 50.7188C453.43 51.2487 453.688 51.9147 453.688 52.7168C453.688 53.5046 453.43 54.1634 452.915 54.6934C452.399 55.209 451.669 55.4668 450.723 55.4668C449.778 55.4668 449.047 55.209 448.532 54.6934C448.031 54.1634 447.78 53.5046 447.78 52.7168ZM467.944 82.4297C464.636 82.4297 461.95 81.3913 459.888 79.3145C457.839 77.2233 456.815 74.4447 456.815 70.9785V70.334C456.815 68.0137 457.259 65.944 458.147 64.125C459.05 62.2917 460.31 60.8665 461.929 59.8496C463.547 58.8327 465.352 58.3242 467.343 58.3242C470.508 58.3242 472.95 59.334 474.669 61.3535C476.402 63.373 477.269 66.2305 477.269 69.9258V72.0312H462.079C462.237 73.9505 462.874 75.4688 463.991 76.5859C465.123 77.7031 466.541 78.2617 468.245 78.2617C470.637 78.2617 472.585 77.2949 474.089 75.3613L476.903 78.0469C475.972 79.4362 474.726 80.5176 473.165 81.291C471.618 82.0501 469.878 82.4297 467.944 82.4297ZM467.321 62.5137C465.889 62.5137 464.729 63.015 463.841 64.0176C462.967 65.0202 462.408 66.4167 462.165 68.207H472.112V67.8203C471.998 66.0729 471.532 64.7552 470.716 63.8672C469.899 62.9648 468.768 62.5137 467.321 62.5137ZM484.865 58.7539L485.015 61.4395C486.734 59.3626 488.99 58.3242 491.783 58.3242C496.624 58.3242 499.087 61.0957 499.173 66.6387V82H493.952V66.9395C493.952 65.4642 493.63 64.3757 492.986 63.6738C492.355 62.9577 491.317 62.5996 489.87 62.5996C487.765 62.5996 486.197 63.5521 485.165 65.457V82H479.945V58.7539H484.865ZM512.742 78.2617C514.045 78.2617 515.127 77.8822 515.986 77.123C516.845 76.3639 517.304 75.4258 517.361 74.3086H522.281C522.224 75.7552 521.772 77.1087 520.927 78.3691C520.082 79.6152 518.936 80.6035 517.49 81.334C516.043 82.0645 514.482 82.4297 512.806 82.4297C509.555 82.4297 506.977 81.377 505.072 79.2715C503.167 77.166 502.214 74.2585 502.214 70.5488V70.0117C502.214 66.474 503.16 63.6452 505.05 61.5254C506.941 59.3913 509.519 58.3242 512.785 58.3242C515.549 58.3242 517.798 59.1335 519.531 60.752C521.278 62.3561 522.195 64.4688 522.281 67.0898H517.361C517.304 65.7578 516.845 64.6621 515.986 63.8027C515.141 62.9434 514.059 62.5137 512.742 62.5137C511.052 62.5137 509.748 63.1296 508.832 64.3613C507.915 65.5788 507.449 67.4336 507.435 69.9258V70.7637C507.435 73.2845 507.886 75.168 508.789 76.4141C509.705 77.6458 511.023 78.2617 512.742 78.2617ZM535.141 82.4297C531.832 82.4297 529.146 81.3913 527.084 79.3145C525.036 77.2233 524.012 74.4447 524.012 70.9785V70.334C524.012 68.0137 524.456 65.944 525.344 64.125C526.246 62.2917 527.506 60.8665 529.125 59.8496C530.743 58.8327 532.548 58.3242 534.539 58.3242C537.704 58.3242 540.146 59.334 541.865 61.3535C543.598 63.373 544.465 66.2305 544.465 69.9258V72.0312H529.275C529.433 73.9505 530.07 75.4688 531.187 76.5859C532.319 77.7031 533.737 78.2617 535.441 78.2617C537.833 78.2617 539.781 77.2949 541.285 75.3613L544.1 78.0469C543.169 79.4362 541.922 80.5176 540.361 81.291C538.814 82.0501 537.074 82.4297 535.141 82.4297ZM534.518 62.5137C533.085 62.5137 531.925 63.015 531.037 64.0176C530.163 65.0202 529.605 66.4167 529.361 68.207H539.309V67.8203C539.194 66.0729 538.728 64.7552 537.912 63.8672C537.096 62.9648 535.964 62.5137 534.518 62.5137ZM547.957 89.0469L545.143 87.3711C545.974 86.0677 546.539 84.929 546.84 83.9551C547.155 82.9954 547.32 82.0143 547.334 81.0117V76.9512H552.039L552.018 80.7109C552.003 82.2292 551.617 83.7474 550.858 85.2656C550.113 86.7982 549.146 88.0586 547.957 89.0469ZM571.743 53.1035V58.7539H575.847V62.6211H571.743V75.5977C571.743 76.4857 571.915 77.1302 572.259 77.5312C572.617 77.918 573.247 78.1113 574.149 78.1113C574.751 78.1113 575.36 78.0397 575.975 77.8965V81.9355C574.787 82.265 573.641 82.4297 572.538 82.4297C568.528 82.4297 566.522 80.2168 566.522 75.791V62.6211H562.698V58.7539H566.522V53.1035H571.743ZM583.679 61.2891C585.383 59.3125 587.539 58.3242 590.146 58.3242C595.101 58.3242 597.615 61.153 597.687 66.8105V82H592.466V67.0039C592.466 65.3997 592.115 64.2682 591.413 63.6094C590.726 62.9362 589.709 62.5996 588.362 62.5996C586.271 62.5996 584.71 63.5306 583.679 65.3926V82H578.458V49H583.679V61.2891ZM615.552 82C615.323 81.556 615.123 80.8327 614.951 79.8301C613.289 81.5632 611.255 82.4297 608.849 82.4297C606.514 82.4297 604.61 81.7637 603.134 80.4316C601.659 79.0996 600.921 77.4525 600.921 75.4902C600.921 73.0124 601.838 71.1146 603.671 69.7969C605.519 68.4648 608.154 67.7988 611.578 67.7988H614.779V66.2734C614.779 65.0703 614.442 64.1107 613.769 63.3945C613.096 62.6641 612.072 62.2988 610.697 62.2988C609.508 62.2988 608.534 62.5996 607.775 63.2012C607.016 63.7884 606.636 64.5404 606.636 65.457H601.416C601.416 64.1823 601.838 62.9935 602.683 61.8906C603.528 60.7734 604.674 59.8997 606.121 59.2695C607.582 58.6393 609.207 58.3242 610.998 58.3242C613.719 58.3242 615.889 59.0117 617.507 60.3867C619.126 61.7474 619.957 63.6667 620 66.1445V76.6289C620 78.7201 620.293 80.3887 620.88 81.6348V82H615.552ZM609.816 78.2402C610.847 78.2402 611.814 77.9896 612.716 77.4883C613.633 76.987 614.32 76.3138 614.779 75.4688V71.0859H611.964C610.031 71.0859 608.577 71.4225 607.603 72.0957C606.629 72.7689 606.142 73.7214 606.142 74.9531C606.142 75.9557 606.472 76.7578 607.13 77.3594C607.804 77.9466 608.699 78.2402 609.816 78.2402ZM630.689 53.1035V58.7539H634.793V62.6211H630.689V75.5977C630.689 76.4857 630.861 77.1302 631.205 77.5312C631.563 77.918 632.193 78.1113 633.096 78.1113C633.697 78.1113 634.306 78.0397 634.922 77.8965V81.9355C633.733 82.265 632.587 82.4297 631.484 82.4297C627.474 82.4297 625.469 80.2168 625.469 75.791V62.6211H621.644V58.7539H625.469V53.1035H630.689ZM667.538 74.8027L671.233 58.7539H676.325L669.987 82H665.69L660.706 66.0371L655.807 82H651.51L645.151 58.7539H650.243L654.002 74.6309L658.772 58.7539H662.704L667.538 74.8027ZM692.386 82C692.156 81.556 691.956 80.8327 691.784 79.8301C690.123 81.5632 688.089 82.4297 685.682 82.4297C683.348 82.4297 681.443 81.7637 679.968 80.4316C678.492 79.0996 677.755 77.4525 677.755 75.4902C677.755 73.0124 678.671 71.1146 680.505 69.7969C682.352 68.4648 684.988 67.7988 688.411 67.7988H691.612V66.2734C691.612 65.0703 691.276 64.1107 690.602 63.3945C689.929 62.6641 688.905 62.2988 687.53 62.2988C686.341 62.2988 685.367 62.5996 684.608 63.2012C683.849 63.7884 683.47 64.5404 683.47 65.457H678.249C678.249 64.1823 678.671 62.9935 679.516 61.8906C680.361 60.7734 681.507 59.8997 682.954 59.2695C684.415 58.6393 686.041 58.3242 687.831 58.3242C690.552 58.3242 692.722 59.0117 694.341 60.3867C695.959 61.7474 696.79 63.6667 696.833 66.1445V76.6289C696.833 78.7201 697.126 80.3887 697.714 81.6348V82H692.386ZM686.649 78.2402C687.68 78.2402 688.647 77.9896 689.55 77.4883C690.466 76.987 691.154 76.3138 691.612 75.4688V71.0859H688.798C686.864 71.0859 685.41 71.4225 684.436 72.0957C683.462 72.7689 682.975 73.7214 682.975 74.9531C682.975 75.9557 683.305 76.7578 683.964 77.3594C684.637 77.9466 685.532 78.2402 686.649 78.2402ZM714.011 75.6836C714.011 74.7526 713.624 74.0436 712.851 73.5566C712.092 73.0697 710.824 72.64 709.048 72.2676C707.272 71.8952 705.79 71.4225 704.601 70.8496C701.994 69.5892 700.691 67.763 700.691 65.3711C700.691 63.3659 701.536 61.6901 703.226 60.3438C704.916 58.9974 707.064 58.3242 709.671 58.3242C712.45 58.3242 714.691 59.0117 716.396 60.3867C718.114 61.7617 718.974 63.5449 718.974 65.7363H713.753C713.753 64.7337 713.381 63.903 712.636 63.2441C711.891 62.571 710.903 62.2344 709.671 62.2344C708.525 62.2344 707.587 62.4993 706.857 63.0293C706.14 63.5592 705.782 64.2682 705.782 65.1562C705.782 65.9583 706.119 66.5814 706.792 67.0254C707.465 67.4694 708.826 67.9206 710.874 68.3789C712.922 68.8229 714.526 69.36 715.687 69.9902C716.861 70.6061 717.728 71.3509 718.286 72.2246C718.859 73.0983 719.146 74.1582 719.146 75.4043C719.146 77.4954 718.279 79.1927 716.546 80.4961C714.813 81.7852 712.543 82.4297 709.735 82.4297C707.831 82.4297 706.133 82.0859 704.644 81.3984C703.154 80.7109 701.994 79.7656 701.163 78.5625C700.332 77.3594 699.917 76.0632 699.917 74.6738H704.987C705.059 75.9056 705.525 76.8581 706.384 77.5312C707.243 78.1901 708.382 78.5195 709.8 78.5195C711.175 78.5195 712.22 78.2617 712.937 77.7461C713.653 77.2161 714.011 76.5286 714.011 75.6836ZM745.058 75.6836C745.058 74.7526 744.672 74.0436 743.898 73.5566C743.139 73.0697 741.872 72.64 740.095 72.2676C738.319 71.8952 736.837 71.4225 735.648 70.8496C733.041 69.5892 731.738 67.763 731.738 65.3711C731.738 63.3659 732.583 61.6901 734.273 60.3438C735.963 58.9974 738.112 58.3242 740.719 58.3242C743.497 58.3242 745.739 59.0117 747.443 60.3867C749.162 61.7617 750.021 63.5449 750.021 65.7363H744.801C744.801 64.7337 744.428 63.903 743.683 63.2441C742.939 62.571 741.95 62.2344 740.719 62.2344C739.573 62.2344 738.635 62.4993 737.904 63.0293C737.188 63.5592 736.83 64.2682 736.83 65.1562C736.83 65.9583 737.166 66.5814 737.84 67.0254C738.513 67.4694 739.873 67.9206 741.922 68.3789C743.97 68.8229 745.574 69.36 746.734 69.9902C747.909 70.6061 748.775 71.3509 749.334 72.2246C749.907 73.0983 750.193 74.1582 750.193 75.4043C750.193 77.4954 749.327 79.1927 747.594 80.4961C745.86 81.7852 743.59 82.4297 740.783 82.4297C738.878 82.4297 737.181 82.0859 735.691 81.3984C734.202 80.7109 733.041 79.7656 732.211 78.5625C731.38 77.3594 730.965 76.0632 730.965 74.6738H736.035C736.107 75.9056 736.572 76.8581 737.431 77.5312C738.291 78.1901 739.429 78.5195 740.847 78.5195C742.222 78.5195 743.268 78.2617 743.984 77.7461C744.7 77.2161 745.058 76.5286 745.058 75.6836ZM752.461 70.1621C752.461 67.8848 752.912 65.8366 753.815 64.0176C754.717 62.1842 755.984 60.7806 757.617 59.8066C759.25 58.8184 761.126 58.3242 763.246 58.3242C766.383 58.3242 768.925 59.334 770.873 61.3535C772.835 63.373 773.895 66.0514 774.053 69.3887L774.074 70.6133C774.074 72.9049 773.63 74.9531 772.742 76.7578C771.869 78.5625 770.608 79.959 768.961 80.9473C767.328 81.9355 765.438 82.4297 763.289 82.4297C760.009 82.4297 757.381 81.3411 755.404 79.1641C753.442 76.9727 752.461 74.0579 752.461 70.4199V70.1621ZM757.682 70.6133C757.682 73.0052 758.176 74.8815 759.164 76.2422C760.152 77.5885 761.527 78.2617 763.289 78.2617C765.051 78.2617 766.419 77.5742 767.393 76.1992C768.381 74.8242 768.875 72.8118 768.875 70.1621C768.875 67.8132 768.367 65.9512 767.35 64.5762C766.347 63.2012 764.979 62.5137 763.246 62.5137C761.542 62.5137 760.188 63.194 759.186 64.5547C758.183 65.901 757.682 67.9206 757.682 70.6133ZM797.044 82.4297C793.735 82.4297 791.049 81.3913 788.987 79.3145C786.939 77.2233 785.915 74.4447 785.915 70.9785V70.334C785.915 68.0137 786.359 65.944 787.247 64.125C788.149 62.2917 789.41 60.8665 791.028 59.8496C792.647 58.8327 794.451 58.3242 796.442 58.3242C799.607 58.3242 802.049 59.334 803.768 61.3535C805.501 63.373 806.368 66.2305 806.368 69.9258V72.0312H791.178C791.336 73.9505 791.973 75.4688 793.091 76.5859C794.222 77.7031 795.64 78.2617 797.344 78.2617C799.736 78.2617 801.684 77.2949 803.188 75.3613L806.003 78.0469C805.072 79.4362 803.826 80.5176 802.264 81.291C800.717 82.0501 798.977 82.4297 797.044 82.4297ZM796.421 62.5137C794.988 62.5137 793.828 63.015 792.94 64.0176C792.066 65.0202 791.508 66.4167 791.264 68.207H801.212V67.8203C801.097 66.0729 800.632 64.7552 799.815 63.8672C798.999 62.9648 797.867 62.5137 796.421 62.5137ZM823.009 82C822.78 81.556 822.579 80.8327 822.407 79.8301C820.746 81.5632 818.712 82.4297 816.306 82.4297C813.971 82.4297 812.066 81.7637 810.591 80.4316C809.116 79.0996 808.378 77.4525 808.378 75.4902C808.378 73.0124 809.295 71.1146 811.128 69.7969C812.976 68.4648 815.611 67.7988 819.034 67.7988H822.235V66.2734C822.235 65.0703 821.899 64.1107 821.226 63.3945C820.552 62.6641 819.528 62.2988 818.153 62.2988C816.965 62.2988 815.991 62.5996 815.232 63.2012C814.472 63.7884 814.093 64.5404 814.093 65.457H808.872C808.872 64.1823 809.295 62.9935 810.14 61.8906C810.985 60.7734 812.131 59.8997 813.577 59.2695C815.038 58.6393 816.664 58.3242 818.454 58.3242C821.176 58.3242 823.345 59.0117 824.964 60.3867C826.582 61.7474 827.413 63.6667 827.456 66.1445V76.6289C827.456 78.7201 827.75 80.3887 828.337 81.6348V82H823.009ZM817.273 78.2402C818.304 78.2402 819.271 77.9896 820.173 77.4883C821.09 76.987 821.777 76.3138 822.235 75.4688V71.0859H819.421C817.487 71.0859 816.034 71.4225 815.06 72.0957C814.086 72.7689 813.599 73.7214 813.599 74.9531C813.599 75.9557 813.928 76.7578 814.587 77.3594C815.26 77.9466 816.155 78.2402 817.273 78.2402ZM844.634 75.6836C844.634 74.7526 844.247 74.0436 843.474 73.5566C842.715 73.0697 841.447 72.64 839.671 72.2676C837.895 71.8952 836.413 71.4225 835.224 70.8496C832.617 69.5892 831.314 67.763 831.314 65.3711C831.314 63.3659 832.159 61.6901 833.849 60.3438C835.539 58.9974 837.688 58.3242 840.294 58.3242C843.073 58.3242 845.314 59.0117 847.019 60.3867C848.738 61.7617 849.597 63.5449 849.597 65.7363H844.376C844.376 64.7337 844.004 63.903 843.259 63.2441C842.514 62.571 841.526 62.2344 840.294 62.2344C839.148 62.2344 838.21 62.4993 837.48 63.0293C836.764 63.5592 836.406 64.2682 836.406 65.1562C836.406 65.9583 836.742 66.5814 837.415 67.0254C838.089 67.4694 839.449 67.9206 841.497 68.3789C843.546 68.8229 845.15 69.36 846.31 69.9902C847.484 70.6061 848.351 71.3509 848.91 72.2246C849.482 73.0983 849.769 74.1582 849.769 75.4043C849.769 77.4954 848.902 79.1927 847.169 80.4961C845.436 81.7852 843.166 82.4297 840.359 82.4297C838.454 82.4297 836.757 82.0859 835.267 81.3984C833.777 80.7109 832.617 79.7656 831.786 78.5625C830.956 77.3594 830.54 76.0632 830.54 74.6738H835.611C835.682 75.9056 836.148 76.8581 837.007 77.5312C837.867 78.1901 839.005 78.5195 840.423 78.5195C841.798 78.5195 842.844 78.2617 843.56 77.7461C844.276 77.2161 844.634 76.5286 844.634 75.6836ZM861.146 74.5234L865.873 58.7539H871.437L862.199 85.5234C860.781 89.4336 858.375 91.3887 854.98 91.3887C854.221 91.3887 853.383 91.2598 852.466 91.002V86.9629L853.455 87.0273C854.772 87.0273 855.761 86.7839 856.42 86.2969C857.093 85.8242 857.623 85.0221 858.009 83.8906L858.761 81.8926L850.597 58.7539H856.226L861.146 74.5234ZM9.2168 101.104V106.754H13.3203V110.621H9.2168V123.598C9.2168 124.486 9.38867 125.13 9.73242 125.531C10.0905 125.918 10.7207 126.111 11.623 126.111C12.2246 126.111 12.8333 126.04 13.4492 125.896V129.936C12.2604 130.265 11.1146 130.43 10.0117 130.43C6.0013 130.43 3.99609 128.217 3.99609 123.791V110.621H0.171875V106.754H3.99609V101.104H9.2168ZM14.3851 118.162C14.3851 115.885 14.8363 113.837 15.7386 112.018C16.6409 110.184 17.9085 108.781 19.5413 107.807C21.1741 106.818 23.0504 106.324 25.1702 106.324C28.307 106.324 30.8493 107.334 32.7972 109.354C34.7594 111.373 35.8193 114.051 35.9769 117.389L35.9984 118.613C35.9984 120.905 35.5543 122.953 34.6663 124.758C33.7926 126.562 32.5322 127.959 30.8851 128.947C29.2523 129.936 27.3616 130.43 25.2132 130.43C21.9333 130.43 19.305 129.341 17.3284 127.164C15.3662 124.973 14.3851 122.058 14.3851 118.42V118.162ZM19.6058 118.613C19.6058 121.005 20.0999 122.882 21.0882 124.242C22.0765 125.589 23.4515 126.262 25.2132 126.262C26.9749 126.262 28.3428 125.574 29.3167 124.199C30.305 122.824 30.7991 120.812 30.7991 118.162C30.7991 115.813 30.2907 113.951 29.2738 112.576C28.2711 111.201 26.9033 110.514 25.1702 110.514C23.4658 110.514 22.1123 111.194 21.1097 112.555C20.1071 113.901 19.6058 115.921 19.6058 118.613ZM62.8134 127.723C61.2809 129.527 59.1038 130.43 56.2822 130.43C53.7614 130.43 51.8492 129.692 50.5459 128.217C49.2568 126.742 48.6123 124.607 48.6123 121.814V106.754H53.833V121.75C53.833 124.701 55.0576 126.176 57.5068 126.176C60.042 126.176 61.7535 125.266 62.6416 123.447V106.754H67.8623V130H62.9423L62.8134 127.723ZM84.8899 123.684C84.8899 122.753 84.5032 122.044 83.7298 121.557C82.9707 121.07 81.7031 120.64 79.927 120.268C78.151 119.895 76.6686 119.423 75.4798 118.85C72.873 117.589 71.5696 115.763 71.5696 113.371C71.5696 111.366 72.4147 109.69 74.1048 108.344C75.7949 106.997 77.9433 106.324 80.5501 106.324C83.3287 106.324 85.5703 107.012 87.2747 108.387C88.9934 109.762 89.8528 111.545 89.8528 113.736H84.6321C84.6321 112.734 84.2597 111.903 83.5149 111.244C82.7701 110.571 81.7819 110.234 80.5501 110.234C79.4042 110.234 78.4661 110.499 77.7356 111.029C77.0195 111.559 76.6614 112.268 76.6614 113.156C76.6614 113.958 76.998 114.581 77.6712 115.025C78.3444 115.469 79.705 115.921 81.7532 116.379C83.8014 116.823 85.4055 117.36 86.5657 117.99C87.7402 118.606 88.6067 119.351 89.1653 120.225C89.7382 121.098 90.0247 122.158 90.0247 123.404C90.0247 125.495 89.1582 127.193 87.4251 128.496C85.692 129.785 83.4218 130.43 80.6145 130.43C78.7096 130.43 77.0123 130.086 75.5227 129.398C74.0332 128.711 72.873 127.766 72.0423 126.562C71.2115 125.359 70.7962 124.063 70.7962 122.674H75.8665C75.9381 123.906 76.4036 124.858 77.263 125.531C78.1223 126.19 79.261 126.52 80.679 126.52C82.054 126.52 83.0996 126.262 83.8157 125.746C84.5319 125.216 84.8899 124.529 84.8899 123.684ZM103.507 130.43C100.199 130.43 97.5133 129.391 95.4508 127.314C93.4026 125.223 92.3785 122.445 92.3785 118.979V118.334C92.3785 116.014 92.8225 113.944 93.7105 112.125C94.6129 110.292 95.8733 108.867 97.4918 107.85C99.1103 106.833 100.915 106.324 102.906 106.324C106.071 106.324 108.513 107.334 110.232 109.354C111.965 111.373 112.832 114.23 112.832 117.926V120.031H97.6422C97.7997 121.951 98.4371 123.469 99.5543 124.586C100.686 125.703 102.104 126.262 103.808 126.262C106.2 126.262 108.148 125.295 109.652 123.361L112.466 126.047C111.535 127.436 110.289 128.518 108.728 129.291C107.181 130.05 105.441 130.43 103.507 130.43ZM102.884 110.514C101.452 110.514 100.292 111.015 99.4039 112.018C98.5302 113.02 97.9716 114.417 97.7281 116.207H107.675V115.82C107.561 114.073 107.095 112.755 106.279 111.867C105.463 110.965 104.331 110.514 102.884 110.514ZM118.838 124.5C119.812 124.5 120.564 124.779 121.094 125.338C121.624 125.882 121.889 126.57 121.889 127.4C121.889 128.217 121.624 128.897 121.094 129.441C120.564 129.971 119.812 130.236 118.838 130.236C117.907 130.236 117.169 129.971 116.625 129.441C116.081 128.911 115.809 128.231 115.809 127.4C115.809 126.57 116.073 125.882 116.603 125.338C117.133 124.779 117.878 124.5 118.838 124.5ZM121.772 108L119.108 106.346C120.397 104.469 121.063 102.486 121.106 100.395V97H125.682V99.9648C125.682 101.44 125.302 102.93 124.543 104.434C123.798 105.923 122.875 107.112 121.772 108ZM128.948 108L126.283 106.346C127.573 104.469 128.239 102.486 128.281 100.395V97H132.858V99.9648C132.858 101.44 132.478 102.93 131.719 104.434C130.974 105.923 130.05 107.112 128.948 108Z" fill="#23242A"/>
</svg>
